<?xml version="1.0" encoding="UTF-8"?> <svg xmlns="http://www.w3.org/2000/svg" id="Capa_2" viewBox="0 0 393.79 120.19"><defs><style>.cls-1{fill:#223c6a;}</style></defs><g id="Capa_1-2"><rect class="cls-1" x="101.01" y="1.66" width="1.35" height="118.37"></rect><path class="cls-1" d="M5.85,97.42c0-1.72,1.01-2.64,2.52-2.64.48,0,.82.04,1.13.13v.58c-.32-.12-.63-.17-1.08-.17-1.23,0-1.9.74-1.9,2.07,0,1.48.71,2.06,1.88,2.06.45,0,.83-.06,1.15-.2v.58c-.33.12-.72.19-1.21.19-1.58,0-2.5-.84-2.5-2.61Z"></path><path class="cls-1" d="M10.16,98.23c0-1.18.66-1.84,1.65-1.84s1.65.58,1.65,1.8-.67,1.84-1.65,1.84-1.65-.58-1.65-1.8ZM12.81,98.21c0-.86-.39-1.31-1-1.31s-1,.46-1,1.31.38,1.31,1,1.31,1-.44,1-1.31Z"></path><path class="cls-1" d="M19.48,97.7v2.24h-.64v-2.14c0-.59-.24-.84-.67-.84-.54,0-.95.44-.95,1.07v1.91h-.63v-2.15c0-.59-.24-.83-.68-.83-.54,0-.94.44-.94,1.07v1.91h-.64v-3.46h.56l.05.52c.23-.35.61-.6,1.13-.6.56,0,.92.23,1.07.7.22-.4.62-.7,1.18-.7.74,0,1.15.42,1.15,1.31Z"></path><path class="cls-1" d="M20.42,95.27c0-.25.19-.43.45-.43s.45.18.45.43-.19.44-.45.44-.45-.19-.45-.44ZM20.56,96.47h.64v3.46h-.64v-3.46Z"></path><path class="cls-1" d="M22.11,99.8v-.56c.32.17.72.27,1.11.27.58,0,.88-.17.88-.52s-.2-.48-.87-.61c-.72-.14-1.11-.38-1.11-1,0-.58.45-1,1.31-1,.45,0,.78.07,1.07.2v.55c-.32-.17-.68-.25-1.02-.25-.52,0-.79.16-.79.46s.14.37.88.53c.71.14,1.1.43,1.1,1.06s-.45,1.08-1.44,1.08c-.46,0-.84-.07-1.13-.22Z"></path><path class="cls-1" d="M25.42,95.27c0-.25.19-.43.45-.43s.45.18.45.43-.19.44-.45.44-.45-.19-.45-.44ZM25.55,96.47h.64v3.46h-.64v-3.46Z"></path><path class="cls-1" d="M27.1,98.23c0-1.18.66-1.84,1.65-1.84s1.65.58,1.65,1.8-.67,1.84-1.65,1.84-1.65-.58-1.65-1.8ZM29.75,98.21c0-.86-.39-1.31-1-1.31s-1,.46-1,1.31.38,1.31,1,1.31,1-.44,1-1.31ZM27.93,95.7l1.23-1.1.51.48-1.41.95-.33-.32Z"></path><path class="cls-1" d="M34.24,97.7v2.24h-.63v-2.15c0-.59-.27-.83-.71-.83-.57,0-.98.45-.98,1.04v1.94h-.64v-3.46h.56l.05.53c.24-.35.63-.61,1.17-.61.77,0,1.18.43,1.18,1.31Z"></path><path class="cls-1" d="M41.08,94.88v5.05h-.53l-2.75-3.98v.31s.01,3.67.01,3.67h-.59v-5.05h.53l2.74,3.99v-.32s-.01-3.67-.01-3.67h.59Z"></path><path class="cls-1" d="M45.24,99.4v.48c-.13.04-.25.07-.4.07-.4,0-.58-.18-.58-.53-.24.38-.63.6-1.17.6-.63,0-1.05-.38-1.05-.99,0-.65.47-1.08,1.44-1.08.25,0,.49.01.72.06v-.26c0-.54-.27-.83-.88-.83-.39,0-.75.09-1.05.27v-.53c.3-.16.71-.27,1.16-.27.92,0,1.4.43,1.4,1.36v1.47c0,.16.07.22.18.22.06,0,.15-.01.23-.04ZM44.2,98.66v-.23c-.23-.03-.46-.04-.69-.04-.58,0-.87.22-.87.61,0,.37.25.54.6.54.6,0,.95-.51.96-.87Z"></path><path class="cls-1" d="M45.76,98.26c0-1.23.74-1.87,1.75-1.87.32,0,.62.04.83.15v.57c-.27-.13-.45-.18-.79-.18-.65,0-1.14.41-1.14,1.31,0,.83.43,1.23,1.11,1.23.38,0,.63-.09.89-.27v.57c-.27.17-.57.25-1,.25-1,0-1.65-.61-1.65-1.76Z"></path><path class="cls-1" d="M49.12,95.27c0-.25.19-.43.45-.43s.45.18.45.43-.19.44-.45.44-.45-.19-.45-.44ZM49.26,96.47h.64v3.46h-.64v-3.46Z"></path><path class="cls-1" d="M50.8,98.23c0-1.18.66-1.84,1.65-1.84s1.65.58,1.65,1.8-.67,1.84-1.65,1.84-1.65-.58-1.65-1.8ZM53.45,98.21c0-.86-.39-1.31-1-1.31s-1,.46-1,1.31.38,1.31,1,1.31,1-.44,1-1.31Z"></path><path class="cls-1" d="M57.94,97.7v2.24h-.63v-2.15c0-.59-.27-.83-.71-.83-.57,0-.98.45-.98,1.04v1.94h-.64v-3.46h.56l.05.53c.24-.35.63-.61,1.17-.61.77,0,1.18.43,1.18,1.31Z"></path><path class="cls-1" d="M61.96,99.4v.48c-.13.04-.25.07-.4.07-.4,0-.58-.18-.58-.53-.24.38-.63.6-1.17.6-.63,0-1.05-.38-1.05-.99,0-.65.47-1.08,1.44-1.08.25,0,.49.01.72.06v-.26c0-.54-.27-.83-.88-.83-.39,0-.75.09-1.05.27v-.53c.3-.16.71-.27,1.16-.27.92,0,1.4.43,1.4,1.36v1.47c0,.16.07.22.18.22.06,0,.15-.01.23-.04ZM60.92,98.66v-.23c-.23-.03-.46-.04-.69-.04-.58,0-.87.22-.87.61,0,.37.25.54.6.54.6,0,.95-.51.96-.87Z"></path><path class="cls-1" d="M62.71,99.29v-4.55h.63v4.37c0,.22.1.27.24.27.07,0,.14-.01.22-.04v.54c-.14.05-.27.07-.42.07-.44,0-.66-.19-.66-.66Z"></path><path class="cls-1" d="M13.86,104.5v5.2h-.56l-.05-.48c-.21.35-.56.56-1.09.56-.81,0-1.39-.56-1.39-1.68,0-1.28.74-1.94,1.74-1.94.28,0,.52.05.71.12v-1.78h.63ZM13.23,108.17v-1.34c-.21-.11-.42-.16-.71-.16-.64,0-1.1.43-1.1,1.35,0,.76.3,1.21.89,1.21s.92-.39.92-1.06Z"></path><path class="cls-1" d="M17.74,108.08h-2.33c.03.81.4,1.18,1.21,1.18.4,0,.65-.06,1.02-.23v.51c-.3.15-.71.25-1.1.25-1.14,0-1.78-.58-1.78-1.78s.66-1.85,1.59-1.85c.87,0,1.39.56,1.39,1.55,0,.15,0,.24-.01.38ZM15.43,107.63h1.72c0-.65-.28-.98-.79-.98s-.86.31-.94.98Z"></path><path class="cls-1" d="M23.03,108.25h-2.06l-.5,1.44h-.68l1.85-5.05h.71l1.85,5.05h-.69l-.49-1.44ZM22.85,107.73l-.85-2.48-.85,2.48h1.7Z"></path><path class="cls-1" d="M24.66,108.02c0-1.23.74-1.87,1.75-1.87.32,0,.62.04.83.15v.57c-.27-.13-.45-.18-.79-.18-.65,0-1.14.41-1.14,1.31,0,.83.43,1.23,1.11,1.23.38,0,.63-.09.89-.27v.57c-.27.17-.57.25-1,.25-1,0-1.65-.61-1.65-1.76Z"></path><path class="cls-1" d="M30.11,106.18v.61c-.09-.02-.19-.04-.31-.04-.58,0-1.01.44-1.01,1.26v1.68h-.64v-3.46h.56l.05.55c.22-.39.61-.63,1.1-.63.09,0,.18,0,.25.03Z"></path><path class="cls-1" d="M33.43,108.08h-2.33c.03.81.4,1.18,1.21,1.18.4,0,.65-.06,1.02-.23v.51c-.3.15-.71.25-1.1.25-1.14,0-1.78-.58-1.78-1.78s.66-1.85,1.59-1.85c.87,0,1.39.56,1.39,1.55,0,.15,0,.24-.01.38ZM31.12,107.63h1.72c0-.65-.28-.98-.79-.98s-.86.31-.94.98Z"></path><path class="cls-1" d="M37.22,104.5v5.2h-.56l-.05-.48c-.21.35-.56.56-1.09.56-.81,0-1.39-.56-1.39-1.68,0-1.28.74-1.94,1.74-1.94.28,0,.52.05.71.12v-1.78h.63ZM36.58,108.17v-1.34c-.21-.11-.42-.16-.71-.16-.64,0-1.1.43-1.1,1.35,0,.76.3,1.21.89,1.21s.92-.39.92-1.06Z"></path><path class="cls-1" d="M38.2,105.03c0-.25.19-.43.45-.43s.45.18.45.43-.19.44-.45.44-.45-.19-.45-.44ZM38.34,106.23h.64v3.46h-.64v-3.46Z"></path><path class="cls-1" d="M42.16,109.15v.51c-.13.06-.32.09-.57.09-.6,0-1.16-.23-1.16-1.1v-1.91h-.76v-.52h.77v-.86h.61v.86h1.05v.52h-1.05v1.83c0,.53.27.66.61.66.21,0,.32-.01.49-.08Z"></path><path class="cls-1" d="M45.83,109.16v.48c-.13.04-.25.07-.4.07-.4,0-.58-.18-.58-.53-.24.38-.63.6-1.17.6-.63,0-1.05-.38-1.05-.99,0-.65.47-1.08,1.44-1.08.25,0,.49.01.72.06v-.26c0-.54-.27-.83-.88-.83-.39,0-.75.09-1.05.27v-.53c.3-.16.71-.27,1.16-.27.92,0,1.4.43,1.4,1.36v1.47c0,.16.07.22.18.22.06,0,.15-.01.23-.04ZM44.79,108.43v-.23c-.23-.03-.46-.04-.69-.04-.58,0-.87.22-.87.61,0,.37.25.54.6.54.6,0,.95-.51.96-.87Z"></path><path class="cls-1" d="M46.35,108.02c0-1.23.74-1.87,1.75-1.87.32,0,.62.04.83.15v.57c-.27-.13-.45-.18-.79-.18-.65,0-1.14.41-1.14,1.31,0,.83.43,1.23,1.11,1.23.38,0,.63-.09.89-.27v.57c-.27.17-.57.25-1,.25-1,0-1.65-.61-1.65-1.76Z"></path><path class="cls-1" d="M49.72,105.03c0-.25.19-.43.45-.43s.45.18.45.43-.19.44-.45.44-.45-.19-.45-.44ZM49.85,106.23h.64v3.46h-.64v-3.46Z"></path><path class="cls-1" d="M51.4,107.99c0-1.18.66-1.84,1.65-1.84s1.65.58,1.65,1.8-.67,1.84-1.65,1.84-1.65-.58-1.65-1.8ZM54.04,107.97c0-.86-.39-1.31-1-1.31s-1,.46-1,1.31.38,1.31,1,1.31,1-.44,1-1.31ZM52.23,105.46l1.23-1.1.51.48-1.41.95-.33-.32Z"></path><path class="cls-1" d="M58.54,107.46v2.24h-.63v-2.15c0-.59-.27-.83-.71-.83-.57,0-.98.45-.98,1.04v1.94h-.64v-3.46h.56l.05.53c.24-.35.63-.61,1.17-.61.77,0,1.18.43,1.18,1.31Z"></path><path class="cls-1" d="M0,75.86c0-8.2,5.27-12.8,12.48-12.8,2.44,0,3.87.17,5.34.63v4.29c-1.5-.59-2.82-.84-4.81-.84-4.95,0-7.92,3.31-7.92,8.58,0,6.38,3.1,8.54,8.13,8.54,1.88,0,3.52-.31,4.92-1.12v4.43c-1.39.59-3.17.94-5.34.94-7.99,0-12.8-3.94-12.8-12.66Z"></path><path class="cls-1" d="M43,63.62v24.41h-3.91l-11.58-16.5.1,2.09v14.4h-4.43v-24.41h3.91l11.58,16.63-.1-2.3v-14.33h4.43Z"></path><path class="cls-1" d="M62.52,81.93h-8.51l-1.88,6.1h-5.16l8.61-24.41h5.44l8.61,24.41h-5.23l-1.88-6.1ZM61.37,78.09l-3.1-10.08-3.1,10.08h6.21Z"></path><path class="cls-1" d="M46.79,45.92l-12.55,10.02c-.43.35-.19,1.04.37,1.04h15.55c.55,0,.92-.55.71-1.06l-4.08-10.01Z"></path><path class="cls-1" d="M14.13,56.98H2.23c-.54,0-.9-.55-.69-1.05L24.71,2.01c.09-.21.29-.36.53-.36h15.83c.24,0,.44.14.53.34l15.85,35.4-10.67,8.52-13.4-30.06c-.05-.12-.23-.12-.28,0L15.84,55.89c-.3.64-.95,1.09-1.71,1.09"></path><path class="cls-1" d="M65.93,56.5l-8.47-19.1,22.13-15.84c1.73-1.24,3.98.63,3.07,2.56l-15.24,32.36c-.12.29-.41.5-.75.5s-.62-.2-.74-.48"></path><path class="cls-1" d="M27.15,117.41c0-1.7,1.05-2.65,2.55-2.65.5,0,.81.04,1.11.14v.74c-.31-.12-.6-.17-1.02-.17-1.12,0-1.76.71-1.76,1.91,0,1.39.67,1.9,1.77,1.9.43,0,.78-.06,1.08-.22v.76c-.3.12-.69.19-1.15.19-1.62,0-2.58-.83-2.58-2.62Z"></path><path class="cls-1" d="M34.77,117.74v2.19h-.83v-2.09c0-.51-.23-.73-.63-.73-.46,0-.84.35-.84.94v1.88h-.82v-5.2h.82v2.15c.23-.3.59-.51,1.08-.51.81,0,1.22.45,1.22,1.36Z"></path><path class="cls-1" d="M35.62,115.28c0-.3.22-.52.56-.52s.54.22.54.52-.22.53-.54.53-.56-.22-.56-.53ZM35.77,116.46h.82v3.46h-.82v-3.46Z"></path><path class="cls-1" d="M37.62,119.18v-4.45h.83v4.21c0,.22.09.27.22.27.07,0,.13,0,.2-.04v.7c-.16.05-.3.07-.48.07-.55,0-.77-.25-.77-.77Z"></path><path class="cls-1" d="M42.48,118.38h-2.22c.04.66.35.97,1.1.97.41,0,.63-.06,1.01-.23v.66c-.27.14-.71.25-1.13.25-1.19,0-1.83-.61-1.83-1.78s.68-1.86,1.64-1.86c.89,0,1.43.56,1.43,1.55,0,.17,0,.3-.01.45ZM40.28,117.81h1.44c0-.53-.23-.79-.65-.79s-.71.24-.79.79Z"></path><path class="cls-1" d="M125.34,1.66v7.03c0,.7.17,1.25.52,1.62.35.38.85.57,1.52.57s1.18-.19,1.54-.57.54-.92.54-1.62V1.66h2.86v7.02c0,1.05-.22,1.94-.67,2.66-.45.73-1.05,1.27-1.8,1.64s-1.59.55-2.52.55-1.76-.18-2.49-.54c-.73-.36-1.31-.91-1.73-1.64s-.64-1.62-.64-2.67V1.66h2.86Z"></path><path class="cls-1" d="M142.65,5.03c.65.71.98,1.68.98,2.92v5.46h-2.85v-5.08c0-.62-.16-1.11-.49-1.46-.32-.35-.76-.52-1.31-.52s-.98.17-1.31.52c-.32.35-.49.83-.49,1.46v5.08h-2.86V4.07h2.86v1.24c.29-.41.68-.74,1.17-.98.49-.24,1.04-.36,1.66-.36,1.09,0,1.97.35,2.62,1.06Z"></path><path class="cls-1" d="M145.83,2.65c-.32-.29-.48-.66-.48-1.1s.16-.82.48-1.11c.32-.29.73-.44,1.23-.44s.9.15,1.21.44c.32.3.48.67.48,1.11s-.16.8-.48,1.1c-.32.3-.72.44-1.21.44s-.91-.15-1.23-.44ZM148.48,4.07v9.35h-2.86V4.07h2.86Z"></path><path class="cls-1" d="M154.76,10.74l2.03-6.67h3.05l-3.32,9.35h-3.53l-3.32-9.35h3.06l2.03,6.67Z"></path><path class="cls-1" d="M169.8,9.43h-6.48c.04.58.23,1.02.56,1.33.33.31.73.46,1.21.46.71,0,1.21-.3,1.49-.9h3.05c-.16.61-.44,1.17-.85,1.66-.41.49-.92.88-1.53,1.16-.61.28-1.3.42-2.06.42-.92,0-1.73-.2-2.45-.59-.71-.39-1.27-.95-1.68-1.67-.4-.73-.6-1.57-.6-2.55s.2-1.82.59-2.55.95-1.28,1.67-1.67,1.54-.59,2.46-.59,1.71.19,2.41.57c.7.38,1.25.92,1.65,1.62.4.7.59,1.52.59,2.46,0,.27-.02.55-.05.84ZM166.92,7.84c0-.49-.17-.88-.5-1.17-.33-.29-.75-.44-1.26-.44s-.89.14-1.21.42c-.33.28-.53.68-.61,1.19h3.58Z"></path><path class="cls-1" d="M175.48,4.41c.5-.3,1.06-.44,1.67-.44v3.03h-.79c-.71,0-1.25.15-1.61.46-.36.31-.54.85-.54,1.62v4.34h-2.86V4.07h2.86v1.56c.33-.51.75-.92,1.26-1.21Z"></path><path class="cls-1" d="M180.15,13.13c-.64-.28-1.14-.66-1.51-1.15-.37-.49-.58-1.03-.62-1.63h2.83c.03.32.18.59.45.79.27.2.6.3.99.3.36,0,.63-.07.83-.21.2-.14.29-.32.29-.54,0-.27-.14-.47-.42-.59-.28-.13-.73-.27-1.36-.43-.67-.16-1.23-.32-1.67-.49-.45-.17-.83-.45-1.16-.82-.32-.37-.49-.88-.49-1.52,0-.54.15-1.02.44-1.47s.73-.79,1.31-1.05c.57-.26,1.26-.39,2.05-.39,1.17,0,2.1.29,2.77.87.68.58,1.06,1.35,1.16,2.31h-2.65c-.04-.32-.19-.58-.43-.77-.24-.19-.56-.28-.95-.28-.33,0-.59.06-.77.19s-.27.3-.27.53c0,.27.14.47.43.6.28.13.73.27,1.33.4.69.18,1.26.35,1.69.53.44.17.82.45,1.15.84.33.39.5.9.51,1.55,0,.55-.15,1.04-.46,1.46-.31.43-.75.77-1.32,1.01s-1.24.37-2,.37c-.81,0-1.54-.14-2.18-.42Z"></path><path class="cls-1" d="M188.09,2.65c-.32-.29-.48-.66-.48-1.1s.16-.82.48-1.11c.32-.29.73-.44,1.23-.44s.9.15,1.21.44c.32.3.48.67.48,1.11s-.16.8-.48,1.1c-.32.3-.72.44-1.21.44s-.91-.15-1.23-.44ZM190.74,4.07v9.35h-2.86V4.07h2.86Z"></path><path class="cls-1" d="M192.79,6.2c.36-.73.86-1.28,1.48-1.67.62-.39,1.32-.59,2.09-.59.61,0,1.17.13,1.68.39s.91.6,1.2,1.04V1.02h2.86v12.39h-2.86v-1.34c-.27.45-.65.8-1.15,1.07-.5.27-1.07.4-1.73.4-.77,0-1.47-.2-2.09-.59-.63-.4-1.12-.96-1.48-1.69s-.54-1.58-.54-2.54.18-1.8.54-2.53ZM198.65,7.05c-.4-.41-.88-.62-1.45-.62s-1.05.2-1.45.61c-.4.41-.59.97-.59,1.68s.2,1.28.59,1.7c.4.42.88.63,1.45.63s1.05-.21,1.45-.62.59-.98.59-1.69-.2-1.28-.59-1.69Z"></path><path class="cls-1" d="M204.16,6.2c.36-.73.86-1.28,1.48-1.67.62-.39,1.32-.59,2.09-.59.66,0,1.24.13,1.73.4.5.27.88.62,1.15,1.06v-1.32h2.86v9.35h-2.86v-1.32c-.28.44-.67.79-1.16,1.06-.5.27-1.07.4-1.73.4-.76,0-1.45-.2-2.08-.59-.63-.4-1.12-.96-1.48-1.69s-.54-1.58-.54-2.54.18-1.8.54-2.53ZM210.03,7.05c-.4-.41-.88-.62-1.45-.62s-1.05.2-1.45.61c-.4.41-.59.97-.59,1.68s.2,1.28.59,1.7c.4.42.88.63,1.45.63s1.05-.21,1.45-.62.59-.98.59-1.69-.2-1.28-.59-1.69Z"></path><path class="cls-1" d="M215.54,6.2c.36-.73.86-1.28,1.48-1.67.62-.39,1.32-.59,2.09-.59.61,0,1.17.13,1.68.39s.91.6,1.2,1.04V1.02h2.86v12.39h-2.86v-1.34c-.27.45-.65.8-1.15,1.07-.5.27-1.07.4-1.73.4-.77,0-1.47-.2-2.09-.59-.63-.4-1.12-.96-1.48-1.69s-.54-1.58-.54-2.54.18-1.8.54-2.53ZM221.4,7.05c-.4-.41-.88-.62-1.45-.62s-1.05.2-1.45.61c-.4.41-.59.97-.59,1.68s.2,1.28.59,1.7c.4.42.88.63,1.45.63s1.05-.21,1.45-.62.59-.98.59-1.69-.2-1.28-.59-1.69Z"></path><path class="cls-1" d="M237.8,11.34h-4.39l-.7,2.08h-3l4.25-11.76h3.32l4.25,11.76h-3.03l-.7-2.08ZM237.07,9.13l-1.46-4.3-1.44,4.3h2.9Z"></path><path class="cls-1" d="M242.85,6.2c.4-.73.95-1.28,1.66-1.67s1.52-.59,2.44-.59c1.17,0,2.15.31,2.94.92s1.3,1.48,1.55,2.6h-3.05c-.26-.71-.75-1.07-1.49-1.07-.52,0-.94.2-1.26.61-.31.41-.47.99-.47,1.75s.16,1.34.47,1.75c.31.41.73.61,1.26.61.74,0,1.23-.36,1.49-1.07h3.05c-.25,1.09-.77,1.96-1.56,2.58-.79.62-1.77.94-2.93.94-.92,0-1.73-.2-2.44-.59s-1.26-.95-1.66-1.67-.59-1.57-.59-2.55.2-1.82.59-2.55Z"></path><path class="cls-1" d="M257.08,4.41c.5-.3,1.06-.44,1.67-.44v3.03h-.79c-.71,0-1.25.15-1.61.46-.36.31-.54.85-.54,1.62v4.34h-2.86V4.07h2.86v1.56c.33-.51.75-.92,1.26-1.21Z"></path><path class="cls-1" d="M268.89,9.43h-6.48c.04.58.23,1.02.56,1.33.33.31.73.46,1.21.46.71,0,1.21-.3,1.49-.9h3.05c-.16.61-.44,1.17-.85,1.66-.41.49-.92.88-1.53,1.16-.61.28-1.3.42-2.06.42-.92,0-1.73-.2-2.45-.59-.71-.39-1.27-.95-1.68-1.67-.4-.73-.6-1.57-.6-2.55s.2-1.82.59-2.55.95-1.28,1.67-1.67,1.54-.59,2.46-.59,1.71.19,2.41.57c.7.38,1.25.92,1.65,1.62.4.7.59,1.52.59,2.46,0,.27-.02.55-.05.84ZM266.01,7.84c0-.49-.17-.88-.5-1.17-.33-.29-.75-.44-1.26-.44s-.89.14-1.21.42c-.33.28-.53.68-.61,1.19h3.58Z"></path><path class="cls-1" d="M270.42,6.2c.36-.73.86-1.28,1.48-1.67.62-.39,1.32-.59,2.09-.59.61,0,1.17.13,1.68.39s.91.6,1.2,1.04V1.02h2.86v12.39h-2.86v-1.34c-.27.45-.65.8-1.15,1.07-.5.27-1.07.4-1.73.4-.77,0-1.47-.2-2.09-.59-.63-.4-1.12-.96-1.48-1.69s-.54-1.58-.54-2.54.18-1.8.54-2.53ZM276.29,7.05c-.4-.41-.88-.62-1.45-.62s-1.05.2-1.45.61c-.4.41-.59.97-.59,1.68s.2,1.28.59,1.7c.4.42.88.63,1.45.63s1.05-.21,1.45-.62.59-.98.59-1.69-.2-1.28-.59-1.69Z"></path><path class="cls-1" d="M282.03,2.65c-.32-.29-.48-.66-.48-1.1s.16-.82.48-1.11c.32-.29.73-.44,1.23-.44s.9.15,1.21.44c.32.3.48.67.48,1.11s-.16.8-.48,1.1c-.32.3-.72.44-1.21.44s-.91-.15-1.23-.44ZM284.68,4.07v9.35h-2.86V4.07h2.86Z"></path><path class="cls-1" d="M291.97,10.99v2.43h-1.46c-1.04,0-1.85-.25-2.43-.76-.58-.51-.87-1.34-.87-2.49v-3.72h-1.14v-2.38h1.14V1.79h2.86v2.28h1.88v2.38h-1.88v3.75c0,.28.07.48.2.6.13.12.36.18.67.18h1.02Z"></path><path class="cls-1" d="M293.54,6.2c.36-.73.86-1.28,1.48-1.67.62-.39,1.32-.59,2.09-.59.66,0,1.24.13,1.73.4.5.27.88.62,1.15,1.06v-1.32h2.86v9.35h-2.86v-1.32c-.28.44-.67.79-1.16,1.06-.5.27-1.07.4-1.73.4-.76,0-1.45-.2-2.08-.59-.63-.4-1.12-.96-1.48-1.69s-.54-1.58-.54-2.54.18-1.8.54-2.53ZM299.4,7.05c-.4-.41-.88-.62-1.45-.62s-1.05.2-1.45.61c-.4.41-.59.97-.59,1.68s.2,1.28.59,1.7c.4.42.88.63,1.45.63s1.05-.21,1.45-.62.59-.98.59-1.69-.2-1.28-.59-1.69Z"></path><path class="cls-1" d="M304.91,6.2c.36-.73.86-1.28,1.48-1.67.62-.39,1.32-.59,2.09-.59.61,0,1.17.13,1.68.39s.91.6,1.2,1.04V1.02h2.86v12.39h-2.86v-1.34c-.27.45-.65.8-1.15,1.07-.5.27-1.07.4-1.73.4-.77,0-1.47-.2-2.09-.59-.63-.4-1.12-.96-1.48-1.69s-.54-1.58-.54-2.54.18-1.8.54-2.53ZM310.77,7.05c-.4-.41-.88-.62-1.45-.62s-1.05.2-1.45.61c-.4.41-.59.97-.59,1.68s.2,1.28.59,1.7c.4.42.88.63,1.45.63s1.05-.21,1.45-.62.59-.98.59-1.69-.2-1.28-.59-1.69Z"></path><path class="cls-1" d="M316.28,6.2c.36-.73.86-1.28,1.48-1.67.62-.39,1.32-.59,2.09-.59.66,0,1.24.13,1.73.4.5.27.88.62,1.15,1.06v-1.32h2.86v9.35h-2.86v-1.32c-.28.44-.67.79-1.16,1.06-.5.27-1.07.4-1.73.4-.76,0-1.45-.2-2.08-.59-.63-.4-1.12-.96-1.48-1.69s-.54-1.58-.54-2.54.18-1.8.54-2.53ZM322.14,7.05c-.4-.41-.88-.62-1.45-.62s-1.05.2-1.45.61c-.4.41-.59.97-.59,1.68s.2,1.28.59,1.7c.4.42.88.63,1.45.63s1.05-.21,1.45-.62.59-.98.59-1.69-.2-1.28-.59-1.69Z"></path><path class="cls-1" d="M140.75,41.33h-4.77l-7.98-12.09v12.09h-4.77v-19.6h4.77l7.98,12.14v-12.14h4.77v19.6Z"></path><path class="cls-1" d="M144.56,23.4c-.53-.49-.8-1.1-.8-1.83s.27-1.36.8-1.86,1.21-.74,2.05-.74,1.49.25,2.02.74.8,1.11.8,1.86-.27,1.33-.8,1.83-1.21.74-2.02.74-1.52-.25-2.05-.74ZM148.98,25.75v15.58h-4.77v-15.58h4.77Z"></path><path class="cls-1" d="M159.45,36.86l3.38-11.11h5.08l-5.53,15.58h-5.89l-5.53-15.58h5.11l3.38,11.11Z"></path><path class="cls-1" d="M184.52,34.69h-10.8c.07.97.39,1.71.94,2.22.55.51,1.22.77,2.02.77,1.19,0,2.02-.5,2.48-1.51h5.08c-.26,1.02-.73,1.94-1.41,2.76-.68.82-1.53,1.46-2.55,1.93-1.02.47-2.17.7-3.43.7-1.53,0-2.88-.33-4.08-.98-1.19-.65-2.12-1.58-2.79-2.79s-1-2.62-1-4.24.33-3.03.99-4.24,1.59-2.14,2.78-2.79c1.19-.65,2.56-.98,4.1-.98s2.85.32,4.02.95c1.17.63,2.09,1.54,2.75,2.71.66,1.17.99,2.54.99,4.1,0,.45-.03.91-.08,1.4ZM179.71,32.04c0-.82-.28-1.47-.84-1.95-.56-.48-1.26-.73-2.09-.73s-1.48.23-2.02.7c-.55.46-.89,1.13-1.02,1.98h5.97Z"></path><path class="cls-1" d="M191.89,20.67v20.66h-4.77v-20.66h4.77Z"></path><path class="cls-1" d="M201.22,29.3c.6-1.21,1.43-2.14,2.47-2.79,1.04-.65,2.21-.98,3.49-.98,1.02,0,1.96.21,2.81.64.85.43,1.51,1,2,1.73v-7.23h4.77v20.66h-4.77v-2.23c-.45.75-1.08,1.34-1.91,1.79-.83.45-1.79.67-2.89.67-1.28,0-2.45-.33-3.49-.99-1.04-.66-1.87-1.6-2.47-2.82-.6-1.22-.91-2.63-.91-4.23s.3-3,.91-4.21ZM210.99,30.72c-.66-.69-1.47-1.03-2.41-1.03s-1.75.34-2.41,1.02c-.66.68-.99,1.62-.99,2.81s.33,2.14.99,2.83c.66.7,1.47,1.05,2.41,1.05s1.75-.34,2.41-1.03.99-1.63.99-2.82-.33-2.13-.99-2.82Z"></path><path class="cls-1" d="M234.82,34.69h-10.8c.07.97.39,1.71.94,2.22.55.51,1.22.77,2.02.77,1.19,0,2.02-.5,2.48-1.51h5.08c-.26,1.02-.73,1.94-1.41,2.76-.68.82-1.53,1.46-2.55,1.93-1.02.47-2.17.7-3.43.7-1.53,0-2.88-.33-4.08-.98-1.19-.65-2.12-1.58-2.79-2.79s-1-2.62-1-4.24.33-3.03.99-4.24,1.59-2.14,2.78-2.79c1.19-.65,2.56-.98,4.1-.98s2.85.32,4.02.95c1.17.63,2.09,1.54,2.75,2.71.66,1.17.99,2.54.99,4.1,0,.45-.03.91-.08,1.4ZM230.02,32.04c0-.82-.28-1.47-.84-1.95-.56-.48-1.26-.73-2.09-.73s-1.48.23-2.02.7c-.55.46-.89,1.13-1.02,1.98h5.97Z"></path><path class="cls-1" d="M248.11,25.56v3.96h6.39v3.69h-6.39v4.3h7.23v3.82h-12v-19.6h12v3.82h-7.23Z"></path><path class="cls-1" d="M267.65,41.33l-2.99-4.33-2.51,4.33h-5.16l5.14-7.96-5.28-7.62h5.36l2.99,4.3,2.51-4.3h5.16l-5.22,7.84,5.36,7.73h-5.36Z"></path><path class="cls-1" d="M274.89,29.3c.66-1.21,1.58-2.14,2.76-2.79,1.18-.65,2.54-.98,4.06-.98,1.95,0,3.59.51,4.9,1.54s2.17,2.47,2.58,4.33h-5.08c-.43-1.19-1.26-1.79-2.48-1.79-.88,0-1.57.34-2.09,1.02-.52.68-.78,1.65-.78,2.92s.26,2.24.78,2.92,1.22,1.02,2.09,1.02c1.23,0,2.06-.59,2.48-1.79h5.08c-.41,1.82-1.27,3.26-2.6,4.3s-2.95,1.56-4.89,1.56c-1.53,0-2.88-.33-4.06-.98-1.18-.65-2.1-1.58-2.76-2.79s-.99-2.62-.99-4.24.33-3.03.99-4.24Z"></path><path class="cls-1" d="M306.34,34.69h-10.8c.07.97.39,1.71.94,2.22.55.51,1.22.77,2.02.77,1.19,0,2.02-.5,2.48-1.51h5.08c-.26,1.02-.73,1.94-1.41,2.76-.68.82-1.53,1.46-2.55,1.93-1.02.47-2.17.7-3.43.7-1.53,0-2.88-.33-4.08-.98-1.19-.65-2.12-1.58-2.79-2.79s-1-2.62-1-4.24.33-3.03.99-4.24,1.59-2.14,2.78-2.79c1.19-.65,2.56-.98,4.1-.98s2.85.32,4.02.95c1.17.63,2.09,1.54,2.75,2.71.66,1.17.99,2.54.99,4.1,0,.45-.03.91-.08,1.4ZM301.53,32.04c0-.82-.28-1.47-.84-1.95-.56-.48-1.26-.73-2.09-.73s-1.48.23-2.02.7c-.55.46-.89,1.13-1.02,1.98h5.97Z"></path><path class="cls-1" d="M313.71,20.67v20.66h-4.77v-20.66h4.77Z"></path><path class="cls-1" d="M331.77,34.69h-10.8c.07.97.39,1.71.94,2.22.55.51,1.22.77,2.02.77,1.19,0,2.02-.5,2.48-1.51h5.08c-.26,1.02-.73,1.94-1.41,2.76-.68.82-1.53,1.46-2.55,1.93-1.02.47-2.17.7-3.43.7-1.53,0-2.88-.33-4.08-.98-1.19-.65-2.12-1.58-2.79-2.79s-1-2.62-1-4.24.33-3.03.99-4.24,1.59-2.14,2.78-2.79c1.19-.65,2.56-.98,4.1-.98s2.85.32,4.02.95c1.17.63,2.09,1.54,2.75,2.71.66,1.17.99,2.54.99,4.1,0,.45-.03.91-.08,1.4ZM326.96,32.04c0-.82-.28-1.47-.84-1.95-.56-.48-1.26-.73-2.09-.73s-1.48.23-2.02.7c-.55.46-.89,1.13-1.02,1.98h5.97Z"></path><path class="cls-1" d="M348.22,27.36c1.09,1.18,1.63,2.81,1.63,4.87v9.1h-4.75v-8.46c0-1.04-.27-1.85-.81-2.43-.54-.58-1.27-.87-2.18-.87s-1.64.29-2.18.87c-.54.58-.81,1.39-.81,2.43v8.46h-4.77v-15.58h4.77v2.07c.48-.69,1.13-1.23,1.95-1.63.82-.4,1.74-.6,2.76-.6,1.82,0,3.28.59,4.37,1.77Z"></path><path class="cls-1" d="M353.22,29.3c.66-1.21,1.58-2.14,2.76-2.79,1.18-.65,2.54-.98,4.06-.98,1.95,0,3.59.51,4.9,1.54s2.17,2.47,2.58,4.33h-5.08c-.43-1.19-1.26-1.79-2.48-1.79-.88,0-1.57.34-2.09,1.02-.52.68-.78,1.65-.78,2.92s.26,2.24.78,2.92,1.22,1.02,2.09,1.02c1.23,0,2.06-.59,2.48-1.79h5.08c-.41,1.82-1.27,3.26-2.6,4.3s-2.95,1.56-4.89,1.56c-1.53,0-2.88-.33-4.06-.98-1.18-.65-2.1-1.58-2.76-2.79s-.99-2.62-.99-4.24.33-3.03.99-4.24Z"></path><path class="cls-1" d="M370.42,23.4c-.53-.49-.8-1.1-.8-1.83s.27-1.36.8-1.86,1.21-.74,2.05-.74,1.49.25,2.02.74.8,1.11.8,1.86-.27,1.33-.8,1.83-1.21.74-2.02.74-1.52-.25-2.05-.74ZM374.84,25.75v15.58h-4.77v-15.58h4.77Z"></path><path class="cls-1" d="M378.26,29.3c.6-1.21,1.43-2.14,2.47-2.79,1.04-.65,2.21-.98,3.49-.98,1.1,0,2.06.22,2.89.67.83.45,1.47,1.03,1.91,1.76v-2.21h4.77v15.58h-4.77v-2.21c-.47.73-1.11,1.31-1.94,1.76-.83.45-1.79.67-2.89.67-1.27,0-2.42-.33-3.46-.99-1.04-.66-1.87-1.6-2.47-2.82-.6-1.22-.91-2.63-.91-4.23s.3-3,.91-4.21ZM388.03,30.72c-.66-.69-1.47-1.03-2.41-1.03s-1.75.34-2.41,1.02c-.66.68-.99,1.62-.99,2.81s.33,2.14.99,2.83c.66.7,1.47,1.05,2.41,1.05s1.75-.34,2.41-1.03.99-1.63.99-2.82-.33-2.13-.99-2.82Z"></path><path class="cls-1" d="M122.64,62.96v-9.92h2.8c.86,0,1.63.19,2.29.57s1.18.92,1.54,1.63c.36.7.54,1.51.55,2.43v.63c0,.94-.18,1.76-.54,2.46-.36.7-.88,1.25-1.55,1.62-.67.38-1.45.57-2.34.58h-2.75ZM123.94,54.1v7.78h1.38c1.01,0,1.79-.31,2.35-.94.56-.63.84-1.52.84-2.68v-.58c0-1.13-.26-2-.79-2.63s-1.28-.94-2.25-.95h-1.53Z"></path><path class="cls-1" d="M131.26,59.2c0-.72.14-1.37.43-1.95.28-.58.68-1.02,1.19-1.34s1.08-.47,1.73-.47c1,0,1.82.35,2.44,1.04s.93,1.62.93,2.77v.09c0,.72-.14,1.36-.41,1.93s-.67,1.01-1.18,1.33-1.1.48-1.76.48c-1,0-1.81-.35-2.43-1.04-.62-.7-.93-1.62-.93-2.76v-.09ZM132.52,59.35c0,.82.19,1.47.57,1.97s.89.74,1.52.74,1.15-.25,1.53-.75c.38-.5.57-1.21.57-2.11,0-.81-.19-1.46-.58-1.97-.38-.5-.89-.75-1.53-.75s-1.12.25-1.51.74c-.38.5-.57,1.2-.57,2.13Z"></path><path class="cls-1" d="M142.51,62.06c.45,0,.84-.14,1.18-.41.34-.27.52-.61.56-1.02h1.19c-.02.42-.17.83-.44,1.21-.27.38-.63.69-1.07.91-.45.23-.92.34-1.42.34-1,0-1.8-.33-2.4-1.01-.59-.67-.89-1.59-.89-2.75v-.21c0-.72.13-1.36.4-1.92.26-.56.64-.99,1.13-1.3.49-.31,1.08-.46,1.75-.46.83,0,1.51.25,2.06.74.55.5.84,1.14.88,1.93h-1.19c-.04-.48-.22-.87-.54-1.18s-.73-.46-1.2-.46c-.64,0-1.14.23-1.49.69-.35.46-.53,1.13-.53,2v.24c0,.85.17,1.5.52,1.96.35.46.85.69,1.5.69Z"></path><path class="cls-1" d="M149.92,63.09c-1,0-1.81-.33-2.44-.99-.63-.66-.94-1.53-.94-2.63v-.23c0-.73.14-1.38.42-1.96.28-.57.67-1.02,1.17-1.35.5-.32,1.05-.49,1.63-.49.96,0,1.7.32,2.24.95.53.63.8,1.54.8,2.71v.52h-5c.02.73.23,1.31.64,1.76.41.45.92.67,1.55.67.44,0,.82-.09,1.13-.27.31-.18.58-.42.81-.72l.77.6c-.62.95-1.54,1.42-2.78,1.42ZM149.76,56.48c-.51,0-.94.19-1.28.56s-.56.89-.64,1.56h3.69v-.1c-.04-.64-.21-1.14-.52-1.49s-.73-.53-1.25-.53Z"></path><path class="cls-1" d="M155.44,55.58l.04.93c.56-.71,1.3-1.06,2.21-1.06,1.56,0,2.34.88,2.36,2.64v4.87h-1.26v-4.88c0-.53-.13-.92-.36-1.18-.24-.25-.61-.38-1.11-.38-.41,0-.77.11-1.08.33-.31.22-.55.5-.72.86v5.25h-1.26v-7.37h1.19Z"></path><path class="cls-1" d="M164.91,62.06c.45,0,.84-.14,1.18-.41.34-.27.52-.61.56-1.02h1.19c-.02.42-.17.83-.44,1.21-.27.38-.63.69-1.07.91-.45.23-.92.34-1.42.34-1,0-1.8-.33-2.4-1.01-.59-.67-.89-1.59-.89-2.75v-.21c0-.72.13-1.36.4-1.92.26-.56.64-.99,1.13-1.3.49-.31,1.08-.46,1.75-.46.83,0,1.51.25,2.06.74.55.5.84,1.14.88,1.93h-1.19c-.04-.48-.22-.87-.54-1.18s-.73-.46-1.2-.46c-.64,0-1.14.23-1.49.69-.35.46-.53,1.13-.53,2v.24c0,.85.17,1.5.52,1.96.35.46.85.69,1.5.69Z"></path><path class="cls-1" d="M169.27,53.63c0-.2.06-.38.19-.52.12-.14.31-.21.56-.21s.43.07.56.21c.13.14.19.31.19.52s-.06.38-.19.51c-.13.14-.31.21-.56.21s-.43-.07-.56-.21c-.12-.14-.19-.31-.19-.51ZM170.63,62.96h-1.26v-7.37h1.26v7.37Z"></path><path class="cls-1" d="M177.2,62.96c-.07-.15-.13-.4-.18-.78-.59.61-1.29.91-2.1.91-.73,0-1.32-.21-1.79-.62s-.7-.93-.7-1.56c0-.77.29-1.36.88-1.79.58-.42,1.4-.64,2.46-.64h1.23v-.58c0-.44-.13-.79-.4-1.05-.26-.26-.65-.39-1.17-.39-.45,0-.83.11-1.13.34-.3.23-.46.5-.46.83h-1.27c0-.37.13-.72.39-1.07.26-.34.62-.61,1.06-.81.45-.2.94-.3,1.48-.3.85,0,1.52.21,2,.64.48.42.73,1.01.75,1.75v3.39c0,.68.09,1.22.26,1.62v.11h-1.32ZM175.11,62c.4,0,.77-.1,1.12-.31s.61-.47.77-.8v-1.51h-.99c-1.54,0-2.32.45-2.32,1.36,0,.4.13.7.4.93s.6.33,1.02.33Z"></path><path class="cls-1" d="M183.39,59.21c0-1.13.27-2.04.8-2.73s1.24-1.03,2.11-1.03,1.55.3,2.05.89v-3.84h1.26v10.47h-1.16l-.06-.79c-.5.62-1.21.93-2.11.93s-1.55-.35-2.09-1.05c-.54-.7-.81-1.61-.81-2.74v-.09ZM184.65,59.35c0,.84.17,1.49.52,1.96s.82.71,1.43.71c.8,0,1.38-.36,1.75-1.08v-3.39c-.38-.7-.96-1.04-1.74-1.04-.62,0-1.1.24-1.44.72-.35.48-.52,1.18-.52,2.12Z"></path><path class="cls-1" d="M194.62,63.09c-1,0-1.81-.33-2.44-.99-.63-.66-.94-1.53-.94-2.63v-.23c0-.73.14-1.38.42-1.96.28-.57.67-1.02,1.17-1.35.5-.32,1.05-.49,1.63-.49.96,0,1.7.32,2.24.95.53.63.8,1.54.8,2.71v.52h-5c.02.73.23,1.31.64,1.76.41.45.92.67,1.55.67.44,0,.82-.09,1.13-.27.31-.18.58-.42.81-.72l.77.6c-.62.95-1.54,1.42-2.78,1.42ZM194.47,56.48c-.51,0-.94.19-1.28.56s-.56.89-.64,1.56h3.69v-.1c-.04-.64-.21-1.14-.52-1.49s-.73-.53-1.25-.53Z"></path><path class="cls-1" d="M208.64,59.35c0,1.12-.26,2.03-.77,2.71-.51.69-1.21,1.03-2.09,1.03s-1.6-.28-2.11-.85v3.55h-1.26v-10.21h1.15l.06.82c.51-.64,1.23-.95,2.14-.95s1.59.33,2.1,1,.77,1.6.77,2.79v.12ZM207.38,59.21c0-.83-.18-1.49-.53-1.97-.35-.48-.84-.72-1.46-.72-.76,0-1.34.34-1.72,1.02v3.52c.38.67.95,1.01,1.73,1.01.6,0,1.08-.24,1.44-.72.36-.48.54-1.19.54-2.14Z"></path><path class="cls-1" d="M213.81,56.71c-.19-.03-.4-.05-.62-.05-.83,0-1.39.35-1.68,1.06v5.23h-1.26v-7.37h1.23l.02.85c.41-.66,1-.99,1.76-.99.25,0,.43.03.56.1v1.17Z"></path><path class="cls-1" d="M217.9,63.09c-1,0-1.81-.33-2.44-.99-.63-.66-.94-1.53-.94-2.63v-.23c0-.73.14-1.38.42-1.96.28-.57.67-1.02,1.17-1.35.5-.32,1.05-.49,1.63-.49.96,0,1.7.32,2.24.95.53.63.8,1.54.8,2.71v.52h-5c.02.73.23,1.31.64,1.76.41.45.92.67,1.55.67.44,0,.82-.09,1.13-.27.31-.18.58-.42.81-.72l.77.6c-.62.95-1.54,1.42-2.78,1.42ZM217.74,56.48c-.51,0-.94.19-1.28.56s-.56.89-.64,1.56h3.69v-.1c-.04-.64-.21-1.14-.52-1.49s-.73-.53-1.25-.53Z"></path><path class="cls-1" d="M221.93,59.21c0-1.15.27-2.06.8-2.74.53-.68,1.24-1.02,2.11-1.02s1.6.32,2.11.95l.06-.82h1.15v7.2c0,.95-.28,1.71-.85,2.26-.57.55-1.33.82-2.28.82-.53,0-1.05-.11-1.56-.34s-.9-.54-1.17-.93l.65-.76c.54.67,1.2,1,1.98,1,.61,0,1.09-.17,1.43-.52.34-.35.51-.83.51-1.46v-.63c-.5.58-1.19.87-2.06.87s-1.56-.35-2.1-1.04c-.53-.7-.8-1.64-.8-2.84ZM223.2,59.35c0,.83.17,1.48.51,1.96.34.47.82.71,1.43.71.79,0,1.38-.36,1.75-1.08v-3.37c-.39-.7-.97-1.06-1.74-1.06-.61,0-1.09.24-1.44.72-.35.48-.52,1.18-.52,2.12Z"></path><path class="cls-1" d="M233.63,56.71c-.19-.03-.4-.05-.62-.05-.83,0-1.39.35-1.68,1.06v5.23h-1.26v-7.37h1.23l.02.85c.41-.66,1-.99,1.76-.99.25,0,.43.03.56.1v1.17Z"></path><path class="cls-1" d="M239.07,62.96c-.07-.15-.13-.4-.18-.78-.59.61-1.29.91-2.1.91-.73,0-1.32-.21-1.79-.62s-.7-.93-.7-1.56c0-.77.29-1.36.88-1.79.58-.42,1.4-.64,2.46-.64h1.23v-.58c0-.44-.13-.79-.4-1.05-.26-.26-.65-.39-1.17-.39-.45,0-.83.11-1.13.34-.3.23-.46.5-.46.83h-1.27c0-.37.13-.72.39-1.07.26-.34.62-.61,1.06-.81.45-.2.94-.3,1.48-.3.85,0,1.52.21,2,.64.48.42.73,1.01.75,1.75v3.39c0,.68.09,1.22.26,1.62v.11h-1.32ZM236.97,62c.4,0,.77-.1,1.12-.31s.61-.47.77-.8v-1.51h-.99c-1.54,0-2.32.45-2.32,1.36,0,.4.13.7.4.93s.6.33,1.02.33Z"></path><path class="cls-1" d="M241.8,59.21c0-1.13.27-2.04.8-2.73s1.24-1.03,2.11-1.03,1.55.3,2.05.89v-3.84h1.26v10.47h-1.16l-.06-.79c-.5.62-1.21.93-2.11.93s-1.55-.35-2.09-1.05c-.54-.7-.81-1.61-.81-2.74v-.09ZM243.06,59.35c0,.84.17,1.49.52,1.96s.82.71,1.43.71c.8,0,1.38-.36,1.75-1.08v-3.39c-.38-.7-.96-1.04-1.74-1.04-.62,0-1.1.24-1.44.72-.35.48-.52,1.18-.52,2.12Z"></path><path class="cls-1" d="M249.64,59.2c0-.72.14-1.37.43-1.95.28-.58.68-1.02,1.19-1.34s1.08-.47,1.73-.47c1,0,1.82.35,2.44,1.04s.93,1.62.93,2.77v.09c0,.72-.14,1.36-.41,1.93s-.67,1.01-1.18,1.33-1.1.48-1.76.48c-1,0-1.81-.35-2.43-1.04-.62-.7-.93-1.62-.93-2.76v-.09ZM250.91,59.35c0,.82.19,1.47.57,1.97s.89.74,1.52.74,1.15-.25,1.53-.75c.38-.5.57-1.21.57-2.11,0-.81-.19-1.46-.58-1.97-.38-.5-.89-.75-1.53-.75s-1.12.25-1.51.74c-.38.5-.57,1.2-.57,2.13Z"></path><path class="cls-1" d="M261.44,57.99c0-.22.06-.4.19-.54.13-.15.32-.22.58-.22s.46.07.59.22c.13.15.2.33.2.54s-.07.39-.2.54c-.13.14-.33.21-.59.21s-.45-.07-.58-.21c-.13-.14-.19-.32-.19-.54Z"></path><path class="cls-1" d="M276.01,61.65c-.34.48-.81.84-1.41,1.08s-1.3.36-2.1.36-1.53-.19-2.15-.57c-.63-.38-1.11-.92-1.45-1.62-.34-.7-.52-1.51-.53-2.43v-.87c0-1.5.35-2.65,1.05-3.48.7-.82,1.68-1.23,2.94-1.23,1.04,0,1.87.26,2.5.79.63.53,1.02,1.28,1.16,2.25h-1.31c-.25-1.32-1.03-1.98-2.34-1.98-.88,0-1.54.31-1.99.92-.45.62-.68,1.51-.68,2.68v.81c0,1.11.25,2,.76,2.66s1.2.99,2.06.99c.49,0,.92-.05,1.29-.16.37-.11.67-.29.91-.55v-2.22h-2.3v-1.07h3.6v3.64Z"></path><path class="cls-1" d="M281.06,63.09c-1,0-1.81-.33-2.44-.99-.63-.66-.94-1.53-.94-2.63v-.23c0-.73.14-1.38.42-1.96.28-.57.67-1.02,1.17-1.35.5-.32,1.05-.49,1.63-.49.96,0,1.7.32,2.24.95.53.63.8,1.54.8,2.71v.52h-5c.02.73.23,1.31.64,1.76.41.45.92.67,1.55.67.44,0,.82-.09,1.13-.27.31-.18.58-.42.81-.72l.77.6c-.62.95-1.54,1.42-2.78,1.42ZM280.9,56.48c-.51,0-.94.19-1.28.56s-.56.89-.64,1.56h3.69v-.1c-.04-.64-.21-1.14-.52-1.49s-.73-.53-1.25-.53Z"></path><path class="cls-1" d="M289.68,61c0-.34-.13-.61-.38-.79-.26-.19-.7-.35-1.34-.49s-1.15-.3-1.52-.49c-.38-.19-.65-.42-.83-.68-.18-.26-.27-.58-.27-.94,0-.6.26-1.12.77-1.53.51-.42,1.16-.63,1.96-.63.84,0,1.51.22,2.03.65.52.43.78.98.78,1.66h-1.27c0-.34-.15-.64-.44-.89-.29-.25-.66-.38-1.11-.38s-.82.1-1.08.3c-.26.2-.39.46-.39.78,0,.3.12.53.36.69s.68.3,1.31.44c.63.14,1.14.31,1.53.5.39.2.68.43.87.71.19.28.28.61.28,1,0,.66-.26,1.19-.79,1.58-.53.4-1.21.6-2.05.6-.59,0-1.11-.11-1.57-.31-.45-.21-.81-.5-1.07-.88-.26-.38-.39-.78-.39-1.22h1.26c.02.42.19.76.51,1,.32.25.73.37,1.25.37.48,0,.86-.1,1.15-.29s.43-.45.43-.77Z"></path><path class="cls-1" d="M294.3,53.8v1.79h1.38v.97h-1.38v4.58c0,.29.06.52.18.67.12.15.33.22.63.22.15,0,.35-.03.6-.08v1.02c-.33.09-.65.14-.97.14-.56,0-.99-.17-1.27-.51-.29-.34-.43-.82-.43-1.45v-4.57h-1.34v-.97h1.34v-1.79h1.26Z"></path><path class="cls-1" d="M297.15,53.63c0-.2.06-.38.19-.52.12-.14.31-.21.56-.21s.43.07.56.21c.13.14.19.31.19.52s-.06.38-.19.51c-.13.14-.31.21-.56.21s-.43-.07-.56-.21c-.12-.14-.19-.31-.19-.51ZM298.52,62.96h-1.26v-7.37h1.26v7.37Z"></path><path class="cls-1" d="M300.2,59.2c0-.72.14-1.37.43-1.95.28-.58.68-1.02,1.19-1.34s1.08-.47,1.73-.47c1,0,1.82.35,2.44,1.04s.93,1.62.93,2.77v.09c0,.72-.14,1.36-.41,1.93s-.67,1.01-1.18,1.33-1.1.48-1.76.48c-1,0-1.81-.35-2.43-1.04-.62-.7-.93-1.62-.93-2.76v-.09ZM301.47,59.35c0,.82.19,1.47.57,1.97s.89.74,1.52.74,1.15-.25,1.53-.75c.38-.5.57-1.21.57-2.11,0-.81-.19-1.46-.58-1.97-.38-.5-.89-.75-1.53-.75s-1.12.25-1.51.74c-.38.5-.57,1.2-.57,2.13ZM304.12,52.49h1.53l-1.83,2h-1.02s1.32-2,1.32-2Z"></path><path class="cls-1" d="M309.69,55.58l.04.93c.56-.71,1.3-1.06,2.21-1.06,1.56,0,2.34.88,2.36,2.64v4.87h-1.26v-4.88c0-.53-.13-.92-.36-1.18-.24-.25-.61-.38-1.11-.38-.41,0-.77.11-1.08.33-.31.22-.55.5-.72.86v5.25h-1.26v-7.37h1.19Z"></path><path class="cls-1" d="M319.66,53.63c0-.2.06-.38.19-.52.12-.14.31-.21.56-.21s.43.07.56.21c.13.14.19.31.19.52s-.06.38-.19.51c-.13.14-.31.21-.56.21s-.43-.07-.56-.21c-.12-.14-.19-.31-.19-.51ZM321.02,62.96h-1.26v-7.37h1.26v7.37Z"></path><path class="cls-1" d="M324.23,55.58l.04.93c.56-.71,1.3-1.06,2.21-1.06,1.56,0,2.34.88,2.36,2.64v4.87h-1.26v-4.88c0-.53-.13-.92-.36-1.18-.24-.25-.61-.38-1.11-.38-.41,0-.77.11-1.08.33-.31.22-.55.5-.72.86v5.25h-1.26v-7.37h1.19Z"></path><path class="cls-1" d="M335.03,61c0-.34-.13-.61-.38-.79-.26-.19-.7-.35-1.34-.49s-1.15-.3-1.52-.49c-.38-.19-.65-.42-.83-.68-.18-.26-.27-.58-.27-.94,0-.6.26-1.12.77-1.53.51-.42,1.16-.63,1.96-.63.84,0,1.51.22,2.03.65.52.43.78.98.78,1.66h-1.27c0-.34-.15-.64-.44-.89-.29-.25-.66-.38-1.11-.38s-.82.1-1.08.3c-.26.2-.39.46-.39.78,0,.3.12.53.36.69s.68.3,1.31.44c.63.14,1.14.31,1.53.5.39.2.68.43.87.71.19.28.28.61.28,1,0,.66-.26,1.19-.79,1.58-.53.4-1.21.6-2.05.6-.59,0-1.11-.11-1.57-.31-.45-.21-.81-.5-1.07-.88-.26-.38-.39-.78-.39-1.22h1.26c.02.42.19.76.51,1,.32.25.73.37,1.25.37.48,0,.86-.1,1.15-.29s.43-.45.43-.77Z"></path><path class="cls-1" d="M339.65,53.8v1.79h1.38v.97h-1.38v4.58c0,.29.06.52.18.67.12.15.33.22.63.22.15,0,.35-.03.6-.08v1.02c-.33.09-.65.14-.97.14-.56,0-.99-.17-1.27-.51-.29-.34-.43-.82-.43-1.45v-4.57h-1.34v-.97h1.34v-1.79h1.26Z"></path><path class="cls-1" d="M342.5,53.63c0-.2.06-.38.19-.52.12-.14.31-.21.56-.21s.43.07.56.21c.13.14.19.31.19.52s-.06.38-.19.51c-.13.14-.31.21-.56.21s-.43-.07-.56-.21c-.12-.14-.19-.31-.19-.51ZM343.86,62.96h-1.26v-7.37h1.26v7.37Z"></path><path class="cls-1" d="M347.59,53.8v1.79h1.38v.97h-1.38v4.58c0,.29.06.52.18.67.12.15.33.22.63.22.15,0,.35-.03.6-.08v1.02c-.33.09-.65.14-.97.14-.56,0-.99-.17-1.27-.51-.29-.34-.43-.82-.43-1.45v-4.57h-1.34v-.97h1.34v-1.79h1.26Z"></path><path class="cls-1" d="M354.99,62.23c-.49.58-1.21.87-2.16.87-.79,0-1.38-.23-1.8-.69-.41-.46-.62-1.13-.62-2.03v-4.8h1.26v4.76c0,1.12.45,1.68,1.36,1.68.96,0,1.6-.36,1.92-1.08v-5.36h1.26v7.37h-1.2l-.03-.73Z"></path><path class="cls-1" d="M361.09,62.06c.45,0,.84-.14,1.18-.41.34-.27.52-.61.56-1.02h1.19c-.02.42-.17.83-.44,1.21-.27.38-.63.69-1.07.91-.45.23-.92.34-1.42.34-1,0-1.8-.33-2.4-1.01-.59-.67-.89-1.59-.89-2.75v-.21c0-.72.13-1.36.4-1.92.26-.56.64-.99,1.13-1.3.49-.31,1.08-.46,1.75-.46.83,0,1.51.25,2.06.74.55.5.84,1.14.88,1.93h-1.19c-.04-.48-.22-.87-.54-1.18s-.73-.46-1.2-.46c-.64,0-1.14.23-1.49.69-.35.46-.53,1.13-.53,2v.24c0,.85.17,1.5.52,1.96.35.46.85.69,1.5.69Z"></path><path class="cls-1" d="M365.45,53.63c0-.2.06-.38.19-.52.12-.14.31-.21.56-.21s.43.07.56.21c.13.14.19.31.19.52s-.06.38-.19.51c-.13.14-.31.21-.56.21s-.43-.07-.56-.21c-.12-.14-.19-.31-.19-.51ZM366.81,62.96h-1.26v-7.37h1.26v7.37Z"></path><path class="cls-1" d="M368.49,59.2c0-.72.14-1.37.43-1.95.28-.58.68-1.02,1.19-1.34s1.08-.47,1.73-.47c1,0,1.82.35,2.44,1.04s.93,1.62.93,2.77v.09c0,.72-.14,1.36-.41,1.93s-.67,1.01-1.18,1.33-1.1.48-1.76.48c-1,0-1.81-.35-2.43-1.04-.62-.7-.93-1.62-.93-2.76v-.09ZM369.76,59.35c0,.82.19,1.47.57,1.97s.89.74,1.52.74,1.15-.25,1.53-.75c.38-.5.57-1.21.57-2.11,0-.81-.19-1.46-.58-1.97-.38-.5-.89-.75-1.53-.75s-1.12.25-1.51.74c-.38.5-.57,1.2-.57,2.13Z"></path><path class="cls-1" d="M377.98,55.58l.04.93c.56-.71,1.3-1.06,2.21-1.06,1.56,0,2.34.88,2.36,2.64v4.87h-1.26v-4.88c0-.53-.13-.92-.36-1.18-.24-.25-.61-.38-1.11-.38-.41,0-.77.11-1.08.33-.31.22-.55.5-.72.86v5.25h-1.26v-7.37h1.19Z"></path><path class="cls-1" d="M389.04,62.96c-.07-.15-.13-.4-.18-.78-.59.61-1.29.91-2.1.91-.73,0-1.32-.21-1.79-.62s-.7-.93-.7-1.56c0-.77.29-1.36.88-1.79.58-.42,1.4-.64,2.46-.64h1.23v-.58c0-.44-.13-.79-.4-1.05-.26-.26-.65-.39-1.17-.39-.45,0-.83.11-1.13.34-.3.23-.46.5-.46.83h-1.27c0-.37.13-.72.39-1.07.26-.34.62-.61,1.06-.81.45-.2.94-.3,1.48-.3.85,0,1.52.21,2,.64.48.42.73,1.01.75,1.75v3.39c0,.68.09,1.22.26,1.62v.11h-1.32ZM386.95,62c.4,0,.77-.1,1.12-.31s.61-.47.77-.8v-1.51h-.99c-1.54,0-2.32.45-2.32,1.36,0,.4.13.7.4.93s.6.33,1.02.33Z"></path><path class="cls-1" d="M393.45,62.96h-1.26v-10.47h1.26v10.47Z"></path><path class="cls-1" d="M122.64,79.71v-9.92h2.8c.86,0,1.63.19,2.29.57s1.18.92,1.54,1.63c.36.7.54,1.51.55,2.43v.63c0,.94-.18,1.76-.54,2.46-.36.7-.88,1.25-1.55,1.62-.67.38-1.45.57-2.34.58h-2.75ZM123.94,70.85v7.78h1.38c1.01,0,1.79-.31,2.35-.94.56-.63.84-1.52.84-2.68v-.58c0-1.13-.26-2-.79-2.63s-1.28-.94-2.25-.95h-1.53Z"></path><path class="cls-1" d="M131.26,75.95c0-.72.14-1.37.43-1.95.28-.58.68-1.02,1.19-1.34s1.08-.47,1.73-.47c1,0,1.82.35,2.44,1.04s.93,1.62.93,2.77v.09c0,.72-.14,1.36-.41,1.93s-.67,1.01-1.18,1.33-1.1.48-1.76.48c-1,0-1.81-.35-2.43-1.04-.62-.7-.93-1.62-.93-2.76v-.09ZM132.52,76.1c0,.82.19,1.47.57,1.97s.89.74,1.52.74,1.15-.25,1.53-.75c.38-.5.57-1.21.57-2.11,0-.81-.19-1.46-.58-1.97-.38-.5-.89-.75-1.53-.75s-1.12.25-1.51.74c-.38.5-.57,1.2-.57,2.13Z"></path><path class="cls-1" d="M142.51,78.81c.45,0,.84-.14,1.18-.41.34-.27.52-.61.56-1.02h1.19c-.02.42-.17.83-.44,1.21-.27.38-.63.69-1.07.91-.45.23-.92.34-1.42.34-1,0-1.8-.33-2.4-1.01-.59-.67-.89-1.59-.89-2.75v-.21c0-.72.13-1.36.4-1.92.26-.56.64-.99,1.13-1.3.49-.31,1.08-.46,1.75-.46.83,0,1.51.25,2.06.74.55.5.84,1.14.88,1.93h-1.19c-.04-.48-.22-.87-.54-1.18s-.73-.46-1.2-.46c-.64,0-1.14.23-1.49.69-.35.46-.53,1.13-.53,2v.24c0,.85.17,1.5.52,1.96.35.46.85.69,1.5.69Z"></path><path class="cls-1" d="M149.92,79.84c-1,0-1.81-.33-2.44-.99-.63-.66-.94-1.53-.94-2.63v-.23c0-.73.14-1.38.42-1.96.28-.57.67-1.02,1.17-1.35.5-.32,1.05-.49,1.63-.49.96,0,1.7.32,2.24.95.53.63.8,1.54.8,2.71v.52h-5c.02.73.23,1.31.64,1.76.41.45.92.67,1.55.67.44,0,.82-.09,1.13-.27.31-.18.58-.42.81-.72l.77.6c-.62.95-1.54,1.42-2.78,1.42ZM149.76,73.23c-.51,0-.94.19-1.28.56s-.56.89-.64,1.56h3.69v-.1c-.04-.64-.21-1.14-.52-1.49s-.73-.53-1.25-.53Z"></path><path class="cls-1" d="M155.44,72.33l.04.93c.56-.71,1.3-1.06,2.21-1.06,1.56,0,2.34.88,2.36,2.64v4.87h-1.26v-4.88c0-.53-.13-.92-.36-1.18-.24-.25-.61-.38-1.11-.38-.41,0-.77.11-1.08.33-.31.22-.55.5-.72.86v5.25h-1.26v-7.37h1.19Z"></path><path class="cls-1" d="M164.91,78.81c.45,0,.84-.14,1.18-.41.34-.27.52-.61.56-1.02h1.19c-.02.42-.17.83-.44,1.21-.27.38-.63.69-1.07.91-.45.23-.92.34-1.42.34-1,0-1.8-.33-2.4-1.01-.59-.67-.89-1.59-.89-2.75v-.21c0-.72.13-1.36.4-1.92.26-.56.64-.99,1.13-1.3.49-.31,1.08-.46,1.75-.46.83,0,1.51.25,2.06.74.55.5.84,1.14.88,1.93h-1.19c-.04-.48-.22-.87-.54-1.18s-.73-.46-1.2-.46c-.64,0-1.14.23-1.49.69-.35.46-.53,1.13-.53,2v.24c0,.85.17,1.5.52,1.96.35.46.85.69,1.5.69Z"></path><path class="cls-1" d="M169.27,70.38c0-.2.06-.38.19-.52.12-.14.31-.21.56-.21s.43.07.56.21c.13.14.19.31.19.52s-.06.38-.19.51c-.13.14-.31.21-.56.21s-.43-.07-.56-.21c-.12-.14-.19-.31-.19-.51ZM170.63,79.71h-1.26v-7.37h1.26v7.37Z"></path><path class="cls-1" d="M177.2,79.71c-.07-.15-.13-.4-.18-.78-.59.61-1.29.91-2.1.91-.73,0-1.32-.21-1.79-.62s-.7-.93-.7-1.56c0-.77.29-1.36.88-1.79.58-.42,1.4-.64,2.46-.64h1.23v-.58c0-.44-.13-.79-.4-1.05-.26-.26-.65-.39-1.17-.39-.45,0-.83.11-1.13.34-.3.23-.46.5-.46.83h-1.27c0-.37.13-.72.39-1.07.26-.34.62-.61,1.06-.81.45-.2.94-.3,1.48-.3.85,0,1.52.21,2,.64.48.42.73,1.01.75,1.75v3.39c0,.68.09,1.22.26,1.62v.11h-1.32ZM175.11,78.74c.4,0,.77-.1,1.12-.31s.61-.47.77-.8v-1.51h-.99c-1.54,0-2.32.45-2.32,1.36,0,.4.13.7.4.93s.6.33,1.02.33Z"></path><path class="cls-1" d="M183.39,75.96c0-1.13.27-2.04.8-2.73s1.24-1.03,2.11-1.03,1.55.3,2.05.89v-3.84h1.26v10.47h-1.16l-.06-.79c-.5.62-1.21.93-2.11.93s-1.55-.35-2.09-1.05c-.54-.7-.81-1.61-.81-2.74v-.09ZM184.65,76.1c0,.84.17,1.49.52,1.96s.82.71,1.43.71c.8,0,1.38-.36,1.75-1.08v-3.39c-.38-.7-.96-1.04-1.74-1.04-.62,0-1.1.24-1.44.72-.35.48-.52,1.18-.52,2.12Z"></path><path class="cls-1" d="M194.62,79.84c-1,0-1.81-.33-2.44-.99-.63-.66-.94-1.53-.94-2.63v-.23c0-.73.14-1.38.42-1.96.28-.57.67-1.02,1.17-1.35.5-.32,1.05-.49,1.63-.49.96,0,1.7.32,2.24.95.53.63.8,1.54.8,2.71v.52h-5c.02.73.23,1.31.64,1.76.41.45.92.67,1.55.67.44,0,.82-.09,1.13-.27.31-.18.58-.42.81-.72l.77.6c-.62.95-1.54,1.42-2.78,1.42ZM194.47,73.23c-.51,0-.94.19-1.28.56s-.56.89-.64,1.56h3.69v-.1c-.04-.64-.21-1.14-.52-1.49s-.73-.53-1.25-.53Z"></path><path class="cls-1" d="M208.64,76.1c0,1.12-.26,2.03-.77,2.71-.51.69-1.21,1.03-2.09,1.03s-1.6-.28-2.11-.85v3.55h-1.26v-10.21h1.15l.06.82c.51-.64,1.23-.95,2.14-.95s1.59.33,2.1,1,.77,1.6.77,2.79v.12ZM207.38,75.96c0-.83-.18-1.49-.53-1.97-.35-.48-.84-.72-1.46-.72-.76,0-1.34.34-1.72,1.02v3.52c.38.67.95,1.01,1.73,1.01.6,0,1.08-.24,1.44-.72.36-.48.54-1.19.54-2.14Z"></path><path class="cls-1" d="M209.91,75.95c0-.72.14-1.37.43-1.95.28-.58.68-1.02,1.19-1.34s1.08-.47,1.73-.47c1,0,1.82.35,2.44,1.04s.93,1.62.93,2.77v.09c0,.72-.14,1.36-.41,1.93s-.67,1.01-1.18,1.33-1.1.48-1.76.48c-1,0-1.81-.35-2.43-1.04-.62-.7-.93-1.62-.93-2.76v-.09ZM211.18,76.1c0,.82.19,1.47.57,1.97s.89.74,1.52.74,1.15-.25,1.53-.75c.38-.5.57-1.21.57-2.11,0-.81-.19-1.46-.58-1.97-.38-.5-.89-.75-1.53-.75s-1.12.25-1.51.74c-.38.5-.57,1.2-.57,2.13Z"></path><path class="cls-1" d="M222.5,77.75c0-.34-.13-.61-.38-.79-.26-.19-.7-.35-1.34-.49s-1.15-.3-1.52-.49c-.38-.19-.65-.42-.83-.68-.18-.26-.27-.58-.27-.94,0-.6.26-1.12.77-1.53.51-.42,1.16-.63,1.96-.63.84,0,1.51.22,2.03.65.52.43.78.98.78,1.66h-1.27c0-.34-.15-.64-.44-.89-.29-.25-.66-.38-1.11-.38s-.82.1-1.08.3c-.26.2-.39.46-.39.78,0,.3.12.53.36.69s.68.3,1.31.44c.63.14,1.14.31,1.53.5.39.2.68.43.87.71.19.28.28.61.28,1,0,.66-.26,1.19-.79,1.58-.53.4-1.21.6-2.05.6-.59,0-1.11-.11-1.57-.31-.45-.21-.81-.5-1.07-.88-.26-.38-.39-.78-.39-1.22h1.26c.02.42.19.76.51,1,.32.25.73.37,1.25.37.48,0,.86-.1,1.15-.29s.43-.45.43-.77Z"></path><path class="cls-1" d="M227.11,70.54v1.79h1.38v.97h-1.38v4.58c0,.29.06.52.18.67.12.15.33.22.63.22.15,0,.35-.03.6-.08v1.02c-.33.09-.65.14-.97.14-.56,0-.99-.17-1.27-.51-.29-.34-.43-.82-.43-1.45v-4.57h-1.34v-.97h1.34v-1.79h1.26Z"></path><path class="cls-1" d="M229.66,75.96c0-1.15.27-2.06.8-2.74.53-.68,1.24-1.02,2.11-1.02s1.6.32,2.11.95l.06-.82h1.15v7.2c0,.95-.28,1.71-.85,2.26-.57.55-1.33.82-2.28.82-.53,0-1.05-.11-1.56-.34s-.9-.54-1.17-.93l.65-.76c.54.67,1.2,1,1.98,1,.61,0,1.09-.17,1.43-.52.34-.35.51-.83.51-1.46v-.63c-.5.58-1.19.87-2.06.87s-1.56-.35-2.1-1.04c-.53-.7-.8-1.64-.8-2.84ZM230.93,76.1c0,.83.17,1.48.51,1.96.34.47.82.71,1.43.71.79,0,1.38-.36,1.75-1.08v-3.37c-.39-.7-.97-1.06-1.74-1.06-.61,0-1.09.24-1.44.72-.35.48-.52,1.18-.52,2.12Z"></path><path class="cls-1" d="M241.36,73.46c-.19-.03-.4-.05-.62-.05-.83,0-1.39.35-1.68,1.06v5.23h-1.26v-7.37h1.23l.02.85c.41-.66,1-.99,1.76-.99.25,0,.43.03.56.1v1.17Z"></path><path class="cls-1" d="M246.8,79.71c-.07-.15-.13-.4-.18-.78-.59.61-1.29.91-2.1.91-.73,0-1.32-.21-1.79-.62s-.7-.93-.7-1.56c0-.77.29-1.36.88-1.79.58-.42,1.4-.64,2.46-.64h1.23v-.58c0-.44-.13-.79-.4-1.05-.26-.26-.65-.39-1.17-.39-.45,0-.83.11-1.13.34-.3.23-.46.5-.46.83h-1.27c0-.37.13-.72.39-1.07.26-.34.62-.61,1.06-.81.45-.2.94-.3,1.48-.3.85,0,1.52.21,2,.64.48.42.73,1.01.75,1.75v3.39c0,.68.09,1.22.26,1.62v.11h-1.32ZM244.7,78.74c.4,0,.77-.1,1.12-.31s.61-.47.77-.8v-1.51h-.99c-1.54,0-2.32.45-2.32,1.36,0,.4.13.7.4.93s.6.33,1.02.33Z"></path><path class="cls-1" d="M249.53,75.96c0-1.13.27-2.04.8-2.73s1.24-1.03,2.11-1.03,1.55.3,2.05.89v-3.84h1.26v10.47h-1.16l-.06-.79c-.5.62-1.21.93-2.11.93s-1.55-.35-2.09-1.05c-.54-.7-.81-1.61-.81-2.74v-.09ZM250.79,76.1c0,.84.17,1.49.52,1.96s.82.71,1.43.71c.8,0,1.38-.36,1.75-1.08v-3.39c-.38-.7-.96-1.04-1.74-1.04-.62,0-1.1.24-1.44.72-.35.48-.52,1.18-.52,2.12Z"></path><path class="cls-1" d="M257.37,75.95c0-.72.14-1.37.43-1.95.28-.58.68-1.02,1.19-1.34s1.08-.47,1.73-.47c1,0,1.82.35,2.44,1.04s.93,1.62.93,2.77v.09c0,.72-.14,1.36-.41,1.93s-.67,1.01-1.18,1.33-1.1.48-1.76.48c-1,0-1.81-.35-2.43-1.04-.62-.7-.93-1.62-.93-2.76v-.09ZM258.64,76.1c0,.82.19,1.47.57,1.97s.89.74,1.52.74,1.15-.25,1.53-.75c.38-.5.57-1.21.57-2.11,0-.81-.19-1.46-.58-1.97-.38-.5-.89-.75-1.53-.75s-1.12.25-1.51.74c-.38.5-.57,1.2-.57,2.13Z"></path><path class="cls-1" d="M269.17,74.74c0-.22.06-.4.19-.54.13-.15.32-.22.58-.22s.46.07.59.22c.13.15.2.33.2.54s-.07.39-.2.54c-.13.14-.33.21-.59.21s-.45-.07-.58-.21c-.13-.14-.19-.32-.19-.54Z"></path><path class="cls-1" d="M277.82,79.71h-1.31v-9.92h1.31v9.92Z"></path><path class="cls-1" d="M281.21,72.33l.04.93c.56-.71,1.3-1.06,2.21-1.06,1.56,0,2.34.88,2.36,2.64v4.87h-1.26v-4.88c0-.53-.13-.92-.36-1.18-.24-.25-.61-.38-1.11-.38-.41,0-.77.11-1.08.33-.31.22-.55.5-.72.86v5.25h-1.26v-7.37h1.19Z"></path><path class="cls-1" d="M290.15,77.99l1.83-5.66h1.29l-2.64,7.37h-.96l-2.67-7.37h1.29l1.87,5.66Z"></path><path class="cls-1" d="M297.45,79.84c-1,0-1.81-.33-2.44-.99-.63-.66-.94-1.53-.94-2.63v-.23c0-.73.14-1.38.42-1.96.28-.57.67-1.02,1.17-1.35.5-.32,1.05-.49,1.63-.49.96,0,1.7.32,2.24.95.53.63.8,1.54.8,2.71v.52h-5c.02.73.23,1.31.64,1.76.41.45.92.67,1.55.67.44,0,.82-.09,1.13-.27.31-.18.58-.42.81-.72l.77.6c-.62.95-1.54,1.42-2.78,1.42ZM297.29,73.23c-.51,0-.94.19-1.28.56s-.56.89-.64,1.56h3.69v-.1c-.04-.64-.21-1.14-.52-1.49s-.73-.53-1.25-.53Z"></path><path class="cls-1" d="M306.07,77.75c0-.34-.13-.61-.38-.79-.26-.19-.7-.35-1.34-.49s-1.15-.3-1.52-.49c-.38-.19-.65-.42-.83-.68-.18-.26-.27-.58-.27-.94,0-.6.26-1.12.77-1.53.51-.42,1.16-.63,1.96-.63.84,0,1.51.22,2.03.65.52.43.78.98.78,1.66h-1.27c0-.34-.15-.64-.44-.89-.29-.25-.66-.38-1.11-.38s-.82.1-1.08.3c-.26.2-.39.46-.39.78,0,.3.12.53.36.69s.68.3,1.31.44c.63.14,1.14.31,1.53.5.39.2.68.43.87.71.19.28.28.61.28,1,0,.66-.26,1.19-.79,1.58-.53.4-1.21.6-2.05.6-.59,0-1.11-.11-1.57-.31-.45-.21-.81-.5-1.07-.88-.26-.38-.39-.78-.39-1.22h1.26c.02.42.19.76.51,1,.32.25.73.37,1.25.37.48,0,.86-.1,1.15-.29s.43-.45.43-.77Z"></path><path class="cls-1" d="M310.69,70.54v1.79h1.38v.97h-1.38v4.58c0,.29.06.52.18.67.12.15.33.22.63.22.15,0,.35-.03.6-.08v1.02c-.33.09-.65.14-.97.14-.56,0-.99-.17-1.27-.51-.29-.34-.43-.82-.43-1.45v-4.57h-1.34v-.97h1.34v-1.79h1.26Z"></path><path class="cls-1" d="M313.54,70.38c0-.2.06-.38.19-.52.12-.14.31-.21.56-.21s.43.07.56.21c.13.14.19.31.19.52s-.06.38-.19.51c-.13.14-.31.21-.56.21s-.43-.07-.56-.21c-.12-.14-.19-.31-.19-.51ZM314.91,79.71h-1.26v-7.37h1.26v7.37Z"></path><path class="cls-1" d="M316.62,75.96c0-1.15.27-2.06.8-2.74.53-.68,1.24-1.02,2.11-1.02s1.6.32,2.11.95l.06-.82h1.15v7.2c0,.95-.28,1.71-.85,2.26-.57.55-1.33.82-2.28.82-.53,0-1.05-.11-1.56-.34s-.9-.54-1.17-.93l.65-.76c.54.67,1.2,1,1.98,1,.61,0,1.09-.17,1.43-.52.34-.35.51-.83.51-1.46v-.63c-.5.58-1.19.87-2.06.87s-1.56-.35-2.1-1.04c-.53-.7-.8-1.64-.8-2.84ZM317.89,76.1c0,.83.17,1.48.51,1.96.34.47.82.71,1.43.71.79,0,1.38-.36,1.75-1.08v-3.37c-.39-.7-.97-1.06-1.74-1.06-.61,0-1.09.24-1.44.72-.35.48-.52,1.18-.52,2.12Z"></path><path class="cls-1" d="M329.31,79.71c-.07-.15-.13-.4-.18-.78-.59.61-1.29.91-2.1.91-.73,0-1.32-.21-1.79-.62s-.7-.93-.7-1.56c0-.77.29-1.36.88-1.79.58-.42,1.4-.64,2.46-.64h1.23v-.58c0-.44-.13-.79-.4-1.05-.26-.26-.65-.39-1.17-.39-.45,0-.83.11-1.13.34-.3.23-.46.5-.46.83h-1.27c0-.37.13-.72.39-1.07.26-.34.62-.61,1.06-.81.45-.2.94-.3,1.48-.3.85,0,1.52.21,2,.64.48.42.73,1.01.75,1.75v3.39c0,.68.09,1.22.26,1.62v.11h-1.32ZM327.22,78.74c.4,0,.77-.1,1.12-.31s.61-.47.77-.8v-1.51h-.99c-1.54,0-2.32.45-2.32,1.36,0,.4.13.7.4.93s.6.33,1.02.33Z"></path><path class="cls-1" d="M335.3,78.81c.45,0,.84-.14,1.18-.41.34-.27.52-.61.56-1.02h1.19c-.02.42-.17.83-.44,1.21-.27.38-.63.69-1.07.91-.45.23-.92.34-1.42.34-1,0-1.8-.33-2.4-1.01-.59-.67-.89-1.59-.89-2.75v-.21c0-.72.13-1.36.4-1.92.26-.56.64-.99,1.13-1.3.49-.31,1.08-.46,1.75-.46.83,0,1.51.25,2.06.74.55.5.84,1.14.88,1.93h-1.19c-.04-.48-.22-.87-.54-1.18s-.73-.46-1.2-.46c-.64,0-1.14.23-1.49.69-.35.46-.53,1.13-.53,2v.24c0,.85.17,1.5.52,1.96.35.46.85.69,1.5.69Z"></path><path class="cls-1" d="M339.66,70.38c0-.2.06-.38.19-.52.12-.14.31-.21.56-.21s.43.07.56.21c.13.14.19.31.19.52s-.06.38-.19.51c-.13.14-.31.21-.56.21s-.43-.07-.56-.21c-.12-.14-.19-.31-.19-.51ZM341.02,79.71h-1.26v-7.37h1.26v7.37Z"></path><path class="cls-1" d="M342.71,75.95c0-.72.14-1.37.43-1.95.28-.58.68-1.02,1.19-1.34s1.08-.47,1.73-.47c1,0,1.82.35,2.44,1.04s.93,1.62.93,2.77v.09c0,.72-.14,1.36-.41,1.93s-.67,1.01-1.18,1.33-1.1.48-1.76.48c-1,0-1.81-.35-2.43-1.04-.62-.7-.93-1.62-.93-2.76v-.09ZM343.97,76.1c0,.82.19,1.47.57,1.97s.89.74,1.52.74,1.15-.25,1.53-.75c.38-.5.57-1.21.57-2.11,0-.81-.19-1.46-.58-1.97-.38-.5-.89-.75-1.53-.75s-1.12.25-1.51.74c-.38.5-.57,1.2-.57,2.13ZM346.63,69.24h1.53l-1.83,2h-1.02s1.32-2,1.32-2Z"></path><path class="cls-1" d="M352.19,72.33l.04.93c.56-.71,1.3-1.06,2.21-1.06,1.56,0,2.34.88,2.36,2.64v4.87h-1.26v-4.88c0-.53-.13-.92-.36-1.18-.24-.25-.61-.38-1.11-.38-.41,0-.77.11-1.08.33-.31.22-.55.5-.72.86v5.25h-1.26v-7.37h1.19Z"></path><path class="cls-1" d="M125.92,94.72l2.84-8.18h1.43l-3.68,9.92h-1.16l-3.67-9.92h1.42l2.82,8.18Z"></path><path class="cls-1" d="M131.32,87.12c0-.2.06-.38.19-.52.12-.14.31-.21.56-.21s.43.07.56.21c.13.14.19.31.19.52s-.06.38-.19.51c-.13.14-.31.21-.56.21s-.43-.07-.56-.21c-.12-.14-.19-.31-.19-.51ZM132.69,96.45h-1.26v-7.37h1.26v7.37Z"></path><path class="cls-1" d="M135.9,89.08l.04.93c.56-.71,1.3-1.06,2.21-1.06,1.56,0,2.34.88,2.36,2.64v4.87h-1.26v-4.88c0-.53-.13-.92-.36-1.18-.24-.25-.61-.38-1.11-.38-.41,0-.77.11-1.08.33-.31.22-.55.5-.72.86v5.25h-1.26v-7.37h1.19Z"></path><path class="cls-1" d="M145.36,95.56c.45,0,.84-.14,1.18-.41.34-.27.52-.61.56-1.02h1.19c-.02.42-.17.83-.44,1.21-.27.38-.63.69-1.07.91-.45.23-.92.34-1.42.34-1,0-1.8-.33-2.4-1.01-.59-.67-.89-1.59-.89-2.75v-.21c0-.72.13-1.36.4-1.92.26-.56.64-.99,1.13-1.3.49-.31,1.08-.46,1.75-.46.83,0,1.51.25,2.06.74.55.5.84,1.14.88,1.93h-1.19c-.04-.48-.22-.87-.54-1.18s-.73-.46-1.2-.46c-.64,0-1.14.23-1.49.69-.35.46-.53,1.13-.53,2v.24c0,.85.17,1.5.52,1.96.35.46.85.69,1.5.69Z"></path><path class="cls-1" d="M154.26,95.72c-.49.58-1.21.87-2.16.87-.79,0-1.38-.23-1.8-.69-.41-.46-.62-1.13-.62-2.03v-4.8h1.26v4.76c0,1.12.45,1.68,1.36,1.68.96,0,1.6-.36,1.92-1.08v-5.36h1.26v7.37h-1.2l-.03-.73Z"></path><path class="cls-1" d="M158.78,96.45h-1.26v-10.47h1.26v10.47Z"></path><path class="cls-1" d="M165.35,96.45c-.07-.15-.13-.4-.18-.78-.59.61-1.29.91-2.1.91-.73,0-1.32-.21-1.79-.62s-.7-.93-.7-1.56c0-.77.29-1.36.88-1.79.58-.42,1.4-.64,2.46-.64h1.23v-.58c0-.44-.13-.79-.4-1.05-.26-.26-.65-.39-1.17-.39-.45,0-.83.11-1.13.34-.3.23-.46.5-.46.83h-1.27c0-.37.13-.72.39-1.07.26-.34.62-.61,1.06-.81.45-.2.94-.3,1.48-.3.85,0,1.52.21,2,.64.48.42.73,1.01.75,1.75v3.39c0,.68.09,1.22.26,1.62v.11h-1.32ZM163.25,95.49c.4,0,.77-.1,1.12-.31s.61-.47.77-.8v-1.51h-.99c-1.54,0-2.32.45-2.32,1.36,0,.4.13.7.4.93s.6.33,1.02.33Z"></path><path class="cls-1" d="M171.34,95.56c.45,0,.84-.14,1.18-.41.34-.27.52-.61.56-1.02h1.19c-.02.42-.17.83-.44,1.21-.27.38-.63.69-1.07.91-.45.23-.92.34-1.42.34-1,0-1.8-.33-2.4-1.01-.59-.67-.89-1.59-.89-2.75v-.21c0-.72.13-1.36.4-1.92.26-.56.64-.99,1.13-1.3.49-.31,1.08-.46,1.75-.46.83,0,1.51.25,2.06.74.55.5.84,1.14.88,1.93h-1.19c-.04-.48-.22-.87-.54-1.18s-.73-.46-1.2-.46c-.64,0-1.14.23-1.49.69-.35.46-.53,1.13-.53,2v.24c0,.85.17,1.5.52,1.96.35.46.85.69,1.5.69Z"></path><path class="cls-1" d="M175.7,87.12c0-.2.06-.38.19-.52.12-.14.31-.21.56-.21s.43.07.56.21c.13.14.19.31.19.52s-.06.38-.19.51c-.13.14-.31.21-.56.21s-.43-.07-.56-.21c-.12-.14-.19-.31-.19-.51ZM177.06,96.45h-1.26v-7.37h1.26v7.37Z"></path><path class="cls-1" d="M178.75,92.7c0-.72.14-1.37.43-1.95.28-.58.68-1.02,1.19-1.34s1.08-.47,1.73-.47c1,0,1.82.35,2.44,1.04s.93,1.62.93,2.77v.09c0,.72-.14,1.36-.41,1.93s-.67,1.01-1.18,1.33-1.1.48-1.76.48c-1,0-1.81-.35-2.43-1.04-.62-.7-.93-1.62-.93-2.76v-.09ZM180.01,92.85c0,.82.19,1.47.57,1.97s.89.74,1.52.74,1.15-.25,1.53-.75c.38-.5.57-1.21.57-2.11,0-.81-.19-1.46-.58-1.97-.38-.5-.89-.75-1.53-.75s-1.12.25-1.51.74c-.38.5-.57,1.2-.57,2.13ZM182.66,85.99h1.53l-1.83,2h-1.02s1.32-2,1.32-2Z"></path><path class="cls-1" d="M188.23,89.08l.04.93c.56-.71,1.3-1.06,2.21-1.06,1.56,0,2.34.88,2.36,2.64v4.87h-1.26v-4.88c0-.53-.13-.92-.36-1.18-.24-.25-.61-.38-1.11-.38-.41,0-.77.11-1.08.33-.31.22-.55.5-.72.86v5.25h-1.26v-7.37h1.19Z"></path><path class="cls-1" d="M201.15,95.56c.45,0,.84-.14,1.18-.41.34-.27.52-.61.56-1.02h1.19c-.02.42-.17.83-.44,1.21-.27.38-.63.69-1.07.91-.45.23-.92.34-1.42.34-1,0-1.8-.33-2.4-1.01-.59-.67-.89-1.59-.89-2.75v-.21c0-.72.13-1.36.4-1.92.26-.56.64-.99,1.13-1.3.49-.31,1.08-.46,1.75-.46.83,0,1.51.25,2.06.74.55.5.84,1.14.88,1.93h-1.19c-.04-.48-.22-.87-.54-1.18s-.73-.46-1.2-.46c-.64,0-1.14.23-1.49.69-.35.46-.53,1.13-.53,2v.24c0,.85.17,1.5.52,1.96.35.46.85.69,1.5.69Z"></path><path class="cls-1" d="M205.17,92.7c0-.72.14-1.37.43-1.95.28-.58.68-1.02,1.19-1.34s1.08-.47,1.73-.47c1,0,1.82.35,2.44,1.04s.93,1.62.93,2.77v.09c0,.72-.14,1.36-.41,1.93s-.67,1.01-1.18,1.33-1.1.48-1.76.48c-1,0-1.81-.35-2.43-1.04-.62-.7-.93-1.62-.93-2.76v-.09ZM206.44,92.85c0,.82.19,1.47.57,1.97s.89.74,1.52.74,1.15-.25,1.53-.75c.38-.5.57-1.21.57-2.11,0-.81-.19-1.46-.58-1.97-.38-.5-.89-.75-1.53-.75s-1.12.25-1.51.74c-.38.5-.57,1.2-.57,2.13Z"></path><path class="cls-1" d="M214.65,89.08l.04.93c.56-.71,1.3-1.06,2.21-1.06,1.56,0,2.34.88,2.36,2.64v4.87h-1.26v-4.88c0-.53-.13-.92-.36-1.18-.24-.25-.61-.38-1.11-.38-.41,0-.77.11-1.08.33-.31.22-.55.5-.72.86v5.25h-1.26v-7.37h1.19Z"></path><path class="cls-1" d="M227.68,96.59c-1,0-1.81-.33-2.44-.99-.63-.66-.94-1.53-.94-2.63v-.23c0-.73.14-1.38.42-1.96.28-.57.67-1.02,1.17-1.35.5-.32,1.05-.49,1.63-.49.96,0,1.7.32,2.24.95.53.63.8,1.54.8,2.71v.52h-5c.02.73.23,1.31.64,1.76.41.45.92.67,1.55.67.44,0,.82-.09,1.13-.27.31-.18.58-.42.81-.72l.77.6c-.62.95-1.54,1.42-2.78,1.42ZM227.52,89.98c-.51,0-.94.19-1.28.56s-.56.89-.64,1.56h3.69v-.1c-.04-.64-.21-1.14-.52-1.49s-.73-.53-1.25-.53Z"></path><path class="cls-1" d="M233.38,96.45h-1.26v-10.47h1.26v10.47Z"></path><path class="cls-1" d="M240.04,89.08l.03.82c.54-.64,1.27-.95,2.19-.95,1.03,0,1.73.4,2.11,1.19.25-.35.56-.64.96-.86.39-.22.86-.33,1.39-.33,1.62,0,2.44.86,2.47,2.57v4.94h-1.26v-4.87c0-.53-.12-.92-.36-1.18-.24-.26-.65-.39-1.21-.39-.47,0-.86.14-1.17.42-.31.28-.49.66-.54,1.13v4.89h-1.27v-4.83c0-1.07-.52-1.61-1.57-1.61-.83,0-1.39.35-1.7,1.06v5.38h-1.26v-7.37h1.19Z"></path><path class="cls-1" d="M254.15,96.59c-1,0-1.81-.33-2.44-.99-.63-.66-.94-1.53-.94-2.63v-.23c0-.73.14-1.38.42-1.96.28-.57.67-1.02,1.17-1.35.5-.32,1.05-.49,1.63-.49.96,0,1.7.32,2.24.95.53.63.8,1.54.8,2.71v.52h-5c.02.73.23,1.31.64,1.76.41.45.92.67,1.55.67.44,0,.82-.09,1.13-.27.31-.18.58-.42.81-.72l.77.6c-.62.95-1.54,1.42-2.78,1.42ZM253.99,89.98c-.51,0-.94.19-1.28.56s-.56.89-.64,1.56h3.69v-.1c-.04-.64-.21-1.14-.52-1.49s-.73-.53-1.25-.53Z"></path><path class="cls-1" d="M258.18,92.71c0-1.13.27-2.04.8-2.73s1.24-1.03,2.11-1.03,1.55.3,2.05.89v-3.84h1.26v10.47h-1.16l-.06-.79c-.5.62-1.21.93-2.11.93s-1.55-.35-2.09-1.05c-.54-.7-.81-1.61-.81-2.74v-.09ZM259.44,92.85c0,.84.17,1.49.52,1.96s.82.71,1.43.71c.8,0,1.38-.36,1.75-1.08v-3.39c-.38-.7-.96-1.04-1.74-1.04-.62,0-1.1.24-1.44.72-.35.48-.52,1.18-.52,2.12Z"></path><path class="cls-1" d="M266.36,87.12c0-.2.06-.38.19-.52.12-.14.31-.21.56-.21s.43.07.56.21c.13.14.19.31.19.52s-.06.38-.19.51c-.13.14-.31.21-.56.21s-.43-.07-.56-.21c-.12-.14-.19-.31-.19-.51ZM267.73,96.45h-1.26v-7.37h1.26v7.37Z"></path><path class="cls-1" d="M269.41,92.7c0-.72.14-1.37.43-1.95.28-.58.68-1.02,1.19-1.34s1.08-.47,1.73-.47c1,0,1.82.35,2.44,1.04s.93,1.62.93,2.77v.09c0,.72-.14,1.36-.41,1.93s-.67,1.01-1.18,1.33-1.1.48-1.76.48c-1,0-1.81-.35-2.43-1.04-.62-.7-.93-1.62-.93-2.76v-.09ZM270.68,92.85c0,.82.19,1.47.57,1.97s.89.74,1.52.74,1.15-.25,1.53-.75c.38-.5.57-1.21.57-2.11,0-.81-.19-1.46-.58-1.97-.38-.5-.89-.75-1.53-.75s-1.12.25-1.51.74c-.38.5-.57,1.2-.57,2.13Z"></path><path class="cls-1" d="M132.24,120.03h-2.45v-5.1h-4.78v5.1h-2.45v-11.91h2.45v4.83h4.78v-4.83h2.45v11.91Z"></path><path class="cls-1" d="M139.35,120.03c-.11-.21-.19-.48-.24-.79-.57.64-1.32.96-2.23.96-.87,0-1.59-.25-2.16-.75s-.85-1.13-.85-1.9c0-.94.35-1.66,1.04-2.16.7-.5,1.7-.75,3.01-.76h1.09v-.51c0-.41-.1-.74-.31-.98s-.54-.37-.99-.37c-.4,0-.71.1-.94.29-.23.19-.34.45-.34.79h-2.36c0-.51.16-.99.47-1.42.32-.44.76-.78,1.34-1.03.58-.25,1.23-.37,1.95-.37,1.09,0,1.96.27,2.6.82s.96,1.32.96,2.31v3.83c0,.84.12,1.48.35,1.91v.14h-2.39ZM137.4,118.38c.35,0,.67-.08.96-.23s.51-.36.65-.63v-1.52h-.88c-1.18,0-1.81.41-1.89,1.23v.14c0,.29.1.54.3.73.21.19.49.29.85.29Z"></path><path class="cls-1" d="M148,117.58c0-.29-.14-.52-.43-.68-.29-.17-.75-.32-1.38-.45-2.1-.44-3.16-1.33-3.16-2.68,0-.79.33-1.44.98-1.97.65-.53,1.5-.79,2.56-.79,1.12,0,2.02.26,2.69.79.67.53,1.01,1.22,1.01,2.06h-2.36c0-.34-.11-.62-.33-.84-.22-.22-.56-.33-1.02-.33-.4,0-.71.09-.92.27-.22.18-.33.41-.33.69,0,.26.12.47.37.63.25.16.67.3,1.26.42s1.08.25,1.49.4c1.25.46,1.87,1.25,1.87,2.38,0,.81-.35,1.46-1.04,1.96-.69.5-1.59.75-2.68.75-.74,0-1.4-.13-1.98-.4-.58-.26-1.03-.63-1.35-1.09-.33-.46-.49-.96-.49-1.49h2.24c.02.42.18.74.47.96s.68.34,1.16.34c.45,0,.79-.09,1.03-.26.23-.17.35-.4.35-.67Z"></path><path class="cls-1" d="M154.65,109v2.18h1.51v1.73h-1.51v4.42c0,.33.06.56.19.7.12.14.37.21.72.21.26,0,.49-.02.69-.06v1.79c-.46.14-.94.21-1.43.21-1.66,0-2.5-.84-2.54-2.51v-4.77h-1.29v-1.73h1.29v-2.18h2.36Z"></path><path class="cls-1" d="M162.6,120.03c-.11-.21-.19-.48-.24-.79-.57.64-1.32.96-2.23.96-.87,0-1.59-.25-2.16-.75s-.85-1.13-.85-1.9c0-.94.35-1.66,1.04-2.16.7-.5,1.7-.75,3.01-.76h1.09v-.51c0-.41-.1-.74-.31-.98s-.54-.37-.99-.37c-.4,0-.71.1-.94.29-.23.19-.34.45-.34.79h-2.36c0-.51.16-.99.47-1.42.32-.44.76-.78,1.34-1.03.58-.25,1.23-.37,1.95-.37,1.09,0,1.96.27,2.6.82s.96,1.32.96,2.31v3.83c0,.84.12,1.48.35,1.91v.14h-2.39ZM160.65,118.38c.35,0,.67-.08.96-.23s.51-.36.65-.63v-1.52h-.88c-1.18,0-1.81.41-1.89,1.23v.14c0,.29.1.54.3.73.21.19.49.29.85.29Z"></path><path class="cls-1" d="M178.69,120.03h-8.16v-1.62l3.85-4.11c.53-.58.92-1.08,1.17-1.51.25-.43.38-.84.38-1.23,0-.53-.13-.94-.4-1.25-.27-.3-.65-.45-1.15-.45-.53,0-.96.18-1.26.55s-.46.85-.46,1.45h-2.37c0-.72.17-1.39.52-1.99s.84-1.07,1.47-1.41c.63-.34,1.35-.51,2.15-.51,1.23,0,2.18.29,2.86.88.68.59,1.02,1.42,1.02,2.49,0,.59-.15,1.19-.46,1.8s-.83,1.32-1.57,2.13l-2.71,2.85h5.12v1.91Z"></path><path class="cls-1" d="M188.3,120.03h-8.16v-1.62l3.85-4.11c.53-.58.92-1.08,1.17-1.51.25-.43.38-.84.38-1.23,0-.53-.13-.94-.4-1.25-.27-.3-.65-.45-1.15-.45-.53,0-.96.18-1.26.55s-.46.85-.46,1.45h-2.37c0-.72.17-1.39.52-1.99s.84-1.07,1.47-1.41c.63-.34,1.35-.51,2.15-.51,1.23,0,2.18.29,2.86.88.68.59,1.02,1.42,1.02,2.49,0,.59-.15,1.19-.46,1.8s-.83,1.32-1.57,2.13l-2.71,2.85h5.12v1.91Z"></path><path class="cls-1" d="M193.65,115.54c0-1.38.31-2.48.93-3.3.62-.82,1.47-1.23,2.54-1.23.86,0,1.57.32,2.13.96v-4.51h2.37v12.56h-2.13l-.11-.94c-.59.74-1.35,1.1-2.27,1.1-1.04,0-1.88-.41-2.51-1.23s-.94-1.96-.94-3.42ZM196.01,115.71c0,.83.14,1.47.43,1.91.29.44.71.66,1.26.66.73,0,1.25-.31,1.55-.93v-3.5c-.29-.62-.8-.93-1.53-.93-1.14,0-1.71.93-1.71,2.78Z"></path><path class="cls-1" d="M207.53,120.19c-1.3,0-2.35-.4-3.17-1.19s-1.22-1.86-1.22-3.18v-.23c0-.89.17-1.68.52-2.38.34-.7.83-1.24,1.46-1.62s1.35-.57,2.15-.57c1.21,0,2.16.38,2.86,1.15.7.76,1.04,1.85,1.04,3.25v.97h-5.64c.08.58.31,1.04.69,1.39.38.35.87.52,1.46.52.91,0,1.62-.33,2.13-.99l1.16,1.3c-.35.5-.83.89-1.44,1.17-.61.28-1.28.42-2.01.42ZM207.26,112.92c-.47,0-.85.16-1.14.48-.29.32-.48.77-.56,1.36h3.29v-.19c-.01-.53-.15-.93-.43-1.22-.27-.29-.66-.43-1.16-.43Z"></path><path class="cls-1" d="M218.85,111.18l.07,1.02c.63-.79,1.48-1.19,2.54-1.19.94,0,1.64.28,2.09.83s.69,1.37.7,2.47v5.72h-2.36v-5.66c0-.5-.11-.87-.33-1.09-.22-.23-.58-.34-1.09-.34-.67,0-1.16.28-1.5.85v6.24h-2.36v-8.85h2.22Z"></path><path class="cls-1" d="M225.69,115.52c0-.88.17-1.66.51-2.35.34-.69.82-1.22,1.46-1.59.63-.38,1.37-.56,2.21-.56,1.19,0,2.17.37,2.92,1.1.75.73,1.18,1.72,1.26,2.98l.02.6c0,1.36-.38,2.45-1.14,3.27s-1.77,1.23-3.05,1.23-2.29-.41-3.05-1.23c-.76-.82-1.14-1.93-1.14-3.34v-.11ZM228.05,115.69c0,.84.16,1.48.47,1.93.32.44.77.67,1.36.67s1.02-.22,1.34-.66c.32-.44.48-1.14.48-2.11,0-.82-.16-1.46-.48-1.92-.32-.45-.77-.68-1.36-.68s-1.02.23-1.34.68c-.32.45-.47,1.15-.47,2.09Z"></path><path class="cls-1" d="M238.72,117.14l1.64-5.96h2.47l-2.98,8.85h-2.26l-2.98-8.85h2.47l1.64,5.96Z"></path><path class="cls-1" d="M243.86,108.89c0-.35.12-.65.36-.88.24-.23.56-.34.97-.34s.73.11.96.34c.24.23.36.52.36.88s-.12.65-.36.88c-.24.23-.56.34-.96.34s-.72-.11-.96-.34c-.24-.23-.36-.52-.36-.88ZM246.37,120.03h-2.37v-8.85h2.37v8.85Z"></path><path class="cls-1" d="M252.38,120.19c-1.3,0-2.35-.4-3.17-1.19s-1.22-1.86-1.22-3.18v-.23c0-.89.17-1.68.52-2.38.34-.7.83-1.24,1.46-1.62s1.35-.57,2.15-.57c1.21,0,2.16.38,2.86,1.15.7.76,1.04,1.85,1.04,3.25v.97h-5.64c.08.58.31,1.04.69,1.39.38.35.87.52,1.46.52.91,0,1.62-.33,2.13-.99l1.16,1.3c-.35.5-.83.89-1.44,1.17-.61.28-1.28.42-2.01.42ZM252.12,112.92c-.47,0-.85.16-1.14.48-.29.32-.48.77-.56,1.36h3.29v-.19c-.01-.53-.15-.93-.43-1.22-.27-.29-.66-.43-1.16-.43Z"></path><path class="cls-1" d="M259.58,111.18l.07.99c.63-.77,1.47-1.15,2.54-1.15,1.14,0,1.92.45,2.35,1.35.62-.9,1.51-1.35,2.66-1.35.96,0,1.67.28,2.14.84.47.56.7,1.4.7,2.52v5.65h-2.37v-5.64c0-.5-.1-.87-.29-1.1-.2-.23-.54-.35-1.04-.35-.71,0-1.2.34-1.47,1.01v6.08s-2.36,0-2.36,0v-5.63c0-.51-.1-.88-.3-1.11-.2-.23-.54-.34-1.03-.34-.67,0-1.16.28-1.46.83v6.26h-2.36v-8.85h2.22Z"></path><path class="cls-1" d="M279.84,115.69c0,1.42-.3,2.52-.91,3.32-.6.79-1.45,1.19-2.54,1.19-.96,0-1.73-.37-2.3-1.1l-.11.94h-2.13v-12.56h2.36v4.51c.54-.64,1.26-.96,2.15-.96,1.08,0,1.93.4,2.54,1.19.61.79.92,1.91.92,3.35v.13ZM277.48,115.51c0-.89-.14-1.55-.43-1.96-.28-.41-.71-.62-1.27-.62-.75,0-1.27.31-1.55.92v3.49c.29.62.81.93,1.57.93s1.27-.38,1.5-1.13c.11-.36.17-.91.17-1.64Z"></path><path class="cls-1" d="M286.27,113.4c-.32-.04-.61-.07-.85-.07-.89,0-1.48.3-1.76.91v5.79h-2.36v-8.85h2.23l.07,1.05c.47-.81,1.13-1.22,1.97-1.22.26,0,.51.04.74.11l-.03,2.27Z"></path><path class="cls-1" d="M291.32,120.19c-1.3,0-2.35-.4-3.17-1.19s-1.22-1.86-1.22-3.18v-.23c0-.89.17-1.68.52-2.38.34-.7.83-1.24,1.46-1.62s1.35-.57,2.15-.57c1.21,0,2.16.38,2.86,1.15.7.76,1.04,1.85,1.04,3.25v.97h-5.64c.08.58.31,1.04.69,1.39.38.35.87.52,1.46.52.91,0,1.62-.33,2.13-.99l1.16,1.3c-.35.5-.83.89-1.44,1.17-.61.28-1.28.42-2.01.42ZM291.05,112.92c-.47,0-.85.16-1.14.48-.29.32-.48.77-.56,1.36h3.29v-.19c-.01-.53-.15-.93-.43-1.22-.27-.29-.66-.43-1.16-.43Z"></path><path class="cls-1" d="M300.11,115.54c0-1.38.31-2.48.93-3.3.62-.82,1.47-1.23,2.54-1.23.86,0,1.57.32,2.13.96v-4.51h2.37v12.56h-2.13l-.11-.94c-.59.74-1.35,1.1-2.27,1.1-1.04,0-1.88-.41-2.51-1.23s-.94-1.96-.94-3.42ZM302.47,115.71c0,.83.14,1.47.43,1.91.29.44.71.66,1.26.66.73,0,1.25-.31,1.55-.93v-3.5c-.29-.62-.8-.93-1.53-.93-1.14,0-1.71.93-1.71,2.78Z"></path><path class="cls-1" d="M313.98,120.19c-1.3,0-2.35-.4-3.17-1.19s-1.22-1.86-1.22-3.18v-.23c0-.89.17-1.68.52-2.38.34-.7.83-1.24,1.46-1.62s1.35-.57,2.15-.57c1.21,0,2.16.38,2.86,1.15.7.76,1.04,1.85,1.04,3.25v.97h-5.64c.08.58.31,1.04.69,1.39.38.35.87.52,1.46.52.91,0,1.62-.33,2.13-.99l1.16,1.3c-.35.5-.83.89-1.44,1.17-.61.28-1.28.42-2.01.42ZM313.71,112.92c-.47,0-.85.16-1.14.48-.29.32-.48.77-.56,1.36h3.29v-.19c-.01-.53-.15-.93-.43-1.22-.27-.29-.66-.43-1.16-.43Z"></path><path class="cls-1" d="M331.2,120.03h-8.16v-1.62l3.85-4.11c.53-.58.92-1.08,1.17-1.51.25-.43.38-.84.38-1.23,0-.53-.13-.94-.4-1.25-.27-.3-.65-.45-1.15-.45-.53,0-.96.18-1.26.55s-.46.85-.46,1.45h-2.37c0-.72.17-1.39.52-1.99s.84-1.07,1.47-1.41c.63-.34,1.35-.51,2.15-.51,1.23,0,2.18.29,2.86.88.68.59,1.02,1.42,1.02,2.49,0,.59-.15,1.19-.46,1.8s-.83,1.32-1.57,2.13l-2.71,2.85h5.12v1.91Z"></path><path class="cls-1" d="M340.66,115.11c0,1.65-.34,2.91-1.02,3.78-.68.87-1.68,1.31-2.99,1.31s-2.29-.43-2.98-1.28c-.69-.86-1.04-2.08-1.06-3.68v-2.19c0-1.66.34-2.92,1.03-3.79.69-.86,1.68-1.29,2.98-1.29s2.29.43,2.98,1.28,1.04,2.08,1.05,3.68v2.19ZM338.3,112.7c0-.99-.14-1.71-.4-2.16-.27-.45-.69-.68-1.26-.68s-.97.21-1.23.64c-.26.43-.4,1.1-.42,2.01v2.9c0,.97.13,1.69.4,2.17.26.47.69.71,1.27.71s1-.23,1.25-.68c.26-.45.39-1.15.4-2.08v-2.83Z"></path><path class="cls-1" d="M344.66,113.03h1.26c.6,0,1.04-.15,1.33-.45s.43-.7.43-1.19-.14-.85-.43-1.12c-.29-.27-.68-.4-1.18-.4-.45,0-.83.12-1.14.37-.31.25-.46.57-.46.97h-2.36c0-.62.17-1.18.5-1.67.33-.49.8-.88,1.41-1.16s1.27-.42,1.99-.42c1.26,0,2.25.3,2.96.9.71.6,1.07,1.43,1.07,2.49,0,.54-.17,1.05-.5,1.5-.33.46-.77.81-1.31,1.06.67.24,1.17.6,1.5,1.08.33.48.49,1.05.49,1.7,0,1.06-.39,1.91-1.16,2.54-.77.64-1.79.96-3.06.96-1.19,0-2.16-.31-2.92-.94-.76-.63-1.13-1.46-1.13-2.49h2.36c0,.45.17.81.5,1.1.33.28.75.42,1.24.42.56,0,1-.15,1.32-.45s.48-.69.48-1.18c0-1.19-.65-1.78-1.96-1.78h-1.25v-1.85Z"></path><path class="cls-1" d="M359.88,115.11c0,1.65-.34,2.91-1.02,3.78-.68.87-1.68,1.31-2.99,1.31s-2.29-.43-2.98-1.28c-.69-.86-1.04-2.08-1.06-3.68v-2.19c0-1.66.34-2.92,1.03-3.79.69-.86,1.68-1.29,2.98-1.29s2.29.43,2.98,1.28,1.04,2.08,1.05,3.68v2.19ZM357.52,112.7c0-.99-.14-1.71-.4-2.16-.27-.45-.69-.68-1.26-.68s-.97.21-1.23.64c-.26.43-.4,1.1-.42,2.01v2.9c0,.97.13,1.69.4,2.17.26.47.69.71,1.27.71s1-.23,1.25-.68c.26-.45.39-1.15.4-2.08v-2.83Z"></path></g></svg> 