<?xml version="1.0" encoding="UTF-8"?> <svg xmlns="http://www.w3.org/2000/svg" id="Capa_2" viewBox="0 0 893.21 501.76"><defs><style>.cls-1{fill:#1d1d1b;}.cls-2{fill:#fff;}</style></defs><g id="Capa_1-2"><rect class="cls-2" width="893.21" height="501.76"></rect><path class="cls-1" d="M372.4,183.97h-9.35v35.19c0,3.22-.68,5.72-2.05,7.5-1.36,1.78-3.62,2.67-6.79,2.67-2.13,0-3.95-.85-5.45-2.56-1.51-1.71-2.26-4.44-2.26-8.2v-34.6h-9.36v35.42c.1,2.67.4,5.08.89,7.24.49,2.15,1.34,4.04,2.52,5.68.99,1.39,2.11,2.5,3.34,3.34,1.24.85,2.5,1.47,3.79,1.86,1.24.44,2.43.75,3.57.93,1.14.17,2.2.26,3.19.26,5.49,0,9.86-1.57,13.1-4.71,3.25-3.14,4.87-8.26,4.87-15.33v-34.67Z"></path><path class="cls-1" d="M396.47,196.81c-2.08,0-3.77.43-5.08,1.3-1.31.86-2.34,1.81-3.09,2.85-.35.5-.64.97-.89,1.41-.25.45-.48.85-.67,1.19h-.15v-5.79h-8.16v39.5h8.54v-22.57c0-3.01.64-5.29,1.93-6.83,1.29-1.53,2.87-2.3,4.75-2.3s3.26.52,4.01,1.56c.74,1.04,1.21,2.16,1.41,3.34.05.55.08,1.06.11,1.56.02.49.03.91.03,1.26v23.98h8.54v-27.25c0-4.36-1.09-7.65-3.26-9.88-2.18-2.22-4.86-3.34-8.02-3.34Z"></path><rect class="cls-1" x="413.34" y="197.78" width="8.46" height="39.5"></rect><rect class="cls-1" x="413.34" y="183.44" width="8.46" height="9.65"></rect><polygon class="cls-1" points="444.84 237.27 456.5 197.78 447.45 197.78 440.53 226.88 440.46 226.88 433.78 197.78 424.28 197.78 435.86 237.27 444.84 237.27"></polygon><path class="cls-1" d="M471.8,238.31c.5,0,.99-.02,1.49-.07.49-.05.98-.13,1.48-.23,2.38-.49,4.62-1.68,6.72-3.56,2.1-1.89,3.63-4.8,4.57-8.77h-8.77v.08c-.3,1.33-.95,2.37-1.97,3.12-1.02.74-2.1,1.14-3.23,1.18h-.3c-2.18,0-3.79-.57-4.83-1.71-1.04-1.14-1.76-2.4-2.15-3.79-.2-.79-.34-1.55-.41-2.26-.07-.72-.14-1.38-.19-1.97h22.2v-1.78c0-7.08-1.13-12.16-3.38-15.26-2.25-3.09-4.74-5.03-7.46-5.83-.74-.24-1.48-.42-2.22-.52-.74-.11-1.47-.15-2.16-.15-4.21,0-7.38,1.12-9.54,3.34-2.15,2.22-3.67,4.68-4.57,7.35-.59,1.84-.98,3.59-1.14,5.28-.18,1.68-.27,3.02-.27,4,0,8.12,1.55,13.74,4.64,16.85s6.92,4.68,11.47,4.68ZM466.46,207.52c1.09-1.45,2.62-2.17,4.6-2.17.25,0,.49.02.74.04.25.02.5.09.74.19,1.19.3,2.29,1.06,3.3,2.3,1.01,1.24,1.63,3.15,1.82,5.72h-13.21c.25-2.6.91-4.62,2.01-6.07Z"></path><path class="cls-1" d="M498.57,216.78v-.77c0-.27.02-.53.08-.78.14-1.98.75-3.79,1.81-5.42,1.06-1.64,3.06-2.45,5.98-2.45h.82c.29,0,.58.02.85.04.27.02.53.03.77.03v-10.46c-.3-.05-.58-.09-.85-.11-.27-.02-.53-.04-.77-.04-2.58,0-4.49.81-5.72,2.42-1.24,1.61-2.3,3.4-3.19,5.38h-.15v-6.83h-8.17v39.5h8.54v-20.49Z"></path><path class="cls-1" d="M530.71,237.5c2.18-.64,4.16-1.93,5.98-3.87,1.8-1.93,2.71-4.87,2.71-8.83,0-3.67-1.06-6.28-3.16-7.84-2.1-1.55-4.42-2.68-6.94-3.38-.75-.25-1.47-.46-2.16-.63-.69-.18-1.36-.34-2-.48-1.68-.39-3.11-.87-4.27-1.41-1.17-.55-1.75-1.39-1.75-2.53v-.44c0-.14.02-.3.07-.44.1-.74.5-1.43,1.19-2.05.69-.61,2.01-.93,3.93-.93,2.18,0,3.62.5,4.31,1.48.69.99,1.14,2.11,1.34,3.34,0,.05.02.15.07.3h8.31c-.31-4.76-1.64-8.02-4.01-9.76-2.38-1.76-4.97-2.78-7.79-3.08-.5-.05-.97-.09-1.41-.11-.45-.02-.89-.04-1.34-.04-4.16,0-7.2,1.04-9.14,3.12-1.93,2.08-3.14,4.36-3.63,6.83-.11.55-.18,1.09-.23,1.63-.05.55-.07,1.09-.07,1.64,0,3.71,1.05,6.33,3.16,7.87,2.09,1.53,4.41,2.67,6.94,3.42.64.19,1.29.37,1.93.52.64.15,1.26.3,1.85.44,1.73.45,3.21.94,4.42,1.49,1.22.54,1.82,1.43,1.82,2.67,0,.2-.02.43-.07.71-.05.27-.14.56-.3.85-.25.64-.77,1.22-1.56,1.75-.8.52-1.96.77-3.5.77-2.67,0-4.51-.54-5.53-1.63-1.01-1.09-1.52-2.51-1.52-4.24l-8.76.07c.1,4.95,1.6,8.4,4.53,10.36,2.92,1.96,6.13,3.01,9.65,3.16.24.05.48.07.7.07h.71c.79,0,1.66-.06,2.59-.18.94-.12,1.91-.33,2.9-.63Z"></path><path class="cls-1" d="M538.36,209.8h0s0,.05,0,.07v-.07Z"></path><rect class="cls-1" x="543.44" y="197.78" width="8.47" height="39.5"></rect><rect class="cls-1" x="543.44" y="183.44" width="8.47" height="9.65"></rect><path class="cls-1" d="M569.67,238.31c.24,0,.51-.02.78-.04.27-.02.53-.03.77-.03,1.49-.25,2.93-.82,4.34-1.71,1.42-.89,2.56-2.3,3.46-4.23h.07v4.97h8.39v-53.31h-8.54v18.93l-.15.07c-.14-.3-.32-.6-.52-.93-.2-.32-.42-.65-.67-1-.74-1.04-1.77-2.01-3.09-2.9-1.31-.89-3.01-1.34-5.08-1.34-3.56,0-6.7,1.68-9.39,5.05-2.7,3.37-4.04,8.47-4.04,15.29,0,5.4,1.08,10.27,3.23,14.63,2.15,4.36,5.63,6.53,10.43,6.53ZM572.05,205.79c2.87,0,4.8,1.3,5.79,3.9.98,2.6,1.48,5.46,1.48,8.58v.22c0,2.92-.58,5.55-1.75,7.87-1.16,2.33-3.1,3.49-5.82,3.49-2.03,0-3.55-.82-4.57-2.48-1.02-1.66-1.69-3.46-2.04-5.38-.15-.75-.25-1.47-.3-2.16-.05-.68-.07-1.33-.07-1.96,0-3.1.53-5.89,1.59-8.36,1.06-2.47,2.96-3.71,5.68-3.71Z"></path><path class="cls-1" d="M608.8,212.7c-.11.05-.2.08-.3.1-.11.02-.2.02-.3-.03l-7.65,1.48c-2.72.5-4.98,1.76-6.76,3.79-1.78,2.03-2.67,4.98-2.67,8.84s1.01,6.9,3.01,8.69c2.01,1.78,4.22,2.7,6.65,2.75h.23c2.33,0,4.2-.42,5.61-1.26,1.41-.84,2.59-1.78,3.52-2.82.25-.3.48-.56.71-.81.23-.25.43-.5.63-.74.05.64.1,1.16.15,1.56.05.39.1.79.14,1.19.05.29.11.59.18.89.07.3.16.62.27.97h9.2v-1.48c-.49-.25-.93-.76-1.3-1.52-.37-.77-.56-2.34-.56-4.71v-21.31c0-3.32-.81-5.79-2.45-7.43-1.63-1.64-3.44-2.72-5.42-3.27-.89-.29-1.78-.49-2.67-.59-.89-.11-1.68-.15-2.38-.15h-.96c-3.13.1-6.04.99-8.76,2.67-2.72,1.68-4.3,5.37-4.75,11.06l8.17.07c.05-.24.09-.5.11-.77.02-.27.08-.53.19-.78.25-.99.72-1.89,1.45-2.71.72-.82,1.89-1.23,3.52-1.23.3,0,.6.02.93.04.31.02.65.06,1,.11.89.14,1.72.53,2.49,1.15.76.62,1.15,1.72,1.15,3.3,0,.94-.25,1.64-.75,2.08-.49.44-1.04.74-1.63.89ZM611.17,223.1v.07c0,2.43-.8,4.33-2.38,5.72-1.59,1.39-3.32,2.08-5.2,2.08-.19,0-.4-.02-.59-.04-.2-.02-.4-.06-.6-.11-.69-.24-1.32-.72-1.89-1.45-.57-.71-.85-1.76-.85-3.15,0-2.17.57-3.62,1.71-4.34,1.14-.72,2.47-1.25,4.01-1.59,1.78-.35,3.09-.69,3.93-1.04.85-.35,1.46-.75,1.86-1.19v5.05Z"></path><path class="cls-1" d="M636.73,238.31c.24,0,.51-.02.78-.04.27-.02.53-.03.77-.03,1.49-.25,2.93-.82,4.34-1.71,1.42-.89,2.56-2.3,3.46-4.23h.07v4.97h8.4v-53.31h-8.54v18.93l-.15.07c-.14-.3-.32-.6-.52-.93-.2-.32-.42-.65-.67-1-.74-1.04-1.77-2.01-3.09-2.9-1.3-.89-3.01-1.34-5.08-1.34-3.56,0-6.69,1.68-9.39,5.05-2.7,3.37-4.04,8.47-4.04,15.29,0,5.4,1.08,10.27,3.23,14.63,2.15,4.36,5.63,6.53,10.43,6.53ZM639.1,205.79c2.87,0,4.8,1.3,5.79,3.9.98,2.6,1.48,5.46,1.48,8.58v.22c0,2.92-.58,5.55-1.75,7.87-1.16,2.33-3.1,3.49-5.83,3.49-2.03,0-3.55-.82-4.57-2.48-1.01-1.66-1.69-3.46-2.04-5.38-.15-.75-.25-1.47-.3-2.16-.05-.68-.07-1.33-.07-1.96,0-3.1.53-5.89,1.59-8.36,1.06-2.47,2.96-3.71,5.68-3.71Z"></path><path class="cls-1" d="M357.78,277.15l-.15.07c-.14-.3-.32-.6-.52-.93-.2-.32-.43-.65-.67-1-.75-1.04-1.77-2.01-3.09-2.9-1.31-.89-3.01-1.34-5.08-1.34-3.56,0-6.7,1.68-9.39,5.05-2.7,3.37-4.04,8.47-4.04,15.29,0,5.4,1.07,10.27,3.23,14.63,2.15,4.36,5.63,6.53,10.43,6.53.24,0,.5-.02.77-.04.27-.02.53-.03.78-.03,1.48-.25,2.93-.82,4.34-1.71,1.41-.89,2.56-2.3,3.46-4.23h.07v4.97h8.39v-53.31h-8.53v18.93ZM358.15,292.63v.1c0,2.92-.59,5.55-1.75,7.87-1.16,2.33-3.11,3.49-5.82,3.49-2.03,0-3.55-.82-4.57-2.48-1.01-1.66-1.7-3.46-2.05-5.38-.14-.75-.24-1.47-.29-2.16-.05-.68-.08-1.33-.08-1.96,0-3.1.53-5.88,1.59-8.36,1.06-2.47,2.96-3.71,5.68-3.71,2.88,0,4.8,1.31,5.79,3.9.99,2.6,1.49,5.46,1.49,8.58v.11Z"></path><path class="cls-1" d="M389.64,271.72c-.74-.24-1.49-.42-2.23-.52-.74-.1-1.46-.15-2.15-.15-4.2,0-7.39,1.12-9.54,3.34-2.16,2.22-3.67,4.68-4.57,7.35-.6,1.84-.97,3.59-1.15,5.28-.17,1.68-.26,3.02-.26,4,0,8.12,1.55,13.74,4.64,16.85,3.09,3.12,6.91,4.68,11.47,4.68.49,0,.99-.02,1.48-.07.49-.05.99-.13,1.48-.23,2.38-.49,4.62-1.68,6.72-3.56,2.1-1.89,3.63-4.8,4.57-8.77h-8.76v.08c-.3,1.33-.96,2.37-1.97,3.12-1.01.74-2.09,1.14-3.22,1.18h-.3c-2.18,0-3.79-.57-4.83-1.71-1.04-1.14-1.76-2.4-2.16-3.79-.19-.79-.33-1.55-.4-2.26-.07-.72-.14-1.38-.18-1.97h22.19v-1.78c0-7.08-1.13-12.16-3.38-15.26-2.26-3.09-4.74-5.04-7.46-5.83ZM378.5,287.84c.25-2.6.92-4.62,2.01-6.07,1.09-1.45,2.63-2.17,4.61-2.17.24,0,.49.02.74.04.24.02.49.09.74.19,1.18.3,2.29,1.06,3.3,2.3,1.01,1.24,1.62,3.15,1.82,5.72h-13.22Z"></path><path class="cls-1" d="M453.79,270.24c-1.09-3.37-3.05-6.44-5.9-9.21-2.85-2.77-6.82-4.16-11.92-4.16-5.65,0-10.41,2.36-14.3,7.09-3.88,4.73-5.83,11.75-5.83,21.05s1.87,16.16,5.61,20.87c3.74,4.7,8.52,7.05,14.36,7.05,5.49,0,9.8-1.82,12.92-5.45,3.12-3.64,5.15-8.38,6.08-14.22l-9.13.07c-.55,3.27-1.66,5.75-3.34,7.46-1.68,1.71-3.79,2.56-6.31,2.56-3.92,0-6.7-1.83-8.35-5.49-1.66-3.66-2.49-7.89-2.49-12.7,0-5.79.78-10.03,2.34-12.73,1.56-2.7,3.27-4.45,5.16-5.24.6-.25,1.18-.42,1.75-.52.56-.11,1.1-.15,1.59-.15,2.57,0,4.49.58,5.75,1.75,1.26,1.16,2.19,2.43,2.79,3.82.29.64.53,1.29.7,1.93.18.64.31,1.18.41,1.64h9.12c-.05-.87-.16-1.75-.32-2.63-.18-.92-.41-1.85-.71-2.79Z"></path><path class="cls-1" d="M454.83,275.74v-.07h0s0,.05,0,.07Z"></path><path class="cls-1" d="M473.84,271.05c-4.35,0-8.2,1.68-11.54,5.05-3.34,3.37-5.01,8.61-5.01,15.74s1.68,12.36,5.01,15.7c3.34,3.34,7.19,5.01,11.54,5.01s8.21-1.67,11.55-5.01c3.33-3.34,5-8.59,5.01-15.74,0-7.11-1.68-12.34-5.01-15.71-3.34-3.37-7.19-5.05-11.55-5.05ZM481.64,291.85c0,.54,0,1.11-.03,1.71-.03.59-.09,1.18-.19,1.78-.29,2.13-.98,4.08-2.08,5.87-1.09,1.78-2.92,2.67-5.49,2.67s-4.42-.89-5.53-2.67c-1.11-1.78-1.8-3.74-2.05-5.87-.1-.6-.16-1.19-.18-1.78-.02-.6-.03-1.17-.03-1.71s0-1.11.03-1.71.09-1.19.18-1.78c.25-2.13.93-4.08,2.05-5.87,1.11-1.79,2.96-2.67,5.53-2.67s4.41.89,5.49,2.67c1.1,1.78,1.79,3.74,2.08,5.87.1.59.16,1.18.19,1.78.02.6.03,1.14.03,1.64v.07Z"></path><path class="cls-1" d="M490.4,291.85v-.07s0,.02,0,.04c0,.01,0,.02,0,.04Z"></path><path class="cls-1" d="M512.14,271.05c-2.08,0-3.77.43-5.08,1.3-1.31.86-2.34,1.81-3.09,2.85-.35.5-.64.97-.89,1.41-.25.45-.48.85-.67,1.19h-.15v-5.79h-8.16v39.5h8.54v-22.57c0-3.01.64-5.29,1.93-6.83,1.29-1.53,2.87-2.3,4.75-2.3s3.26.52,4.01,1.56c.74,1.04,1.21,2.16,1.4,3.34.05.55.09,1.06.11,1.56.03.49.04.91.04,1.26v23.98h8.54v-27.25c0-4.36-1.09-7.65-3.27-9.88-2.17-2.22-4.85-3.34-8.02-3.34Z"></path><path class="cls-1" d="M536.19,288.21c.25-2.13.87-4.06,1.86-5.79.98-1.73,2.55-2.59,4.67-2.59h.37c1.34-.05,2.38.37,3.12,1.26.75.89,1.29,1.88,1.63,2.97.15.35.26.71.34,1.08.07.37.13.7.19,1l8.68.07c-.3-4.3-1.36-7.55-3.19-9.72-1.84-2.18-3.82-3.67-5.95-4.46-.89-.35-1.78-.6-2.67-.74-.89-.15-1.74-.23-2.53-.23-5.49,0-9.45,2.05-11.87,6.16-2.43,4.11-3.64,9.35-3.64,15.74,0,.89.04,1.81.11,2.75.07.94.19,1.89.33,2.82.6,3.52,1.97,6.73,4.13,9.65,2.15,2.92,5.63,4.38,10.43,4.38,3.61,0,6.43-.87,8.46-2.6,2.03-1.73,3.54-3.66,4.53-5.78.6-1.34,1.03-2.64,1.3-3.9.27-1.26.43-2.31.48-3.16h-8.69v.07c0,.35-.06.81-.18,1.38-.12.57-.31,1.15-.56,1.74-.4.94-.99,1.81-1.78,2.6s-1.85,1.18-3.19,1.18c-2.18,0-3.71-.79-4.61-2.38-.89-1.58-1.46-3.34-1.71-5.27-.14-.93-.23-1.87-.26-2.78-.02-.92-.03-1.72-.03-2.42,0-.49,0-1,.03-1.52.02-.52.09-1.02.18-1.52Z"></path><path class="cls-1" d="M578.42,271.72c-.74-.24-1.48-.42-2.22-.52-.75-.1-1.47-.15-2.16-.15-4.2,0-7.39,1.12-9.54,3.34-2.15,2.22-3.67,4.68-4.57,7.35-.6,1.84-.98,3.59-1.15,5.28-.17,1.68-.26,3.02-.26,4,0,8.12,1.55,13.74,4.64,16.85,3.09,3.12,6.92,4.68,11.47,4.68.49,0,.99-.02,1.48-.07.5-.05.99-.13,1.49-.23,2.38-.49,4.61-1.68,6.72-3.56,2.1-1.89,3.62-4.8,4.56-8.77h-8.76v.08c-.3,1.33-.95,2.37-1.97,3.12-1.01.74-2.09,1.14-3.23,1.18h-.3c-2.17,0-3.79-.57-4.83-1.71-1.04-1.14-1.76-2.4-2.15-3.79-.2-.79-.34-1.55-.41-2.26-.07-.72-.14-1.38-.18-1.97h22.2v-1.78c0-7.08-1.13-12.16-3.38-15.26-2.25-3.09-4.74-5.04-7.46-5.83ZM567.29,287.84c.24-2.6.91-4.62,2-6.07,1.09-1.45,2.63-2.17,4.61-2.17.24,0,.49.02.74.04.25.02.49.09.74.19,1.19.3,2.29,1.06,3.3,2.3,1.01,1.24,1.62,3.15,1.82,5.72h-13.21Z"></path><path class="cls-1" d="M610.79,271.05c-2.52,0-4.46.59-5.82,1.75-1.36,1.16-2.44,2.44-3.23,3.82-.15.2-.27.4-.37.6-.1.2-.2.37-.3.52h-.07v-5.72h-8.17v54.87h8.54v-20.42l.07.08c.15.35.34.72.56,1.11.23.4.51.81.85,1.26.64.94,1.59,1.79,2.82,2.53,1.24.74,2.88,1.11,4.91,1.11,4.85,0,8.34-2.17,10.47-6.53,2.13-4.36,3.19-9.23,3.19-14.63,0-6.82-1.35-11.92-4.04-15.29-2.7-3.37-5.82-5.05-9.39-5.05ZM615.4,294.07c-.06.69-.15,1.41-.3,2.16-.35,1.93-1.04,3.72-2.08,5.38-1.04,1.66-2.55,2.48-4.53,2.48-2.72,0-4.66-1.16-5.79-3.49-1.14-2.32-1.71-4.97-1.71-7.94v-.14c0-3.12.48-5.98,1.44-8.58.97-2.59,2.88-3.9,5.76-3.9,2.72,0,4.62,1.24,5.68,3.71,1.06,2.48,1.6,5.28,1.6,8.39,0,.59-.02,1.23-.07,1.93Z"></path><path class="cls-1" d="M635.32,288.21c.25-2.13.87-4.06,1.86-5.79.98-1.73,2.55-2.59,4.67-2.59h.37c1.34-.05,2.38.37,3.12,1.26.75.89,1.29,1.88,1.64,2.97.15.35.26.71.34,1.08.07.37.13.7.19,1l8.68.07c-.3-4.3-1.36-7.55-3.19-9.72-1.84-2.18-3.82-3.67-5.95-4.46-.89-.35-1.78-.6-2.67-.74-.89-.15-1.74-.23-2.53-.23-5.49,0-9.45,2.05-11.88,6.16-2.43,4.11-3.64,9.35-3.64,15.74,0,.89.04,1.81.11,2.75.07.94.18,1.89.33,2.82.6,3.52,1.97,6.73,4.12,9.65,2.15,2.92,5.63,4.38,10.43,4.38,3.61,0,6.43-.87,8.46-2.6,2.03-1.73,3.55-3.66,4.53-5.78.6-1.34,1.03-2.64,1.3-3.9.27-1.26.43-2.31.48-3.16h-8.69v.07c0,.35-.06.81-.19,1.38-.12.57-.31,1.15-.56,1.74-.39.94-.99,1.81-1.78,2.6s-1.85,1.18-3.19,1.18c-2.18,0-3.71-.79-4.61-2.38-.89-1.58-1.46-3.34-1.71-5.27-.14-.93-.23-1.87-.26-2.78-.02-.92-.03-1.72-.03-2.42,0-.49,0-1,.03-1.52.02-.52.09-1.02.19-1.52Z"></path><rect class="cls-1" x="659.94" y="257.69" width="8.47" height="9.65"></rect><rect class="cls-1" x="659.94" y="272.02" width="8.47" height="39.5"></rect><path class="cls-1" d="M688.98,271.05c-4.36,0-8.2,1.68-11.54,5.05-3.34,3.37-5.01,8.61-5.01,15.74s1.67,12.36,5.01,15.7c3.34,3.34,7.19,5.01,11.54,5.01s8.21-1.67,11.54-5.01c3.34-3.34,5-8.59,5.01-15.74,0-7.11-1.67-12.34-5.01-15.71-3.34-3.37-7.19-5.05-11.54-5.05ZM696.78,291.85c0,.54-.02,1.11-.04,1.71-.02.59-.09,1.18-.19,1.78-.3,2.13-.99,4.08-2.08,5.87s-2.92,2.67-5.49,2.67-4.42-.89-5.53-2.67c-1.12-1.78-1.8-3.74-2.05-5.87-.1-.6-.16-1.19-.18-1.78-.02-.6-.03-1.17-.03-1.71s0-1.11.03-1.71.09-1.19.18-1.78c.25-2.13.93-4.08,2.05-5.87,1.11-1.79,2.96-2.67,5.53-2.67s4.41.89,5.49,2.67c1.09,1.78,1.78,3.74,2.08,5.87.1.59.16,1.18.19,1.78s.04,1.14.04,1.64v.07Z"></path><path class="cls-1" d="M705.53,291.85v-.07s0,.02,0,.04c0,.01,0,.02,0,.04Z"></path><polygon class="cls-1" points="700.49 255.84 691.13 255.84 685.42 266.68 691.51 266.68 700.49 255.84"></polygon><path class="cls-1" d="M727.29,271.05c-2.08,0-3.78.43-5.08,1.3-1.31.86-2.34,1.81-3.09,2.85-.35.5-.64.97-.89,1.41-.25.45-.47.85-.67,1.19h-.15v-5.79h-8.17v39.5h8.54v-22.57c0-3.01.64-5.29,1.93-6.83,1.29-1.53,2.87-2.3,4.75-2.3s3.26.52,4,1.56c.75,1.04,1.22,2.16,1.41,3.34.06.55.09,1.06.11,1.56.02.49.04.91.04,1.26v23.98h8.54v-27.25c0-4.36-1.09-7.65-3.27-9.88-2.17-2.22-4.85-3.34-8.02-3.34Z"></path><polygon class="cls-1" points="235.24 226.56 221.19 226.56 219.72 229.75 236.7 229.75 235.24 226.56"></polygon><polygon class="cls-1" points="236.42 232.95 220 232.95 218.54 236.15 237.88 236.15 236.42 232.95"></polygon><polygon class="cls-1" points="233.31 248.94 235.32 239.35 221.1 239.35 223.11 248.94 233.31 248.94"></polygon><path class="cls-1" d="M228.22,261.73c-2.81,0-4.99,2.44-4.68,5.23l3.75,33.44c-.87.36-1.48,1.21-1.48,2.21,0,1.07.71,1.95,1.68,2.25.22.09.45.14.7.14,0,0,0,0,0,0s0,0,0,0c1.33,0,2.4-1.07,2.4-2.4,0-1-.61-1.85-1.48-2.21l3.77-33.44c.31-2.79-1.87-5.24-4.68-5.24Z"></path><path class="cls-1" d="M218.03,257.73c.7,0,1.32-.32,1.76-.8h16.85c.44.48,1.06.8,1.76.8,1.32,0,2.4-1.07,2.4-2.4s-1.07-2.4-2.4-2.4c-.7,0-1.32.32-1.76.8h-16.85c-.44-.48-1.06-.8-1.76-.8-1.32,0-2.4,1.07-2.4,2.4s1.07,2.4,2.4,2.4Z"></path><path class="cls-1" d="M219.46,221.76h17.5c6.51-6.06.03-12.02,1.66-14.69-1.95.46-2.08,3.76-3.52,5.31-2.5-5.22,3.19-10.05-1.77-16.2.17,4.95-4.56,6.73-5.12,14.06-2.19-4.31.97-8.3-2.14-12.79-.59,4.01-5.14,5.98-4.49,12.83-2.24-.95-2.19-3.65-4.3-4.14,1.78,3.79-4.07,9.97,2.18,15.61Z"></path><path class="cls-1" d="M150.89,269.9c0,42.7,34.62,77.32,77.32,77.32,0,0,0,0,0-.01h0c42.7.01,77.32-34.6,77.32-77.31v-115.17h-154.65v115.17ZM160.13,288.84c.31.01.64.07.97.12.67.1,1.36.24,2.09.47.93.29,1.89.71,2.87,1.18.48.23.95.48,1.42.75.34.19.68.38,1.02.59.3.19.6.39.9.58-.05.32-.08.65-.12.98-.02.22-.06.42-.08.64-.03.3-.05.59-.07.89-.16,2.8.05,5.74.59,8.45-.47.1-.92.23-1.35.37-4.18-3.82-8.14-10.56-8.23-15.03ZM165.53,287.11c-.82-.33-1.64-.62-2.43-.82-2.41-4.92-3.74-11.82-2.5-15.8,1.77.67,3.7,2.13,5.5,3.98.55-3.7,1.72-7.23,3.41-9.26,1.9,1.77,3.49,5.02,4.5,8.54-.98,1.48-1.78,3.06-2.38,4.48-1.44-.63-2.81-1.02-4.08-1.17l-3.18-.39-.2,3.2c-.13,2.07.39,4.59,1.36,7.24ZM169.46,291.93s0-.02,0-.04c0,.01.01.02.02.03,0,0-.01,0-.02,0ZM169.65,308.51c-.4-.54-.77-1.08-1.02-1.61.27-.11.62-.15.91-.24.3-.09.6-.18.93-.24.4-.08.81-.16,1.25-.21.08-.01.17-.01.25-.02.51-.05,1.01-.1,1.55-.11.17,0,.31-.03.48-.03.57,0,1.16.03,1.75.07.06,0,.12.01.19.02.5.04,1.01.09,1.52.15.11.01.22.03.34.05.39.05.77.11,1.16.18.18.03.36.07.53.1.98.19,1.95.42,2.89.7.5.15.98.3,1.45.47.48.17.95.35,1.4.54.88.37,1.68.78,2.4,1.22.28.17.55.35.8.54-.04.51-.05,1.04-.07,1.56-.03.83-.04,1.65,0,2.48.02.48.04.96.08,1.44-1.92.41-3.79,1-5.46,1.8-4.81-1.38-10.6-5.11-13.34-8.85ZM172.07,296.39c0-.54.04-1.07.07-1.59,0-.07,0-.14.01-.2.01-.14.01-.28.02-.42.03-.36.09-.7.14-1.05.01-.09.02-.18.04-.27.03-.18.05-.36.08-.54.07-.39.15-.76.24-1.12.29-1.23.68-2.35,1.19-3.24.26.17.52.39.77.6.43.35.85.74,1.26,1.19.53.58,1.06,1.21,1.56,1.92.29.4.57.82.84,1.26.02.03.04.05.05.08.25.4.48.82.71,1.25.08.15.18.3.26.46.33.62.63,1.25.92,1.9,1.14,2.55,1.93,5.24,2.19,7.58-.55-.15-1.11-.27-1.68-.39-.49-.1-.98-.22-1.48-.31-.1-.02-.2-.02-.3-.04-.4-.06-.8-.11-1.2-.16-.09-.01-.18-.02-.27-.04-.51-.06-1-.11-1.5-.14-.68-.05-1.36-.09-2-.09-.47,0-.86.08-1.3.1-.44-2.13-.66-4.47-.62-6.73ZM194.59,326.92c-.95-.17-1.9-.38-2.85-.64-3.9-1.06-7.6-2.85-9.5-4.97.33-.26.69-.5,1.09-.74.75-.44,1.62-.83,2.56-1.17.92-.33,1.91-.62,2.96-.85.46-.1.92-.2,1.4-.28.03,0,.05,0,.08-.01.49-.08.99-.17,1.49-.23.2-.02.41-.04.61-.06,1.07-.11,2.15-.18,3.2-.18,2.13,0,4.14.24,5.8.72.48.14.94.29,1.35.48.11.52.2,1.04.35,1.57.26.96.58,1.93.93,2.91-.46.13-.93.3-1.4.45-.65.21-1.3.42-1.94.67-1.16.45-2.26.97-3.3,1.55-.56.31-1.13.62-1.63.96-.39-.05-.78-.1-1.18-.17ZM191.42,310.91c.04-.69.11-1.37.2-2.03.31-2.25.88-4.29,1.76-5.73,3.03,2.09,5.9,7.24,7.31,12.11-1.88-.37-3.73-.47-5.09-.47-.61,0-1.25.02-1.92.06-.51.03-1.04.08-1.58.13-.23.02-.45.05-.68.08-.1-1.38-.09-2.78,0-4.15ZM252.55,334.59c-4.52,0-9.23-1.07-11.27-3.05-3,.25-6.55,1.42-9.92,3.12,2.52,2.03,3.83,3.73,3.83,3.73,0,0-.82.42-3.83,2.38-1.32-1.46-2.64-2.71-3.93-3.79-1.97,1.32-3.77,2.78-5.14,4.32-1.93-.76-4.94-1.67-4.94-1.67,0,0,2.2-2.73,6.22-5.42-3.16-1.93-4.99-2.47-7.25-2.91-1.92,1.31-5.72,2.12-9.7,2.12s-7.97-.78-10.57-2.64c.17-.18.39-.36.59-.53.47-.41.99-.81,1.61-1.18.13-.08.28-.15.41-.22,1.12-.64,2.42-1.21,3.8-1.7,1.23-.44,2.51-.81,3.78-1.11.63-.15,1.26-.28,1.87-.38,0-.01,0-.02.01-.04-.37-.89-.73-1.8-1.07-2.71-.42-1.15-.8-2.29-1.1-3.4-.22-.84-.38-1.65-.49-2.43-.17-1.28-.18-2.48.09-3.52,5.35,1.75,11.48,9.6,11.74,14.87,4.53.64,7.24,1.82,10.19,3.56,3.48-1.69,7.05-3.53,12.05-3.53-.24-4.95,6.95-13.55,12.07-15.46.39,1.26.37,2.86.1,4.6-.1.63-.23,1.27-.39,1.92-.48,2.01-1.2,4.09-1.97,5.98-.09.23-.18.47-.28.69.22.06.45.14.68.22,1.38.43,2.84.97,4.25,1.59,1.44.64,2.8,1.36,3.99,2.14.13.09.26.18.39.27.75.52,1.41,1.05,1.93,1.61.27.28.52.57.72.85-2,1.19-5.18,1.75-8.46,1.75ZM263.51,328.84c-.67.06-1.34.1-2.01.11-.17-.14-.35-.27-.52-.41-.6-.47-1.23-.91-1.9-1.32-1.03-.63-2.11-1.2-3.16-1.69-.69-.32-1.36-.6-1.99-.86-.31-.12-.62-.25-.91-.36.22-.61.4-1.26.59-1.89.26-.84.47-1.68.67-2.53.3-.06.6-.11.93-.15.18-.02.37-.03.56-.05.4-.03.77-.1,1.2-.1.1,0,.21.02.31.02.54,0,1.09.04,1.66.09,1.72.17,3.54.53,5.33,1.06.48.14.96.29,1.43.46.49.17.95.35,1.42.54.42.17.84.33,1.24.51.76.35,1.47.74,2.14,1.14.61.37,1.18.76,1.68,1.17.47.38.9.78,1.26,1.18-2.19,1.68-6.02,2.74-9.92,3.08ZM255.76,316.67c.09-.37.19-.74.3-1.12,1.28-4.44,3.67-8.92,6.3-10.91.85,1.27,1.46,3.04,1.86,5.02.06.28.12.56.17.84.08.49.14.99.2,1.5.06.5.1,1,.13,1.51.06,1.03.08,2.07.04,3.1-.01.38-.04.76-.07,1.13-1.99-.55-3.97-.9-5.8-1.06-.53-.04-1.06-.07-1.56-.08-.11,0-.24-.02-.35-.02-.45,0-.8.06-1.21.09ZM272.72,321.29c-.85-.57-1.76-1.1-2.74-1.57-.77-.37-1.57-.71-2.39-1.02.04-.4.1-.78.13-1.19.04-.59.02-1.19.03-1.79,0-.83-.01-1.64-.07-2.47.31-.01.6-.03.91-.03.66,0,1.33.03,2.01.07.77.05,1.53.14,2.29.24,1.87.26,3.66.69,5.22,1.27.63.23,1.22.49,1.76.77.54.28,1.04.58,1.47.91.02.01.04.02.06.04-1.75,1.99-5.09,3.68-8.68,4.77ZM285.96,309.41c-.32.32-.67.62-1.02.93-1.07.93-2.25,1.82-3.53,2.62-.17-.09-.34-.17-.52-.25-.98-.48-2.03-.89-3.14-1.22-.54-.16-1.09-.32-1.65-.44-.42-.1-.84-.18-1.26-.25-.59-.11-1.18-.2-1.76-.28-.05,0-.1-.01-.14-.02-.62-.08-1.23-.14-1.84-.18-.86-.06-1.71-.11-2.5-.11h0c-.36,0-.76,0-1.18.02.21-.26.46-.5.73-.75.35-.31.76-.6,1.2-.89.81-.53,1.75-1.01,2.78-1.43.47-.19.95-.37,1.45-.55.3-.1.6-.2.91-.29.18-.06.37-.11.56-.16.29-.08.58-.16.88-.23.39-.1.78-.19,1.17-.28.09-.02.17-.03.26-.05.42-.08.84-.17,1.27-.23.51-.08,1.02-.15,1.52-.21,1.04-.11,2.06-.18,3.04-.18.35,0,.65.06.99.07.51.02,1.03.05,1.51.11.45.06.84.15,1.25.24.08.02.15.04.23.06.51.12,1.06.22,1.5.4.01,0,.03,0,.04.01-.57,1.17-1.55,2.38-2.74,3.55ZM289.42,302.95c-.57-.21-1.2-.37-1.86-.51.12-1.47.15-2.97.07-4.47-.03-.5-.08-1-.13-1.49-.05-.52-.09-1.03-.16-1.53-.04-.26-.1-.5-.15-.75,1-.51,2-.96,2.99-1.33.84-.31,1.66-.55,2.45-.72.71-.16,1.39-.26,2.02-.29.15,0,.31-.04.45-.04.08,0,.17,0,.25,0-.3,3.29-2.85,7.7-5.94,11.14ZM292.8,289.03c-2.02.35-4.19,1.08-6.34,2.12-.26-.86-.56-1.65-.9-2.39-.28-.6-.56-1.21-.9-1.7l-.73-1.07-1-1.46-.08-.12-1.19.92-1.35,1.04c-1,.77-1.94,1.88-2.83,3.11-1.03-5.49-.31-12.92,2.15-16.5.35.27.68.67,1.01,1.02.44.46.87.96,1.28,1.53.48.67.94,1.37,1.37,2.15.91,1.65,1.71,3.49,2.31,5.39,1.97-2.72,4.52-5.28,7.03-6.96.48-.32.95-.61,1.43-.86.51-.27,1-.49,1.49-.66.17-.06.35-.14.52-.19.85,3.81-.75,10-3.27,14.63ZM283.84,273c.8-4.14,2.42-8.19,4.51-10.3,1.92,2.14,3.31,6.07,3.95,10.1-2.05,1.15-4.03,2.74-5.76,4.51-.71-1.45-1.62-2.95-2.7-4.3ZM284.64,168.32l2.6-7.99,2.6,7.99h8.41l-6.8,4.94,2.6,8-6.8-4.94-6.8,4.94,2.6-8-6.8-4.94h8.4ZM284.64,201.77l2.6-7.99,2.6,7.99h8.41s-6.8,4.94-6.8,4.94l2.6,7.99-6.8-4.94-6.8,4.94,2.6-7.99-6.8-4.94h8.4ZM276.73,297.32c.11-.29.22-.57.34-.86.2-.49.41-.98.63-1.45.03-.07.07-.14.1-.22.26-.55.53-1.07.82-1.58.03-.05.06-.1.09-.15,1.04-1.81,2.21-3.35,3.45-4.31.69,1.01,1.23,2.35,1.63,3.86.13.49.25,1.01.35,1.53.1.52.19,1.06.26,1.61,0,.02,0,.03,0,.05.06.49.12.99.16,1.5.04.5.07,1,.09,1.5.03,1.1,0,2.19-.07,3.26-.48-.03-.9-.11-1.4-.11-.94,0-1.93.06-2.94.16-.49.05-.99.12-1.49.19-.34.05-.68.08-1.03.14-.15.02-.29.06-.44.09-.43.08-.87.17-1.3.27-.25.05-.5.09-.74.15.17-1.13.43-2.3.77-3.48.21-.72.45-1.44.71-2.14ZM274.83,291.27c.23.49.44,1.01.64,1.54-.04.08-.09.15-.13.23-1.69,3.4-2.87,7.33-3.2,10.85-1.35.49-2.61,1.07-3.75,1.73-.95-5.57.86-14.36,4.16-17.94.86.89,1.62,2.14,2.28,3.57ZM255.13,168.32l2.6-7.99,2.6,7.99h8.4l-6.8,4.94,2.6,8-6.8-4.94-6.8,4.94,2.6-8-6.8-4.94h8.41ZM225.62,168.32l2.6-7.99,2.6,7.99h8.4l-6.8,4.94,2.6,8-6.8-4.94-6.8,4.94,2.6-8-6.8-4.94h8.4ZM196.11,168.32l2.6-7.99,2.6,7.99h8.41l-6.8,4.94,2.6,8-6.8-4.94-6.8,4.94,2.6-8-6.8-4.94h8.41ZM187.49,188.35h81.46v84.55c0,22.49-18.24,40.73-40.73,40.73h0s0,0,0,0c-22.49,0-40.73-18.24-40.73-40.73v-84.55ZM184.33,290.25c2.76,3.62,4.33,10.84,3.89,16.18-.84-.45-1.74-.86-2.69-1.23-.15-3.78-1.65-8.38-3.82-12.33,0-.01-.01-.02-.02-.04.63-1.28,1.35-2.41,2.14-3.23.17.19.33.42.49.64ZM181.64,287.54c-.64.66-1.23,1.47-1.78,2.38-.8-1.13-1.65-2.12-2.53-2.97-.4-.39-.82-.71-1.23-1.02-.2-.15-.39-.36-.6-.5l-.69-.45-1.99-1.3-1.59,2.78c-.49.85-.86,1.88-1.18,2.97-.11-.07-.21-.14-.32-.2-1.64-3.22-2.71-6.61-2.55-9.16,1.83.22,3.98,1.15,6.11,2.47.45-1.48,1.03-2.9,1.66-4.25.36-.76.74-1.48,1.15-2.15.38-.62.76-1.23,1.18-1.75.48-.61.98-1.16,1.5-1.59,2.32,3.16,3.32,9.49,2.87,14.75ZM166.59,168.32l2.6-7.99,2.6,7.99h8.4l-6.8,4.94,2.6,8-6.8-4.94-6.8,4.94,2.6-8-6.8-4.94h8.4ZM166.59,201.77l2.6-7.99,2.6,7.99h8.4s-6.8,4.94-6.8,4.94l2.6,7.99-6.8-4.94-6.8,4.94,2.6-7.99-6.8-4.94h8.4Z"></path></g></svg> 