<?xml version="1.0" encoding="UTF-8"?> <svg xmlns="http://www.w3.org/2000/svg" id="Capa_2" viewBox="0 0 893.21 501.76"><defs><style>.cls-1{fill:#ef9719;}.cls-2{fill:#fff;}.cls-3{fill:#14395f;}.cls-4{fill:#d71124;}.cls-5{fill:#223c6a;}.cls-6{fill:#929090;}.cls-7{fill:#161312;}</style></defs><g id="Capa_1-2"><rect class="cls-2" width="893.21" height="501.76"></rect><path class="cls-5" d="M369.26,116.97v114.72c0,42.54,34.48,77.02,77.02,77.02,0,0,0,0,0-.01h0c42.54.01,77.02-34.47,77.02-77.01v-114.72h-154.05ZM486.86,234.68c0,22.41-18.16,40.57-40.57,40.57h0s0,0,0,0c-22.41,0-40.57-18.17-40.57-40.57v-84.22h81.14v84.22Z"></path><path class="cls-1" d="M486.86,234.68c0,22.41-18.16,40.57-40.57,40.57h0s0,0,0,0c-22.41,0-40.57-18.17-40.57-40.57v-84.22h81.14v84.22Z"></path><polygon class="cls-3" points="453.28 188.52 439.28 188.52 437.82 191.71 454.74 191.71 453.28 188.52"></polygon><polygon class="cls-3" points="454.46 194.89 438.11 194.89 436.65 198.08 455.92 198.08 454.46 194.89"></polygon><polygon class="cls-3" points="451.36 210.82 453.36 201.26 439.2 201.26 441.2 210.82 451.36 210.82"></polygon><path class="cls-3" d="M446.29,223.55c-2.8,0-4.97,2.43-4.66,5.21l3.74,33.31c-.86.36-1.47,1.21-1.47,2.2,0,1.07.71,1.94,1.68,2.25.22.09.45.14.7.14,0,0,0,0,0,0s0,0,0,0c1.32,0,2.39-1.07,2.39-2.39,0-.99-.61-1.84-1.47-2.2l3.75-33.31c.31-2.78-1.86-5.22-4.66-5.22Z"></path><path class="cls-3" d="M436.14,219.57c.7,0,1.32-.31,1.75-.8h16.78c.44.48,1.05.8,1.75.8,1.32,0,2.39-1.07,2.39-2.39s-1.07-2.39-2.39-2.39c-.7,0-1.32.31-1.75.8h-16.78c-.44-.48-1.05-.8-1.75-.8-1.32,0-2.39,1.07-2.39,2.39s1.07,2.39,2.39,2.39Z"></path><path class="cls-4" d="M437.57,183.74h17.44c6.48-6.04.03-11.97,1.66-14.63-1.94.46-2.07,3.75-3.51,5.29-2.49-5.2,3.18-10.01-1.76-16.14.17,4.93-4.54,6.7-5.1,14.01-2.18-4.29.96-8.27-2.13-12.74-.59,4-5.12,5.96-4.48,12.78-2.24-.95-2.19-3.64-4.28-4.12,1.77,3.78-4.06,9.93,2.17,15.55Z"></path><path class="cls-6" d="M494.62,259.01c.11-.29.22-.57.34-.85.2-.49.41-.97.63-1.45.03-.07.07-.14.1-.21.26-.54.53-1.07.82-1.58.03-.05.06-.1.09-.15,1.03-1.8,2.2-3.34,3.44-4.29.69,1.01,1.22,2.34,1.63,3.84.13.49.25,1,.35,1.53.1.52.19,1.05.26,1.6,0,.02,0,.03,0,.05.06.49.12.99.16,1.49.04.5.07.99.09,1.5.03,1.09,0,2.18-.07,3.24-.47-.03-.89-.11-1.4-.11-.94,0-1.92.06-2.92.16-.49.05-.99.12-1.49.19-.34.05-.68.08-1.02.14-.15.03-.29.06-.44.09-.43.08-.86.17-1.29.27-.25.05-.49.09-.74.15.17-1.12.43-2.29.77-3.47.21-.72.45-1.43.71-2.14Z"></path><path class="cls-6" d="M492.72,252.99c.23.49.44,1.01.64,1.54-.04.08-.09.15-.13.23-1.69,3.39-2.86,7.3-3.19,10.81-1.35.49-2.6,1.06-3.73,1.73-.95-5.55.86-14.31,4.15-17.87.85.89,1.61,2.13,2.27,3.56Z"></path><path class="cls-6" d="M482.67,278.22c-.01.38-.04.75-.07,1.13-1.98-.55-3.95-.9-5.78-1.05-.53-.04-1.05-.08-1.55-.08-.11,0-.24-.02-.35-.02-.45,0-.8.06-1.2.09.09-.37.19-.74.29-1.11,1.28-4.42,3.65-8.88,6.27-10.86.84,1.26,1.45,3.03,1.86,5,.06.28.12.55.16.84.08.49.14.99.2,1.49.06.5.09.99.12,1.5.06,1.03.08,2.06.04,3.09Z"></path><path class="cls-6" d="M418.87,276.88c-1.87-.37-3.72-.47-5.07-.47-.6,0-1.25.02-1.91.06-.51.03-1.04.08-1.57.13-.22.02-.45.05-.68.08-.09-1.38-.09-2.77-.01-4.13.04-.69.11-1.36.2-2.02.31-2.24.88-4.27,1.76-5.71,3.02,2.09,5.88,7.21,7.28,12.07Z"></path><path class="cls-6" d="M402.57,251.97c2.75,3.6,4.31,10.79,3.87,16.12-.84-.45-1.73-.86-2.68-1.23-.15-3.76-1.65-8.35-3.8-12.28,0-.01-.01-.02-.02-.04.63-1.28,1.34-2.4,2.13-3.22.17.19.33.42.49.64Z"></path><path class="cls-6" d="M400.67,265.85c-.55-.15-1.11-.26-1.67-.38-.49-.1-.98-.22-1.47-.31-.1-.02-.2-.02-.3-.04-.4-.06-.8-.11-1.2-.16-.09-.01-.18-.02-.26-.03-.5-.06-1-.11-1.49-.14-.68-.05-1.35-.09-2-.09-.47,0-.86.07-1.3.1-.44-2.12-.66-4.45-.62-6.71,0-.54.04-1.06.07-1.59,0-.07,0-.14.01-.2.01-.14.01-.28.02-.41.03-.36.09-.7.14-1.05.01-.09.02-.18.04-.27.03-.18.05-.36.08-.53.07-.39.15-.75.24-1.12.29-1.23.67-2.34,1.18-3.23.26.17.51.39.77.6.42.35.84.74,1.26,1.19.53.57,1.05,1.21,1.55,1.91.28.4.57.82.84,1.25.02.03.03.05.05.08.25.4.48.82.71,1.24.08.15.18.3.26.46.33.62.63,1.25.92,1.89,1.13,2.54,1.92,5.22,2.19,7.55Z"></path><path class="cls-6" d="M399.89,249.26c-.63.66-1.22,1.47-1.77,2.37-.8-1.12-1.64-2.11-2.52-2.96-.4-.39-.81-.71-1.23-1.02-.2-.15-.39-.36-.59-.49l-.69-.45-1.98-1.3-1.59,2.77c-.48.84-.86,1.87-1.18,2.96-.11-.07-.21-.14-.32-.2-1.63-3.21-2.7-6.59-2.54-9.13,1.82.22,3.96,1.14,6.09,2.46.44-1.48,1.03-2.89,1.66-4.23.36-.76.74-1.47,1.14-2.14.38-.62.76-1.22,1.17-1.74.48-.61.98-1.16,1.49-1.59,2.31,3.14,3.31,9.45,2.85,14.7Z"></path><path class="cls-6" d="M387.78,253.63s-.01,0-.02,0c0-.01,0-.02,0-.04,0,.01.01.02.02.03Z"></path><path class="cls-6" d="M383.84,248.84c-.82-.33-1.63-.62-2.42-.82-2.4-4.9-3.72-11.77-2.49-15.73,1.77.67,3.68,2.12,5.48,3.97.55-3.69,1.71-7.2,3.4-9.23,1.89,1.76,3.47,5,4.48,8.51-.98,1.47-1.78,3.05-2.37,4.47-1.44-.62-2.8-1.02-4.07-1.17l-3.17-.39-.2,3.18c-.13,2.06.39,4.58,1.36,7.21Z"></path><path class="cls-6" d="M378.46,250.56c.31.01.64.07.96.12.67.1,1.35.24,2.08.47.92.29,1.89.7,2.85,1.18.47.23.94.48,1.42.75.34.19.68.38,1.02.59.3.19.6.38.9.58-.05.32-.08.65-.12.98-.02.21-.06.42-.08.64-.03.3-.05.58-.07.88-.16,2.79.05,5.71.59,8.42-.47.1-.91.23-1.34.37-4.16-3.8-8.11-10.52-8.2-14.97Z"></path><path class="cls-6" d="M387.95,270.16c-.39-.54-.77-1.08-1.02-1.61.27-.11.61-.15.91-.24.3-.09.6-.18.92-.24.4-.08.81-.16,1.24-.21.08,0,.17,0,.25-.02.5-.05,1.01-.1,1.55-.11.17,0,.31-.03.48-.03.57,0,1.15.03,1.74.07.06,0,.12.01.19.02.5.04,1.01.09,1.52.15.11.01.22.03.34.05.39.05.77.11,1.16.18.18.03.36.07.53.1.98.19,1.95.42,2.88.69.49.14.98.3,1.45.47.48.17.95.35,1.4.54.88.37,1.68.78,2.39,1.22.28.17.55.35.8.53-.04.51-.05,1.03-.07,1.55-.03.83-.04,1.64,0,2.47.02.48.04.96.08,1.43-1.91.41-3.78.99-5.44,1.8-4.79-1.37-10.56-5.09-13.29-8.81Z"></path><path class="cls-6" d="M412.79,288.5c-.95-.17-1.9-.38-2.84-.63-3.88-1.06-7.57-2.84-9.47-4.95.32-.26.69-.5,1.08-.73.74-.44,1.61-.82,2.55-1.16.92-.33,1.91-.62,2.94-.85.46-.1.92-.2,1.39-.28.03,0,.05,0,.08-.01.49-.08.98-.16,1.48-.22.2-.02.41-.04.61-.06,1.07-.11,2.14-.18,3.19-.18,2.12,0,4.12.24,5.78.72.48.14.94.29,1.35.47.11.52.2,1.03.34,1.56.26.96.57,1.92.92,2.89-.46.13-.93.3-1.39.44-.65.21-1.29.42-1.94.67-1.16.45-2.25.97-3.29,1.54-.56.31-1.13.61-1.63.96-.39-.05-.78-.1-1.17-.17Z"></path><path class="cls-6" d="M470.53,296.14c-4.51,0-9.2-1.07-11.23-3.04-2.99.25-6.53,1.41-9.88,3.1,2.51,2.03,3.82,3.71,3.82,3.71,0,0-.82.42-3.81,2.37-1.32-1.46-2.63-2.7-3.92-3.78-1.96,1.32-3.75,2.77-5.12,4.3-1.92-.76-4.92-1.66-4.92-1.66,0,0,2.19-2.72,6.2-5.4-3.15-1.92-4.97-2.46-7.22-2.9-1.91,1.31-5.7,2.11-9.66,2.11s-7.94-.78-10.53-2.63c.17-.18.38-.35.58-.53.47-.41.99-.81,1.6-1.18.13-.08.28-.15.41-.22,1.12-.63,2.41-1.2,3.78-1.69,1.22-.44,2.5-.81,3.76-1.1.63-.15,1.25-.28,1.86-.38,0-.01,0-.03.01-.04-.37-.89-.73-1.79-1.06-2.7-.42-1.14-.8-2.28-1.09-3.39-.22-.83-.38-1.64-.48-2.42-.17-1.28-.18-2.47.09-3.5,5.33,1.75,11.44,9.57,11.69,14.81,4.51.64,7.21,1.82,10.15,3.54,3.46-1.69,7.03-3.51,12-3.52-.23-4.93,6.93-13.5,12.02-15.4.39,1.25.36,2.85.1,4.58-.1.62-.23,1.27-.39,1.92-.48,2-1.2,4.07-1.96,5.96-.09.23-.18.47-.28.69.22.06.45.14.68.21,1.38.43,2.82.96,4.23,1.58,1.43.63,2.79,1.35,3.98,2.13.13.09.26.18.39.27.74.52,1.4,1.05,1.93,1.6.27.28.52.56.72.85-1.99,1.19-5.16,1.75-8.43,1.75Z"></path><path class="cls-6" d="M481.44,290.41c-.67.06-1.34.1-2,.11-.17-.14-.34-.27-.52-.41-.6-.47-1.23-.9-1.89-1.31-1.03-.63-2.1-1.2-3.15-1.69-.69-.32-1.35-.6-1.99-.86-.31-.12-.62-.25-.91-.36.22-.61.4-1.25.59-1.88.26-.84.47-1.67.66-2.52.29-.06.6-.11.92-.15.18-.02.37-.03.56-.05.4-.03.77-.1,1.2-.1.1,0,.21.02.31.02.53,0,1.08.04,1.65.09,1.71.17,3.53.53,5.31,1.06.48.14.95.29,1.42.46.48.17.95.35,1.41.54.41.17.84.33,1.24.51.76.35,1.47.73,2.13,1.13.61.37,1.17.76,1.67,1.16.47.38.9.77,1.25,1.18-2.18,1.68-5.99,2.72-9.88,3.06Z"></path><path class="cls-6" d="M490.62,282.88c-.85-.56-1.75-1.09-2.73-1.56-.77-.37-1.56-.71-2.38-1.01.04-.4.1-.78.13-1.18.04-.59.02-1.19.03-1.79,0-.82-.01-1.64-.07-2.46.3,0,.6-.03.91-.03.66,0,1.33.03,2,.07.76.05,1.52.13,2.28.24,1.86.26,3.64.68,5.2,1.26.63.23,1.22.49,1.76.77.54.28,1.04.58,1.46.9.02.01.04.02.06.04-1.74,1.98-5.07,3.67-8.64,4.76Z"></path><path class="cls-6" d="M503.8,271.06c-.32.31-.67.62-1.02.92-1.07.93-2.25,1.81-3.51,2.61-.17-.09-.34-.17-.52-.25-.98-.48-2.03-.89-3.13-1.22-.54-.16-1.09-.31-1.65-.44-.42-.1-.84-.18-1.26-.25-.59-.11-1.17-.2-1.75-.28-.05,0-.09-.01-.14-.02-.62-.08-1.23-.14-1.83-.18-.86-.06-1.7-.11-2.49-.11h0c-.36,0-.76,0-1.18.02.21-.25.45-.5.73-.74.35-.31.76-.6,1.2-.89.8-.52,1.74-1,2.77-1.43.46-.19.94-.37,1.44-.54.3-.1.6-.2.91-.29.18-.06.37-.11.56-.16.29-.08.58-.16.87-.23.39-.1.77-.19,1.17-.27.09-.02.17-.03.26-.05.42-.08.84-.17,1.26-.23.51-.08,1.01-.15,1.52-.21,1.03-.11,2.05-.17,3.03-.17.35,0,.65.06.99.07.51.02,1.02.05,1.5.11.44.06.84.15,1.25.24.08.02.15.04.23.06.51.12,1.05.22,1.49.4.01,0,.03,0,.04.01-.57,1.17-1.54,2.37-2.73,3.54Z"></path><path class="cls-6" d="M507.25,264.62c-.57-.21-1.2-.37-1.85-.51.12-1.47.15-2.96.07-4.45-.03-.5-.08-.99-.13-1.49-.05-.51-.09-1.03-.16-1.53-.04-.26-.1-.5-.15-.75.99-.51,2-.96,2.98-1.32.84-.31,1.65-.55,2.45-.72.71-.16,1.38-.26,2.02-.29.15,0,.31-.04.45-.04.08,0,.17,0,.25,0-.3,3.28-2.84,7.67-5.92,11.1Z"></path><path class="cls-6" d="M510.62,250.76c-2.01.35-4.17,1.07-6.31,2.11-.26-.85-.56-1.65-.9-2.38-.28-.6-.56-1.2-.9-1.7l-.72-1.06-.99-1.46-.08-.11-1.19.91-1.34,1.03c-1,.77-1.93,1.87-2.82,3.1-1.03-5.47-.3-12.87,2.14-16.44.35.27.67.67,1.01,1.02.44.46.86.95,1.27,1.53.48.66.93,1.36,1.36,2.15.9,1.64,1.7,3.48,2.3,5.37,1.96-2.71,4.51-5.26,7.01-6.93.48-.32.95-.6,1.42-.85.5-.27,1-.49,1.48-.66.17-.06.35-.14.52-.19.85,3.8-.75,9.96-3.26,14.57Z"></path><path class="cls-6" d="M501.7,234.79c.8-4.12,2.41-8.16,4.49-10.26,1.91,2.13,3.3,6.04,3.93,10.06-2.04,1.14-4.02,2.73-5.74,4.49-.71-1.44-1.62-2.94-2.69-4.28Z"></path><polygon class="cls-6" points="509.27 135.43 511.86 143.4 505.08 138.47 498.31 143.4 500.9 135.43 494.12 130.51 502.5 130.51 505.08 122.55 507.67 130.51 516.04 130.51 509.27 135.43"></polygon><polygon class="cls-6" points="479.87 135.43 482.46 143.4 475.68 138.47 468.91 143.4 471.5 135.43 464.72 130.51 473.1 130.51 475.68 122.55 478.27 130.51 486.64 130.51 479.87 135.43"></polygon><polygon class="cls-6" points="450.47 135.43 453.06 143.4 446.29 138.47 439.51 143.4 442.1 135.43 435.33 130.51 443.7 130.51 446.29 122.55 448.87 130.51 457.25 130.51 450.47 135.43"></polygon><polygon class="cls-6" points="421.07 135.43 423.66 143.4 416.89 138.47 410.11 143.4 412.7 135.43 405.93 130.51 414.3 130.51 416.89 122.55 419.47 130.51 427.85 130.51 421.07 135.43"></polygon><polygon class="cls-6" points="391.67 135.43 394.26 143.4 387.49 138.47 380.71 143.4 383.3 135.43 376.53 130.51 384.9 130.51 387.49 122.55 390.07 130.51 398.45 130.51 391.67 135.43"></polygon><polygon class="cls-6" points="509.27 168.75 511.86 176.71 505.08 171.79 498.31 176.71 500.9 168.75 494.12 163.83 502.5 163.83 505.08 155.87 507.67 163.83 516.04 163.83 509.27 168.75"></polygon><polygon class="cls-6" points="391.67 168.75 394.26 176.71 387.49 171.79 380.71 176.71 383.3 168.75 376.53 163.83 384.9 163.83 387.49 155.87 390.07 163.83 398.45 163.83 391.67 168.75"></polygon><path class="cls-7" d="M161.69,330.01h7.2v26.06c0,2.91.28,5.04.83,6.38.86,2.38,2.72,3.57,5.6,3.57s4.72-1.19,5.58-3.57c.55-1.34.83-3.47.83-6.38v-26.06h7.2v26.08c0,4.51-.56,8.02-1.68,10.54-2.08,4.61-6.06,6.91-11.93,6.91s-9.86-2.3-11.95-6.91c-1.12-2.51-1.68-6.03-1.68-10.54v-26.08Z"></path><path class="cls-7" d="M213.58,342.86c1.64,1.7,2.46,4.52,2.46,8.45v21.13h-6.72v-19.08c0-1.65-.17-2.92-.53-3.8-.64-1.61-1.86-2.42-3.66-2.42-2.21,0-3.73,1.18-4.55,3.54-.43,1.25-.64,2.84-.64,4.78v16.98h-6.56v-31.32h6.36v4.58c.84-1.61,1.63-2.77,2.39-3.48,1.34-1.27,3.05-1.9,5.11-1.9,2.58,0,4.7.85,6.34,2.55Z"></path><path class="cls-7" d="M227,337.32h-6.66v-7.57h6.66v7.57ZM220.34,341.06h6.66v31.38h-6.66v-31.38Z"></path><path class="cls-7" d="M246.93,341.06h7.05l-9.06,31.38h-6.92l-9-31.38h7.37l5.23,23.14,5.34-23.14Z"></path><path class="cls-7" d="M272.17,341.7c1.75.98,3.2,2.53,4.34,4.64,1.03,1.86,1.69,4.03,2,6.48.17,1.44.25,3.52.21,6.23h-18.28c.1,3.15.98,5.35,2.63,6.62,1,.79,2.21,1.18,3.62,1.18,1.49,0,2.71-.48,3.64-1.44.51-.52.96-1.24,1.35-2.16h6.7c-.18,1.86-.99,3.75-2.43,5.67-2.25,3.05-5.4,4.58-9.44,4.58-3.34,0-6.29-1.29-8.84-3.86-2.55-2.57-3.83-6.76-3.83-12.56,0-5.43,1.15-9.6,3.46-12.5,2.31-2.9,5.3-4.35,8.98-4.35,2.18,0,4.15.49,5.9,1.47ZM262.35,348.79c-.93,1.19-1.51,2.81-1.75,4.86h11.3c-.12-2.18-.7-3.83-1.75-4.96-1.04-1.13-2.34-1.69-3.89-1.69-1.68,0-2.99.6-3.91,1.79Z"></path><path class="cls-7" d="M294.1,340.33c.08.01.27.02.56.04v8.41c-.42-.06-.79-.1-1.11-.12s-.58-.03-.78-.03c-2.64,0-4.42,1.08-5.32,3.22-.51,1.21-.76,3.07-.76,5.58v15h-6.61v-31.38h6.26v5.47c1.02-2.09,1.9-3.52,2.65-4.29,1.23-1.29,2.83-1.93,4.79-1.93.12,0,.23,0,.31.01Z"></path><path class="cls-7" d="M301.71,362.42c.14,1.46.44,2.49.9,3.11.82,1.09,2.33,1.64,4.54,1.64,1.3,0,2.32-.24,3.09-.72.76-.48,1.14-1.2,1.14-2.16s-.3-1.62-.92-2.1-2.9-1.31-6.87-2.48c-2.85-.88-4.86-1.99-6.03-3.31-1.16-1.31-1.75-3.18-1.75-5.64,0-2.9.91-5.39,2.73-7.47,1.82-2.08,4.39-3.12,7.69-3.12s5.7.78,7.67,2.35c1.98,1.56,3.11,4.26,3.4,8.1h-6.56c-.09-1.05-.33-1.89-.72-2.5-.72-1.11-1.95-1.67-3.69-1.67-1.44,0-2.45.28-3.06.83-.61.56-.91,1.21-.91,1.96,0,.94.32,1.62.97,2.04.65.44,2.93,1.2,6.85,2.27,2.62.77,4.57,1.93,5.88,3.48,1.29,1.57,1.93,3.54,1.93,5.9,0,3.11-.93,5.65-2.78,7.61-1.85,1.97-4.72,2.95-8.59,2.95s-6.87-1.04-8.76-3.12c-1.88-2.08-2.83-4.74-2.83-7.96h6.65Z"></path><path class="cls-7" d="M327.71,337.32h-6.66v-7.57h6.66v7.57ZM321.06,341.06h6.66v31.38h-6.66v-31.38Z"></path><path class="cls-7" d="M345.49,341.57c1.18.83,2.14,1.99,2.88,3.47v-14.97h6.65v42.37h-6.38v-4.35c-.94,1.86-2,3.21-3.2,4.06-1.2.85-2.69,1.27-4.47,1.27-2.93,0-5.4-1.48-7.4-4.45-2.01-2.96-3.01-6.77-3.01-11.41,0-5.35.99-9.57,2.96-12.64,1.97-3.07,4.61-4.61,7.91-4.61,1.52,0,2.87.42,4.05,1.25ZM347.11,363.92c.97-1.73,1.45-3.96,1.45-6.71,0-3.84-.77-6.58-2.32-8.23-.95-1-2.06-1.5-3.32-1.5-1.92,0-3.33.91-4.22,2.72-.9,1.81-1.35,4.06-1.35,6.75,0,2.9.46,5.21,1.37,6.95s2.3,2.61,4.16,2.61,3.27-.86,4.24-2.59Z"></path><path class="cls-7" d="M369.05,353.35c1.22-.19,2.1-.43,2.62-.72.94-.5,1.41-1.28,1.41-2.33,0-1.29-.36-2.17-1.09-2.66s-1.78-.73-3.19-.73c-1.57,0-2.69.48-3.34,1.44-.46.71-.78,1.67-.93,2.88h-6.33c.14-2.74.76-5,1.85-6.76,1.74-2.76,4.73-4.15,8.98-4.15,2.76,0,5.21.68,7.35,2.04,2.14,1.36,3.22,3.93,3.22,7.71v14.39c0,1,.01,2.21.05,3.63.05,1.08.18,1.8.39,2.19.21.38.54.7.97.95v1.21h-7.14c-.2-.63-.34-1.23-.41-1.78-.08-.56-.14-1.19-.19-1.9-.91,1.23-1.96,2.27-3.15,3.14-1.42,1.02-3.03,1.53-4.82,1.53-2.29,0-4.17-.81-5.66-2.43-1.49-1.62-2.24-3.92-2.24-6.89,0-3.86,1.2-6.65,3.6-8.38,1.32-.94,3.25-1.61,5.8-2.01l2.25-.35ZM373.06,357.18c-.42.33-.84.59-1.27.79s-1.02.39-1.76.56l-1.49.35c-1.4.31-2.41.68-3.02,1.12-1.03.75-1.55,1.91-1.55,3.48,0,1.4.32,2.41.95,3.04.63.62,1.4.94,2.3.94,1.44,0,2.76-.52,3.96-1.55,1.2-1.04,1.83-2.93,1.88-5.67v-3.05Z"></path><path class="cls-7" d="M396.76,341.57c1.18.83,2.14,1.99,2.88,3.47v-14.97h6.65v42.37h-6.38v-4.35c-.94,1.86-2,3.21-3.2,4.06-1.2.85-2.69,1.27-4.47,1.27-2.93,0-5.4-1.48-7.4-4.45-2.01-2.96-3.01-6.77-3.01-11.41,0-5.35.99-9.57,2.96-12.64,1.97-3.07,4.61-4.61,7.91-4.61,1.52,0,2.87.42,4.05,1.25ZM398.37,363.92c.97-1.73,1.45-3.96,1.45-6.71,0-3.84-.77-6.58-2.32-8.23-.95-1-2.06-1.5-3.32-1.5-1.92,0-3.33.91-4.22,2.72-.9,1.81-1.35,4.06-1.35,6.75,0,2.9.46,5.21,1.37,6.95s2.3,2.61,4.16,2.61,3.27-.86,4.24-2.59Z"></path><path class="cls-7" d="M434.9,341.57c1.18.83,2.14,1.99,2.88,3.47v-14.97h6.65v42.37h-6.38v-4.35c-.94,1.86-2,3.21-3.2,4.06-1.2.85-2.69,1.27-4.47,1.27-2.93,0-5.4-1.48-7.4-4.45-2.01-2.96-3.01-6.77-3.01-11.41,0-5.35.99-9.57,2.96-12.64,1.97-3.07,4.61-4.61,7.91-4.61,1.52,0,2.87.42,4.05,1.25ZM436.51,363.92c.97-1.73,1.45-3.96,1.45-6.71,0-3.84-.77-6.58-2.32-8.23-.95-1-2.06-1.5-3.32-1.5-1.92,0-3.33.91-4.22,2.72-.9,1.81-1.35,4.06-1.35,6.75,0,2.9.46,5.21,1.37,6.95.91,1.74,2.3,2.61,4.16,2.61s3.27-.86,4.24-2.59Z"></path><path class="cls-7" d="M464.86,341.7c1.75.98,3.2,2.53,4.34,4.64,1.03,1.86,1.69,4.03,2,6.48.17,1.44.25,3.52.21,6.23h-18.28c.1,3.15.98,5.35,2.63,6.62,1,.79,2.21,1.18,3.62,1.18,1.49,0,2.71-.48,3.64-1.44.51-.52.96-1.24,1.35-2.16h6.7c-.18,1.86-.99,3.75-2.43,5.67-2.25,3.05-5.4,4.58-9.44,4.58-3.34,0-6.29-1.29-8.84-3.86-2.55-2.57-3.83-6.76-3.83-12.56,0-5.43,1.15-9.6,3.46-12.5,2.31-2.9,5.3-4.35,8.98-4.35,2.18,0,4.15.49,5.9,1.47ZM455.05,348.79c-.93,1.19-1.51,2.81-1.75,4.86h11.3c-.12-2.18-.7-3.83-1.75-4.96-1.04-1.13-2.34-1.69-3.89-1.69-1.68,0-2.99.6-3.91,1.79Z"></path><path class="cls-7" d="M487.84,334.44c2.73-3.49,6.21-5.24,10.43-5.24,5.65,0,9.78,2.34,12.39,7.02,1.44,2.63,2.22,5.27,2.32,7.92h-7.09c-.45-2.03-1.03-3.57-1.74-4.61-1.26-1.84-3.13-2.76-5.62-2.76s-4.52,1.3-5.98,3.9c-1.46,2.6-2.19,6.28-2.19,11.04s.77,8.32,2.31,10.69c1.54,2.37,3.5,3.56,5.87,3.56s4.28-1.02,5.56-3.05c.7-1.09,1.29-2.73,1.76-4.92h7.05c-.61,4.62-2.16,8.39-4.66,11.28-2.5,2.9-5.7,4.35-9.6,4.35-4.83,0-8.63-1.96-11.39-5.87-2.76-3.93-4.15-9.33-4.15-16.18,0-7.41,1.57-13.12,4.72-17.13Z"></path><path class="cls-7" d="M537.17,368.6c-2.12,3.27-5.33,4.9-9.65,4.9s-7.53-1.63-9.65-4.9c-2.12-3.27-3.17-7.2-3.17-11.81s1.06-8.45,3.17-11.76c2.12-3.32,5.34-4.98,9.65-4.98s7.53,1.66,9.65,4.98c2.12,3.32,3.18,7.24,3.18,11.76s-1.06,8.54-3.18,11.81ZM531.92,364.07c1.03-1.71,1.55-4.13,1.55-7.27s-.52-5.56-1.55-7.26c-1.03-1.69-2.5-2.54-4.42-2.54s-3.4.85-4.43,2.54c-1.04,1.7-1.55,4.12-1.55,7.26s.52,5.57,1.55,7.27c1.04,1.7,2.51,2.56,4.43,2.56s3.39-.85,4.42-2.56Z"></path><path class="cls-7" d="M563.41,342.86c1.64,1.7,2.46,4.52,2.46,8.45v21.13h-6.72v-19.08c0-1.65-.17-2.92-.53-3.8-.64-1.61-1.86-2.42-3.66-2.42-2.21,0-3.73,1.18-4.55,3.54-.43,1.25-.64,2.84-.64,4.78v16.98h-6.56v-31.32h6.36v4.58c.84-1.61,1.63-2.77,2.39-3.48,1.34-1.27,3.05-1.9,5.11-1.9,2.58,0,4.7.85,6.34,2.55Z"></path><path class="cls-7" d="M585.1,352.32c-.12-1.17-.44-2.23-.95-3.17-.74-1.27-1.89-1.9-3.44-1.9-2.22,0-3.73,1.37-4.54,4.12-.43,1.46-.65,3.39-.65,5.8s.22,4.15.65,5.54c.78,2.61,2.26,3.91,4.43,3.91,1.54,0,2.63-.52,3.28-1.55.65-1.04,1.04-2.38,1.18-4.03h6.7c-.15,2.49-.88,4.85-2.17,7.08-2.06,3.59-5.11,5.38-9.15,5.38s-7.02-1.5-8.92-4.49c-1.91-2.99-2.86-6.88-2.86-11.64,0-5.38,1.05-9.57,3.16-12.56,2.1-2.99,5.01-4.49,8.71-4.49,3.15,0,5.73.88,7.74,2.65,2.01,1.77,3.19,4.88,3.56,9.36h-6.72Z"></path><path class="cls-7" d="M610.78,341.7c1.75.98,3.2,2.53,4.34,4.64,1.03,1.86,1.69,4.03,2,6.48.17,1.44.25,3.52.21,6.23h-18.28c.1,3.15.98,5.35,2.63,6.62,1,.79,2.21,1.18,3.62,1.18,1.49,0,2.71-.48,3.64-1.44.51-.52.96-1.24,1.35-2.16h6.7c-.18,1.86-.99,3.75-2.43,5.67-2.25,3.05-5.4,4.58-9.44,4.58-3.34,0-6.29-1.29-8.84-3.86-2.55-2.57-3.83-6.76-3.83-12.56,0-5.43,1.15-9.6,3.46-12.5,2.31-2.9,5.3-4.35,8.98-4.35,2.18,0,4.15.49,5.9,1.47ZM600.97,348.79c-.93,1.19-1.51,2.81-1.75,4.86h11.3c-.12-2.18-.7-3.83-1.75-4.96-1.04-1.13-2.34-1.69-3.89-1.69-1.68,0-2.99.6-3.91,1.79Z"></path><path class="cls-7" d="M639.88,344.43c2.05,2.71,3.07,6.68,3.07,11.92,0,5.53-1,9.74-3,12.64-2,2.9-4.58,4.35-7.73,4.35-2.01,0-3.68-.62-5-1.87-.73-.69-1.44-1.7-2.13-3.02v16.35h-6.49v-43.73h6.29v4.63c.71-1.36,1.47-2.44,2.27-3.22,1.47-1.4,3.22-2.1,5.24-2.1,2.95,0,5.45,1.35,7.5,4.06ZM634.84,350.33c-.89-1.86-2.34-2.79-4.34-2.79-2.41,0-4.05,1.41-4.96,4.23-.46,1.5-.7,3.4-.7,5.7,0,3.65.79,6.21,2.35,7.69.93.86,2.03,1.3,3.31,1.3,1.85,0,3.25-.88,4.22-2.65.97-1.77,1.45-4.12,1.45-7.05,0-2.42-.44-4.56-1.34-6.42Z"></path><path class="cls-7" d="M660.71,352.32c-.12-1.17-.44-2.23-.95-3.17-.74-1.27-1.89-1.9-3.44-1.9-2.22,0-3.73,1.37-4.54,4.12-.43,1.46-.65,3.39-.65,5.8s.22,4.15.65,5.54c.78,2.61,2.26,3.91,4.43,3.91,1.54,0,2.63-.52,3.28-1.55.65-1.04,1.04-2.38,1.18-4.03h6.7c-.15,2.49-.88,4.85-2.17,7.08-2.06,3.59-5.11,5.38-9.15,5.38s-7.02-1.5-8.92-4.49c-1.91-2.99-2.86-6.88-2.86-11.64,0-5.38,1.05-9.57,3.16-12.56,2.1-2.99,5.01-4.49,8.71-4.49,3.15,0,5.73.88,7.74,2.65s3.19,4.88,3.56,9.36h-6.72Z"></path><path class="cls-7" d="M676.78,337.32h-6.66v-7.57h6.66v7.57ZM670.13,341.06h6.66v31.38h-6.66v-31.38Z"></path><path class="cls-7" d="M702.18,368.6c-2.12,3.27-5.33,4.9-9.65,4.9s-7.53-1.63-9.65-4.9c-2.12-3.27-3.17-7.2-3.17-11.81s1.06-8.45,3.17-11.76c2.12-3.32,5.34-4.98,9.65-4.98s7.53,1.66,9.65,4.98c2.12,3.32,3.18,7.24,3.18,11.76s-1.06,8.54-3.18,11.81ZM696.93,364.07c1.03-1.71,1.55-4.13,1.55-7.27s-.52-5.56-1.55-7.26c-1.03-1.69-2.5-2.54-4.42-2.54s-3.4.85-4.43,2.54c-1.04,1.7-1.55,4.12-1.55,7.26s.52,5.57,1.55,7.27c1.04,1.7,2.51,2.56,4.43,2.56s3.39-.85,4.42-2.56ZM700.39,328.23l-7,8.61h-4.75l4.42-8.61h7.32Z"></path><path class="cls-7" d="M728.42,342.86c1.64,1.7,2.46,4.52,2.46,8.45v21.13h-6.72v-19.08c0-1.65-.17-2.92-.53-3.8-.64-1.61-1.86-2.42-3.66-2.42-2.21,0-3.73,1.18-4.55,3.54-.43,1.25-.64,2.84-.64,4.78v16.98h-6.56v-31.32h6.36v4.58c.84-1.61,1.63-2.77,2.39-3.48,1.34-1.27,3.05-1.9,5.11-1.9,2.58,0,4.7.85,6.34,2.55Z"></path></g></svg> 