<?xml version="1.0" encoding="UTF-8"?> <svg xmlns="http://www.w3.org/2000/svg" id="Capa_2" viewBox="0 0 893.21 501.76"><defs><style>.cls-1{fill:#1d1d1b;}.cls-2{fill:#ef9719;}.cls-3{fill:#fff;}.cls-4{fill:#14395f;}.cls-5{fill:#d71124;}.cls-6{fill:#223c6a;}.cls-7{fill:#929090;}</style></defs><g id="Capa_1-2"><rect class="cls-3" width="893.21" height="501.76"></rect><path class="cls-1" d="M372.4,218.64c0,7.07-1.63,12.19-4.87,15.33-3.25,3.14-7.61,4.71-13.11,4.71-.99,0-2.05-.09-3.19-.26-1.14-.18-2.33-.48-3.56-.93-1.29-.39-2.55-1.02-3.79-1.86-1.24-.84-2.35-1.95-3.34-3.34-1.19-1.64-2.03-3.53-2.52-5.68-.5-2.16-.8-4.57-.89-7.24v-35.41h9.35v34.6c0,3.76.76,6.49,2.26,8.2,1.51,1.71,3.33,2.56,5.46,2.56,3.17,0,5.43-.89,6.79-2.67,1.36-1.78,2.04-4.28,2.04-7.5v-35.19h9.36v34.67Z"></path><path class="cls-1" d="M407.76,209.96v27.32h-8.54v-23.98c0-.35-.02-.77-.04-1.26-.02-.5-.06-1.02-.11-1.56-.19-1.18-.67-2.3-1.41-3.34-.74-1.04-2.08-1.55-4.01-1.55s-3.46.77-4.75,2.3c-1.29,1.54-1.93,3.82-1.93,6.83v22.57h-8.54v-39.5h8.17v5.79h.15c.2-.35.43-.74.67-1.19.25-.44.55-.91.89-1.41.74-1.04,1.77-1.99,3.08-2.85,1.31-.87,3.01-1.31,5.09-1.31,3.17,0,5.84,1.12,8.02,3.34s3.27,5.52,3.27,9.88v-.07Z"></path><path class="cls-1" d="M421.81,193.1h-8.47v-9.65h8.47v9.65ZM421.81,197.78v39.5h-8.47v-39.5h8.47Z"></path><path class="cls-1" d="M444.84,237.28h-8.98l-11.58-39.5h9.5l6.69,29.11h.07l6.9-29.11h9.06l-11.66,39.5Z"></path><path class="cls-1" d="M477.3,225.69h8.76c-.94,3.96-2.47,6.88-4.57,8.77-2.1,1.88-4.34,3.07-6.72,3.56-.49.1-.99.18-1.48.23s-.99.07-1.48.07c-4.56,0-8.38-1.56-11.47-4.68-3.09-3.12-4.64-8.73-4.64-16.85,0-.98.09-2.32.26-4,.18-1.68.56-3.44,1.15-5.28.89-2.67,2.41-5.12,4.57-7.35,2.15-2.22,5.33-3.34,9.54-3.34.69,0,1.41.05,2.15.15.74.1,1.49.27,2.23.52,2.72.8,5.2,2.74,7.46,5.83,2.25,3.09,3.38,8.18,3.38,15.26v1.78h-22.19c.05.59.11,1.25.19,1.97.07.72.21,1.47.4,2.26.4,1.39,1.12,2.65,2.16,3.79,1.04,1.14,2.64,1.71,4.83,1.71h.3c1.14-.05,2.21-.44,3.22-1.18,1.02-.75,1.68-1.79,1.97-3.12v-.08ZM477.67,213.59c-.2-2.57-.81-4.48-1.82-5.72-1.02-1.23-2.12-2-3.3-2.3-.25-.1-.5-.16-.74-.19-.25-.02-.5-.04-.74-.04-1.98,0-3.52.73-4.61,2.18-1.09,1.44-1.76,3.46-2.01,6.07h13.22Z"></path><path class="cls-1" d="M490.03,197.78h8.17v6.83h.15c.89-1.98,1.96-3.77,3.19-5.38,1.24-1.61,3.15-2.42,5.72-2.42.25,0,.51.02.78.04s.56.06.85.11v10.46c-.25,0-.51,0-.78-.03s-.56-.04-.85-.04h-.81c-2.92,0-4.91.81-5.98,2.45-1.06,1.64-1.68,3.44-1.82,5.42-.05.25-.07.51-.07.78v21.27h-8.54v-39.5Z"></path><path class="cls-1" d="M538.36,209.81h-8.31c-.05-.15-.07-.25-.07-.3-.2-1.23-.64-2.35-1.34-3.34-.69-.98-2.13-1.48-4.31-1.48-1.93,0-3.24.31-3.93.93-.69.62-1.09,1.31-1.19,2.05-.05.15-.07.3-.07.44v.44c0,1.14.58,1.98,1.75,2.53,1.16.54,2.59,1.02,4.27,1.41.64.15,1.31.31,2,.48.69.17,1.41.38,2.16.63,2.52.69,4.83,1.82,6.94,3.38,2.1,1.56,3.16,4.17,3.16,7.84,0,3.96-.9,6.9-2.71,8.83-1.81,1.93-3.8,3.22-5.98,3.87-.99.3-1.96.51-2.9.63-.93.12-1.8.19-2.59.19h-.71c-.22,0-.46-.02-.7-.07-3.52-.15-6.73-1.2-9.65-3.16-2.92-1.96-4.44-5.41-4.54-10.36l8.77-.07c0,1.73.51,3.15,1.52,4.24,1.02,1.09,2.86,1.63,5.53,1.63,1.54,0,2.7-.26,3.5-.77.79-.52,1.31-1.1,1.55-1.75.15-.3.25-.58.3-.85s.07-.51.07-.71c0-1.23-.6-2.13-1.82-2.67-1.21-.55-2.68-1.04-4.41-1.49-.6-.15-1.22-.29-1.85-.44-.64-.15-1.29-.32-1.93-.52-2.52-.75-4.84-1.89-6.94-3.42-2.1-1.54-3.16-4.16-3.16-7.87,0-.55.02-1.09.08-1.64.05-.55.12-1.09.22-1.64.5-2.47,1.71-4.75,3.64-6.83,1.93-2.08,4.98-3.12,9.14-3.12.44,0,.89.02,1.34.04.44.02.91.06,1.41.11,2.82.3,5.41,1.32,7.79,3.08s3.71,5.04,4.01,9.84v-.07Z"></path><path class="cls-1" d="M551.9,193.1h-8.47v-9.65h8.47v9.65ZM551.9,197.78v39.5h-8.47v-39.5h8.47Z"></path><path class="cls-1" d="M587.5,237.28h-8.39v-4.97h-.07c-.89,1.93-2.04,3.34-3.46,4.23-1.41.89-2.85,1.46-4.34,1.71-.24,0-.51,0-.77.03-.27.02-.54.04-.78.04-4.8,0-8.28-2.18-10.43-6.53-2.15-4.36-3.23-9.23-3.23-14.63,0-6.82,1.35-11.92,4.04-15.29,2.7-3.37,5.83-5.05,9.39-5.05,2.08,0,3.78.45,5.08,1.34,1.31.89,2.34,1.86,3.09,2.9.25.35.47.68.67,1,.19.32.37.63.52.93l.15-.07v-18.93h8.54v53.31ZM564.78,217.82c0,.64.02,1.31.07,2.01.05.69.15,1.41.3,2.16.35,1.93,1.02,3.72,2.04,5.38,1.02,1.66,2.54,2.48,4.57,2.48,2.72,0,4.66-1.16,5.82-3.49,1.17-2.32,1.75-4.95,1.75-7.87v-.22c0-3.12-.5-5.98-1.48-8.58-.99-2.59-2.92-3.9-5.79-3.9s-4.62,1.24-5.68,3.71c-1.07,2.48-1.6,5.28-1.6,8.39v-.08Z"></path><path class="cls-1" d="M619.56,208.17v21.39c0,2.37.19,3.95.56,4.71.37.77.81,1.27,1.3,1.52v1.48h-9.2c-.1-.35-.19-.67-.27-.97s-.14-.6-.19-.89c-.05-.4-.1-.8-.15-1.19s-.1-.91-.15-1.55c-.19.24-.4.49-.63.74s-.46.52-.71.81c-.93,1.04-2.11,1.98-3.52,2.82-1.41.85-3.28,1.26-5.61,1.26h-.23c-2.42-.05-4.64-.97-6.65-2.75-2-1.78-3-4.68-3-8.68s.89-6.81,2.67-8.84c1.78-2.03,4.04-3.29,6.76-3.79l7.65-1.48c.1.05.19.06.3.03.1-.02.19-.06.3-.1.59-.15,1.14-.45,1.63-.89.5-.44.75-1.14.75-2.08,0-1.59-.39-2.68-1.15-3.3-.77-.62-1.6-1.01-2.49-1.15-.35-.05-.68-.09-1-.11-.33-.02-.64-.04-.93-.04-1.63,0-2.8.41-3.52,1.23-.73.81-1.2,1.72-1.45,2.71-.1.25-.16.51-.19.78-.02.27-.06.53-.11.77l-8.17-.07c.45-5.69,2.03-9.38,4.75-11.06s5.64-2.57,8.77-2.67h.96c.69,0,1.49.05,2.38.15.89.1,1.78.3,2.67.59,1.98.55,3.79,1.64,5.42,3.27,1.64,1.64,2.45,4.11,2.45,7.43v-.08ZM611.17,223.1v-5.05c-.4.44-1.02.85-1.86,1.19-.84.35-2.15.69-3.93,1.04-1.54.35-2.88.88-4.01,1.6s-1.71,2.17-1.71,4.34c0,1.39.28,2.44.85,3.15.57.73,1.2,1.21,1.89,1.45.19.05.39.09.6.11.19.02.39.04.59.04,1.89,0,3.62-.69,5.2-2.08,1.58-1.39,2.38-3.29,2.38-5.72v-.07Z"></path><path class="cls-1" d="M654.55,237.28h-8.39v-4.97h-.07c-.89,1.93-2.04,3.34-3.46,4.23-1.41.89-2.85,1.46-4.34,1.71-.24,0-.51,0-.77.03-.27.02-.54.04-.78.04-4.8,0-8.28-2.18-10.43-6.53-2.15-4.36-3.23-9.23-3.23-14.63,0-6.82,1.35-11.92,4.04-15.29,2.7-3.37,5.83-5.05,9.39-5.05,2.08,0,3.78.45,5.08,1.34,1.31.89,2.34,1.86,3.09,2.9.25.35.47.68.67,1,.19.32.37.63.52.93l.15-.07v-18.93h8.54v53.31ZM631.83,217.82c0,.64.02,1.31.07,2.01s.15,1.41.3,2.16c.35,1.93,1.02,3.72,2.04,5.38,1.02,1.66,2.54,2.48,4.57,2.48,2.72,0,4.66-1.16,5.82-3.49,1.17-2.32,1.75-4.95,1.75-7.87v-.22c0-3.12-.5-5.98-1.48-8.58-.99-2.59-2.92-3.9-5.79-3.9s-4.62,1.24-5.68,3.71c-1.07,2.48-1.6,5.28-1.6,8.39v-.08Z"></path><path class="cls-1" d="M366.31,311.52h-8.39v-4.97h-.07c-.89,1.93-2.04,3.34-3.45,4.23-1.41.89-2.86,1.46-4.34,1.71-.25,0-.51,0-.78.03s-.53.04-.78.04c-4.8,0-8.28-2.18-10.43-6.53-2.15-4.36-3.23-9.23-3.23-14.63,0-6.82,1.35-11.92,4.05-15.29,2.69-3.37,5.82-5.05,9.39-5.05,2.08,0,3.78.45,5.09,1.34,1.31.89,2.34,1.86,3.08,2.9.25.35.47.68.67,1,.2.32.37.63.52.93l.15-.07v-18.93h8.54v53.31ZM343.6,292.07c0,.64.02,1.31.07,2.01.05.69.15,1.41.3,2.16.35,1.93,1.02,3.72,2.04,5.38s2.54,2.48,4.57,2.48c2.72,0,4.66-1.16,5.83-3.49,1.16-2.32,1.74-4.95,1.74-7.87v-.22c0-3.12-.49-5.98-1.48-8.58-.99-2.59-2.92-3.9-5.79-3.9s-4.62,1.24-5.68,3.71c-1.06,2.48-1.6,5.28-1.6,8.39v-.08Z"></path><path class="cls-1" d="M391.34,299.94h8.77c-.94,3.96-2.47,6.88-4.57,8.77-2.1,1.88-4.34,3.07-6.72,3.56-.5.1-.99.18-1.48.23-.5.05-.99.07-1.49.07-4.55,0-8.38-1.56-11.47-4.68-3.09-3.12-4.64-8.73-4.64-16.85,0-.98.09-2.32.27-4,.17-1.68.56-3.44,1.14-5.28.89-2.67,2.42-5.12,4.57-7.35,2.16-2.22,5.33-3.34,9.54-3.34.69,0,1.42.05,2.16.15.74.1,1.48.27,2.22.52,2.72.8,5.21,2.74,7.46,5.83,2.26,3.09,3.38,8.18,3.38,15.26v1.78h-22.2c.05.59.11,1.25.19,1.97s.21,1.47.41,2.26c.39,1.39,1.11,2.65,2.15,3.79s2.65,1.71,4.83,1.71h.3c1.14-.05,2.22-.44,3.23-1.18,1.02-.75,1.67-1.79,1.97-3.12v-.08ZM391.72,287.84c-.19-2.57-.81-4.48-1.82-5.72-1.02-1.23-2.11-2-3.3-2.3-.24-.1-.49-.16-.74-.19s-.49-.04-.74-.04c-1.98,0-3.51.73-4.6,2.18-1.1,1.44-1.76,3.46-2.01,6.07h13.21Z"></path><path class="cls-1" d="M454.83,275.67h-9.14c-.1-.45-.23-.99-.4-1.64-.18-.64-.41-1.29-.71-1.93-.6-1.39-1.52-2.66-2.78-3.82-1.26-1.17-3.18-1.75-5.76-1.75-.49,0-1.02.05-1.6.15-.57.1-1.15.27-1.74.52-1.89.79-3.6,2.54-5.16,5.24-1.55,2.7-2.34,6.94-2.34,12.73,0,4.8.83,9.04,2.48,12.7,1.66,3.67,4.45,5.49,8.35,5.49,2.53,0,4.63-.85,6.32-2.56,1.68-1.71,2.8-4.19,3.34-7.46l9.14-.07c-.94,5.84-2.97,10.58-6.09,14.22-3.12,3.63-7.42,5.45-12.91,5.45-5.84,0-10.63-2.35-14.37-7.05-3.74-4.7-5.6-11.66-5.6-20.87s1.94-16.32,5.82-21.05c3.88-4.73,8.65-7.09,14.29-7.09,5.1,0,9.07,1.39,11.92,4.16,2.84,2.77,4.82,5.84,5.91,9.21.3.94.53,1.87.7,2.79.18.91.29,1.81.34,2.71v-.07Z"></path><path class="cls-1" d="M490.39,291.78c0,7.17-1.67,12.43-5.01,15.77-3.34,3.34-7.19,5.01-11.54,5.01s-8.2-1.67-11.54-5.01c-3.34-3.34-5.01-8.58-5.01-15.7s1.67-12.37,5.01-15.74c3.34-3.37,7.19-5.05,11.54-5.05s8.2,1.68,11.54,5.05c3.34,3.37,5.01,8.61,5.01,15.74v-.07ZM481.64,291.78c0-.5-.02-1.04-.04-1.64-.02-.6-.09-1.19-.19-1.78-.3-2.13-.99-4.08-2.08-5.86-1.09-1.79-2.92-2.67-5.49-2.67s-4.41.89-5.53,2.67c-1.11,1.78-1.79,3.74-2.04,5.86-.1.59-.16,1.18-.19,1.78s-.04,1.16-.04,1.71.02,1.11.04,1.71c.02.59.09,1.18.19,1.78.25,2.13.93,4.08,2.04,5.86,1.12,1.78,2.96,2.67,5.53,2.67s4.41-.89,5.49-2.67c1.09-1.78,1.78-3.74,2.08-5.86.1-.6.16-1.19.19-1.78.02-.6.04-1.17.04-1.71v-.07Z"></path><path class="cls-1" d="M523.43,284.2v27.32h-8.54v-23.98c0-.35,0-.77-.04-1.26-.02-.5-.06-1.02-.11-1.56-.19-1.18-.66-2.3-1.41-3.34-.74-1.04-2.08-1.55-4.01-1.55s-3.46.77-4.75,2.3c-1.29,1.54-1.93,3.82-1.93,6.83v22.57h-8.54v-39.5h8.17v5.79h.15c.2-.35.43-.74.67-1.19.25-.44.55-.91.89-1.41.74-1.04,1.77-1.99,3.08-2.85,1.31-.87,3.01-1.31,5.09-1.31,3.17,0,5.84,1.12,8.02,3.34,2.18,2.22,3.27,5.52,3.27,9.88v-.07Z"></path><path class="cls-1" d="M548.29,297.12h8.69c-.06.85-.22,1.89-.48,3.16-.27,1.26-.71,2.56-1.31,3.9-.98,2.13-2.5,4.05-4.53,5.78-2.03,1.73-4.85,2.6-8.46,2.6-4.8,0-8.28-1.46-10.43-4.38-2.15-2.92-3.53-6.13-4.12-9.65-.15-.93-.26-1.88-.33-2.82-.07-.94-.11-1.85-.11-2.75,0-6.39,1.22-11.63,3.64-15.74,2.42-4.11,6.38-6.16,11.87-6.16.79,0,1.64.07,2.53.23.89.15,1.78.39,2.67.74,2.13.79,4.11,2.28,5.95,4.46,1.83,2.18,2.89,5.42,3.19,9.72l-8.68-.07c-.06-.3-.11-.63-.19-1-.08-.37-.19-.73-.34-1.08-.35-1.09-.89-2.08-1.64-2.97-.74-.89-1.78-1.31-3.12-1.26h-.37c-2.13,0-3.69.86-4.67,2.59-.99,1.73-1.61,3.67-1.86,5.79-.1.5-.16,1.01-.19,1.52-.02.52-.03,1.03-.03,1.52,0,.69,0,1.5.03,2.42.02.91.11,1.84.26,2.78.25,1.93.82,3.69,1.71,5.27.89,1.59,2.42,2.38,4.61,2.38,1.34,0,2.4-.39,3.19-1.18.79-.79,1.39-1.66,1.78-2.6.25-.59.44-1.17.56-1.74.13-.57.19-1.03.19-1.38v-.07Z"></path><path class="cls-1" d="M580.13,299.94h8.76c-.93,3.96-2.46,6.88-4.56,8.77-2.11,1.88-4.34,3.07-6.72,3.56-.5.1-.99.18-1.49.23-.49.05-.99.07-1.48.07-4.55,0-8.38-1.56-11.47-4.68s-4.64-8.73-4.64-16.85c0-.98.09-2.32.26-4,.18-1.68.56-3.44,1.15-5.28.89-2.67,2.42-5.12,4.57-7.35,2.15-2.22,5.33-3.34,9.54-3.34.69,0,1.41.05,2.16.15.74.1,1.48.27,2.22.52,2.72.8,5.21,2.74,7.46,5.83,2.26,3.09,3.38,8.18,3.38,15.26v1.78h-22.2c.05.59.11,1.25.19,1.97.07.72.21,1.47.41,2.26.39,1.39,1.11,2.65,2.15,3.79,1.04,1.14,2.65,1.71,4.83,1.71h.3c1.14-.05,2.22-.44,3.23-1.18,1.02-.75,1.67-1.79,1.97-3.12v-.08ZM580.5,287.84c-.2-2.57-.81-4.48-1.82-5.72-1.02-1.23-2.11-2-3.3-2.3-.25-.1-.49-.16-.74-.19s-.5-.04-.74-.04c-1.98,0-3.52.73-4.61,2.18-1.09,1.44-1.76,3.46-2,6.07h13.21Z"></path><path class="cls-1" d="M601,277.74h.07c.1-.15.19-.32.3-.52.1-.19.23-.39.37-.6.79-1.38,1.87-2.66,3.23-3.82,1.36-1.16,3.3-1.75,5.82-1.75,3.57,0,6.69,1.68,9.39,5.05,2.7,3.37,4.04,8.47,4.04,15.29,0,5.4-1.06,10.27-3.19,14.63-2.13,4.36-5.62,6.53-10.46,6.53-2.03,0-3.67-.37-4.91-1.11-1.23-.74-2.18-1.59-2.82-2.53-.35-.44-.63-.86-.85-1.26-.22-.39-.4-.77-.56-1.11l-.07-.08v20.42h-8.54v-54.87h8.17v5.72ZM601,292.66c0,2.97.56,5.62,1.71,7.94,1.14,2.33,3.07,3.49,5.79,3.49,1.97,0,3.49-.82,4.53-2.48,1.04-1.66,1.73-3.46,2.08-5.38.15-.75.24-1.47.3-2.16.05-.69.07-1.34.07-1.93,0-3.12-.53-5.91-1.6-8.39-1.06-2.47-2.96-3.71-5.68-3.71-2.88,0-4.79,1.31-5.76,3.9-.96,2.6-1.44,5.46-1.44,8.58v.22-.07Z"></path><path class="cls-1" d="M647.42,297.12h8.69c-.06.85-.22,1.89-.48,3.16-.27,1.26-.71,2.56-1.31,3.9-.98,2.13-2.5,4.05-4.53,5.78-2.03,1.73-4.85,2.6-8.46,2.6-4.8,0-8.28-1.46-10.43-4.38-2.15-2.92-3.53-6.13-4.12-9.65-.15-.93-.26-1.88-.33-2.82s-.11-1.85-.11-2.75c0-6.39,1.22-11.63,3.64-15.74,2.42-4.11,6.38-6.16,11.87-6.16.79,0,1.64.07,2.53.23.89.15,1.78.39,2.67.74,2.13.79,4.11,2.28,5.95,4.46,1.83,2.18,2.89,5.42,3.19,9.72l-8.68-.07c-.06-.3-.11-.63-.19-1-.08-.37-.19-.73-.34-1.08-.35-1.09-.89-2.08-1.64-2.97-.74-.89-1.78-1.31-3.12-1.26h-.37c-2.13,0-3.69.86-4.67,2.59-.99,1.73-1.61,3.67-1.86,5.79-.1.5-.16,1.01-.19,1.52-.02.52-.03,1.03-.03,1.52,0,.69,0,1.5.03,2.42.02.91.11,1.84.26,2.78.25,1.93.82,3.69,1.71,5.27.89,1.59,2.42,2.38,4.61,2.38,1.34,0,2.4-.39,3.19-1.18.79-.79,1.39-1.66,1.78-2.6.25-.59.44-1.17.56-1.74.13-.57.19-1.03.19-1.38v-.07Z"></path><path class="cls-1" d="M668.4,267.34h-8.47v-9.65h8.47v9.65ZM668.4,272.02v39.5h-8.47v-39.5h8.47Z"></path><path class="cls-1" d="M705.53,291.78c0,7.17-1.67,12.43-5.01,15.77-3.34,3.34-7.19,5.01-11.54,5.01s-8.2-1.67-11.54-5.01c-3.34-3.34-5.01-8.58-5.01-15.7s1.67-12.37,5.01-15.74c3.34-3.37,7.19-5.05,11.54-5.05s8.21,1.68,11.54,5.05c3.34,3.37,5.01,8.61,5.01,15.74v-.07ZM696.78,291.78c0-.5-.02-1.04-.04-1.64s-.09-1.19-.19-1.78c-.3-2.13-.99-4.08-2.08-5.86-1.09-1.79-2.92-2.67-5.49-2.67s-4.41.89-5.53,2.67c-1.12,1.78-1.8,3.74-2.05,5.86-.1.59-.16,1.18-.19,1.78s-.03,1.16-.03,1.71,0,1.11.03,1.71c.02.59.09,1.18.19,1.78.25,2.13.93,4.08,2.05,5.86,1.11,1.78,2.96,2.67,5.53,2.67s4.41-.89,5.49-2.67c1.09-1.78,1.78-3.74,2.08-5.86.1-.6.16-1.19.19-1.78.02-.6.04-1.17.04-1.71v-.07ZM691.51,266.68h-6.09l5.71-10.84h9.36l-8.98,10.84Z"></path><path class="cls-1" d="M738.57,284.2v27.32h-8.54v-23.98c0-.35-.02-.77-.04-1.26-.02-.5-.06-1.02-.11-1.56-.19-1.18-.66-2.3-1.41-3.34-.74-1.04-2.08-1.55-4-1.55s-3.46.77-4.75,2.3c-1.29,1.54-1.93,3.82-1.93,6.83v22.57h-8.54v-39.5h8.17v5.79h.15c.19-.35.42-.74.67-1.19.24-.44.54-.91.89-1.41.74-1.04,1.77-1.99,3.09-2.85,1.31-.87,3-1.31,5.08-1.31,3.17,0,5.84,1.12,8.02,3.34,2.18,2.22,3.27,5.52,3.27,9.88v-.07Z"></path><path class="cls-6" d="M150.89,154.73v115.17c0,42.7,34.62,77.32,77.32,77.32,0,0,0,0,0-.01h0c42.7.01,77.32-34.6,77.32-77.31v-115.17h-154.65ZM268.94,272.9c0,22.49-18.23,40.73-40.73,40.73h0s0,0,0,0c-22.49,0-40.73-18.24-40.73-40.73v-84.55h81.46v84.55Z"></path><path class="cls-2" d="M268.94,272.9c0,22.49-18.23,40.73-40.73,40.73h0s0,0,0,0c-22.49,0-40.73-18.24-40.73-40.73v-84.55h81.46v84.55Z"></path><polygon class="cls-4" points="235.24 226.56 221.19 226.56 219.72 229.75 236.7 229.75 235.24 226.56"></polygon><polygon class="cls-4" points="236.42 232.95 220 232.95 218.54 236.15 237.88 236.15 236.42 232.95"></polygon><polygon class="cls-4" points="233.31 248.94 235.32 239.35 221.1 239.35 223.11 248.94 233.31 248.94"></polygon><path class="cls-4" d="M228.22,261.73c-2.81,0-4.99,2.44-4.68,5.23l3.75,33.44c-.87.36-1.48,1.21-1.48,2.21,0,1.07.71,1.95,1.68,2.25.22.09.45.14.7.14,0,0,0,0,0,0s0,0,0,0c1.32,0,2.4-1.07,2.4-2.4,0-1-.61-1.85-1.48-2.21l3.77-33.44c.31-2.79-1.87-5.24-4.68-5.24Z"></path><path class="cls-4" d="M218.03,257.73c.7,0,1.32-.32,1.76-.8h16.85c.44.48,1.06.8,1.76.8,1.32,0,2.4-1.07,2.4-2.4s-1.07-2.4-2.4-2.4c-.7,0-1.32.32-1.76.8h-16.85c-.44-.48-1.06-.8-1.76-.8-1.32,0-2.4,1.07-2.4,2.4s1.07,2.4,2.4,2.4Z"></path><path class="cls-5" d="M219.46,221.76h17.5c6.51-6.06.03-12.02,1.66-14.69-1.95.46-2.08,3.76-3.53,5.31-2.5-5.22,3.19-10.05-1.77-16.2.17,4.95-4.56,6.73-5.12,14.06-2.19-4.31.97-8.3-2.14-12.79-.59,4.01-5.14,5.98-4.49,12.83-2.25-.95-2.19-3.65-4.3-4.14,1.78,3.79-4.07,9.97,2.18,15.61Z"></path><path class="cls-7" d="M276.73,297.32c.11-.29.22-.57.34-.86.2-.49.41-.98.63-1.45.03-.07.07-.14.1-.21.26-.55.53-1.07.82-1.58.03-.05.06-.1.09-.15,1.04-1.81,2.21-3.35,3.45-4.31.69,1.01,1.23,2.35,1.63,3.86.13.49.25,1.01.35,1.53.1.52.19,1.06.26,1.61,0,.02,0,.03,0,.05.06.49.12.99.16,1.5.04.5.07,1,.09,1.5.03,1.1,0,2.19-.07,3.26-.48-.03-.9-.11-1.4-.11-.94,0-1.93.06-2.94.16-.49.05-.99.12-1.49.19-.34.05-.68.08-1.03.14-.15.03-.29.06-.44.09-.43.08-.87.17-1.3.27-.25.05-.5.09-.74.15.17-1.13.43-2.3.77-3.48.21-.72.45-1.43.71-2.14Z"></path><path class="cls-7" d="M274.82,291.27c.23.49.44,1.01.64,1.55-.04.08-.09.15-.13.23-1.69,3.4-2.87,7.33-3.2,10.85-1.35.49-2.61,1.07-3.75,1.73-.95-5.57.86-14.36,4.16-17.94.86.89,1.62,2.14,2.28,3.57Z"></path><path class="cls-7" d="M264.74,316.6c-.01.38-.04.76-.07,1.13-1.99-.55-3.97-.9-5.8-1.06-.53-.04-1.06-.08-1.56-.08-.11,0-.24-.02-.35-.02-.45,0-.8.06-1.21.09.09-.37.19-.74.3-1.12,1.28-4.44,3.67-8.92,6.3-10.91.85,1.27,1.46,3.04,1.86,5.02.06.28.12.55.17.84.08.49.14.99.2,1.5.06.5.1,1,.13,1.5.06,1.03.08,2.07.04,3.1Z"></path><path class="cls-7" d="M200.69,315.26c-1.88-.37-3.73-.47-5.09-.47-.61,0-1.25.02-1.92.06-.51.03-1.04.08-1.58.13-.23.02-.45.05-.68.08-.1-1.38-.09-2.78-.01-4.15.04-.69.11-1.37.2-2.03.31-2.25.88-4.29,1.76-5.73,3.03,2.09,5.9,7.24,7.31,12.11Z"></path><path class="cls-7" d="M184.33,290.25c2.76,3.62,4.33,10.83,3.89,16.18-.84-.45-1.74-.86-2.69-1.23-.15-3.78-1.65-8.38-3.82-12.33,0-.01-.01-.02-.02-.04.63-1.28,1.35-2.41,2.14-3.23.17.19.33.42.49.64Z"></path><path class="cls-7" d="M182.43,304.19c-.55-.15-1.11-.27-1.68-.39-.49-.1-.98-.22-1.48-.31-.1-.02-.2-.02-.3-.04-.4-.06-.8-.11-1.2-.16-.09-.01-.18-.02-.27-.03-.51-.06-1-.11-1.5-.14-.68-.05-1.36-.09-2-.09-.47,0-.86.08-1.3.1-.44-2.13-.66-4.47-.62-6.73,0-.54.04-1.07.07-1.59,0-.07,0-.14.01-.2.01-.14.01-.28.02-.42.03-.36.09-.7.14-1.05.01-.09.02-.18.04-.27.03-.18.05-.36.08-.54.07-.39.15-.76.24-1.12.29-1.23.68-2.35,1.19-3.24.26.17.52.39.77.6.43.35.85.74,1.26,1.19.53.58,1.06,1.21,1.56,1.92.29.4.57.82.84,1.25.02.03.03.05.05.08.25.4.48.82.71,1.25.09.15.18.3.26.46.33.62.63,1.25.92,1.9,1.14,2.55,1.93,5.24,2.19,7.58Z"></path><path class="cls-7" d="M181.64,287.54c-.64.66-1.23,1.47-1.78,2.38-.8-1.13-1.65-2.12-2.53-2.97-.4-.39-.82-.71-1.23-1.02-.2-.15-.39-.36-.6-.5l-.69-.45-1.99-1.3-1.59,2.78c-.49.85-.86,1.88-1.18,2.97-.11-.07-.21-.14-.32-.2-1.64-3.22-2.71-6.61-2.55-9.16,1.83.22,3.98,1.15,6.11,2.47.45-1.48,1.03-2.9,1.66-4.25.36-.76.74-1.48,1.15-2.15.38-.62.76-1.23,1.18-1.75.48-.61.98-1.16,1.5-1.59,2.32,3.16,3.32,9.49,2.86,14.75Z"></path><path class="cls-7" d="M169.49,291.92s-.01,0-.02,0c0-.01,0-.02,0-.04,0,.01.01.02.02.03Z"></path><path class="cls-7" d="M165.53,287.11c-.82-.33-1.64-.62-2.42-.82-2.41-4.92-3.74-11.82-2.5-15.79,1.77.67,3.7,2.13,5.5,3.98.55-3.7,1.72-7.23,3.41-9.26,1.9,1.77,3.49,5.02,4.5,8.54-.98,1.48-1.78,3.06-2.38,4.48-1.44-.63-2.81-1.02-4.08-1.17l-3.18-.39-.2,3.19c-.13,2.07.39,4.59,1.36,7.24Z"></path><path class="cls-7" d="M160.13,288.84c.31.01.64.07.97.12.67.1,1.36.24,2.09.47.93.3,1.89.71,2.87,1.18.48.23.95.48,1.42.75.34.19.68.38,1.02.59.3.19.6.39.9.58-.05.32-.09.65-.12.98-.02.22-.06.42-.08.64-.03.3-.05.59-.07.89-.16,2.8.05,5.74.59,8.45-.47.1-.92.23-1.35.37-4.18-3.82-8.14-10.56-8.23-15.03Z"></path><path class="cls-7" d="M169.65,308.51c-.4-.54-.77-1.08-1.02-1.61.27-.11.62-.15.91-.24.3-.09.6-.18.93-.24.41-.08.81-.16,1.25-.21.08,0,.17,0,.25-.02.51-.05,1.01-.1,1.55-.11.17,0,.31-.03.48-.03.57,0,1.16.03,1.75.07.06,0,.12.01.19.02.5.04,1.01.09,1.52.15.11.01.22.03.34.05.39.05.77.11,1.16.18.18.03.36.07.54.1.98.19,1.95.42,2.89.7.5.15.98.3,1.45.47.48.17.95.35,1.4.54.88.37,1.68.78,2.4,1.22.28.17.55.35.81.54-.04.51-.05,1.04-.07,1.56-.03.83-.04,1.65,0,2.48.02.48.04.96.08,1.44-1.92.41-3.79,1-5.46,1.8-4.81-1.38-10.6-5.11-13.34-8.85Z"></path><path class="cls-7" d="M194.59,326.92c-.95-.17-1.9-.38-2.85-.64-3.9-1.07-7.6-2.85-9.5-4.97.33-.26.69-.5,1.09-.73.75-.44,1.62-.83,2.56-1.17.92-.33,1.91-.62,2.96-.85.46-.1.92-.2,1.4-.28.03,0,.05,0,.08-.01.49-.08.99-.16,1.49-.23.2-.02.41-.04.61-.06,1.07-.11,2.15-.18,3.2-.18,2.13,0,4.14.24,5.8.72.48.14.94.29,1.35.48.11.52.2,1.04.35,1.57.26.96.58,1.93.93,2.91-.46.13-.93.3-1.4.45-.65.21-1.3.42-1.94.67-1.16.45-2.26.97-3.3,1.55-.56.31-1.13.62-1.63.96-.39-.05-.78-.1-1.18-.17Z"></path><path class="cls-7" d="M252.55,334.59c-4.52,0-9.23-1.07-11.27-3.05-3,.25-6.55,1.42-9.92,3.12,2.52,2.04,3.83,3.73,3.83,3.73,0,0-.82.42-3.83,2.38-1.32-1.46-2.64-2.71-3.93-3.79-1.97,1.32-3.77,2.78-5.14,4.32-1.93-.76-4.94-1.67-4.94-1.67,0,0,2.2-2.73,6.22-5.42-3.16-1.93-4.99-2.47-7.25-2.91-1.92,1.31-5.72,2.12-9.7,2.12s-7.97-.78-10.57-2.64c.17-.18.39-.36.59-.53.47-.41.99-.81,1.61-1.18.13-.08.28-.15.41-.22,1.12-.64,2.42-1.21,3.8-1.7,1.23-.44,2.51-.81,3.78-1.11.63-.15,1.26-.28,1.87-.38,0-.01,0-.03.01-.04-.37-.89-.73-1.8-1.07-2.71-.42-1.15-.8-2.29-1.1-3.4-.22-.84-.38-1.65-.49-2.43-.17-1.28-.18-2.48.1-3.52,5.35,1.75,11.48,9.6,11.73,14.87,4.53.64,7.24,1.82,10.19,3.56,3.47-1.69,7.05-3.53,12.05-3.53-.24-4.95,6.95-13.55,12.07-15.46.39,1.26.37,2.86.1,4.6-.1.63-.23,1.27-.39,1.92-.48,2.01-1.2,4.09-1.97,5.98-.09.23-.18.47-.28.69.22.06.45.14.68.21,1.38.43,2.84.96,4.25,1.59,1.44.64,2.8,1.36,3.99,2.13.13.09.26.18.39.27.75.52,1.41,1.05,1.93,1.61.27.28.52.57.72.85-2,1.19-5.18,1.75-8.46,1.75Z"></path><path class="cls-7" d="M263.5,328.84c-.67.06-1.34.1-2.01.11-.17-.14-.35-.27-.52-.41-.6-.47-1.23-.91-1.9-1.32-1.03-.63-2.11-1.2-3.16-1.69-.69-.32-1.36-.6-1.99-.86-.31-.12-.62-.25-.91-.36.22-.61.4-1.26.59-1.89.26-.84.47-1.68.67-2.53.3-.06.6-.11.93-.15.18-.02.38-.03.56-.05.4-.03.77-.1,1.2-.1.1,0,.21.02.31.02.54,0,1.09.04,1.66.09,1.72.17,3.54.53,5.33,1.06.48.14.96.3,1.43.46.49.17.95.35,1.42.54.42.17.84.33,1.24.51.76.35,1.47.74,2.14,1.14.61.37,1.18.76,1.68,1.17.47.38.9.78,1.26,1.18-2.19,1.68-6.02,2.73-9.92,3.07Z"></path><path class="cls-7" d="M272.72,321.29c-.85-.57-1.76-1.1-2.74-1.57-.77-.37-1.57-.71-2.39-1.02.04-.4.1-.78.13-1.19.04-.59.02-1.19.03-1.79,0-.83-.01-1.64-.07-2.47.31,0,.6-.03.91-.03.66,0,1.33.03,2.01.07.77.05,1.53.14,2.29.24,1.87.26,3.66.69,5.22,1.27.63.23,1.22.49,1.76.77.54.28,1.04.58,1.47.91.02.01.04.02.06.04-1.75,1.99-5.09,3.68-8.68,4.77Z"></path><path class="cls-7" d="M285.96,309.41c-.32.32-.67.62-1.02.93-1.07.93-2.25,1.82-3.53,2.62-.17-.09-.34-.17-.52-.25-.98-.48-2.03-.89-3.14-1.22-.54-.16-1.09-.32-1.65-.44-.42-.1-.84-.18-1.26-.25-.59-.11-1.18-.2-1.76-.28-.05,0-.1-.01-.14-.02-.62-.08-1.23-.14-1.84-.18-.86-.06-1.71-.11-2.5-.11h0c-.36,0-.76,0-1.18.02.21-.26.46-.5.73-.75.35-.31.76-.6,1.2-.89.81-.53,1.75-1.01,2.78-1.43.47-.19.95-.38,1.45-.55.3-.1.6-.2.91-.29.18-.06.37-.11.56-.16.29-.08.58-.16.88-.23.39-.1.78-.19,1.17-.28.09-.02.18-.03.26-.05.42-.08.84-.17,1.27-.23.51-.08,1.02-.15,1.53-.21,1.04-.11,2.06-.18,3.04-.18.35,0,.65.06.99.07.51.02,1.03.05,1.51.11.44.06.84.15,1.25.24.08.02.15.04.23.06.51.12,1.06.22,1.5.4.01,0,.03,0,.04.01-.57,1.17-1.55,2.38-2.74,3.55Z"></path><path class="cls-7" d="M289.42,302.95c-.57-.21-1.2-.37-1.86-.51.12-1.47.15-2.97.07-4.47-.03-.5-.08-1-.13-1.49-.05-.52-.09-1.03-.16-1.53-.04-.26-.1-.5-.15-.75,1-.51,2-.96,2.99-1.33.84-.31,1.66-.55,2.45-.73.71-.16,1.39-.26,2.02-.29.15,0,.31-.04.45-.04.08,0,.17,0,.25,0-.3,3.29-2.85,7.7-5.94,11.14Z"></path><path class="cls-7" d="M292.8,289.03c-2.02.35-4.19,1.08-6.34,2.12-.26-.86-.56-1.65-.9-2.39-.28-.6-.56-1.21-.9-1.7l-.73-1.07-1-1.46-.08-.12-1.19.92-1.35,1.04c-1,.77-1.94,1.88-2.83,3.11-1.03-5.49-.31-12.92,2.15-16.5.35.27.68.67,1.01,1.02.44.46.87.96,1.28,1.53.48.67.94,1.37,1.37,2.15.9,1.65,1.71,3.49,2.31,5.39,1.97-2.72,4.52-5.28,7.03-6.96.48-.32.95-.61,1.43-.86.51-.27,1-.49,1.49-.66.17-.06.35-.14.52-.19.85,3.81-.75,10-3.27,14.63Z"></path><path class="cls-7" d="M283.84,273c.8-4.14,2.42-8.19,4.51-10.3,1.92,2.14,3.31,6.07,3.95,10.1-2.05,1.15-4.03,2.74-5.76,4.51-.71-1.45-1.62-2.95-2.7-4.3Z"></path><polygon class="cls-7" points="291.44 173.26 294.04 181.26 287.24 176.32 280.44 181.26 283.04 173.26 276.24 168.32 284.64 168.32 287.24 160.33 289.84 168.32 298.24 168.32 291.44 173.26"></polygon><polygon class="cls-7" points="261.93 173.26 264.53 181.26 257.73 176.32 250.93 181.26 253.52 173.26 246.73 168.32 255.13 168.32 257.73 160.33 260.33 168.32 268.73 168.32 261.93 173.26"></polygon><polygon class="cls-7" points="232.42 173.26 235.01 181.26 228.22 176.32 221.42 181.26 224.01 173.26 217.21 168.32 225.62 168.32 228.22 160.33 230.81 168.32 239.22 168.32 232.42 173.26"></polygon><polygon class="cls-7" points="202.9 173.26 205.5 181.26 198.7 176.32 191.9 181.26 194.5 173.26 187.7 168.32 196.11 168.32 198.7 160.33 201.3 168.32 209.7 168.32 202.9 173.26"></polygon><polygon class="cls-7" points="173.39 173.26 175.99 181.26 169.19 176.32 162.39 181.26 164.99 173.26 158.19 168.32 166.59 168.32 169.19 160.33 171.79 168.32 180.19 168.32 173.39 173.26"></polygon><polygon class="cls-7" points="291.44 206.71 294.04 214.7 287.24 209.76 280.44 214.7 283.04 206.71 276.24 201.77 284.64 201.77 287.24 193.78 289.84 201.77 298.24 201.77 291.44 206.71"></polygon><polygon class="cls-7" points="173.39 206.71 175.99 214.7 169.19 209.76 162.39 214.7 164.99 206.71 158.19 201.77 166.59 201.77 169.19 193.78 171.79 201.77 180.19 201.77 173.39 206.71"></polygon></g></svg> 